<svg xmlns="http://www.w3.org/2000/svg" width="150" height="50" viewBox="0 0 150 50"><path fill="#326fd6" d="m122 41.6c.2.2.6.2.9.3v4.3c-1.3-.2-2.6-.6-3.6-1.3l2.7-3.3m-1.6-1.7l-4.2 1.2c.4 1 1 1.9 1.7 2.7l2.7-3.4c-.1-.2-.2-.3-.2-.6m1.7-5.1c.2-.1.5-.2.7-.2v-4.4c-1.3.2-2.5.6-3.5 1.2l2.8 3.4m-2.2 3.4c0-.1 0-.2 0-.3l-4.2-1.2c-.1.5-.2 1-.2 1.5 0 .4.1.9.1 1.3l4.3-1.2m.8-2.3l-2.8-3.5c-.7.7-1.3 1.7-1.7 2.7l4.3 1.2c.1-.2.2-.2.2-.4m6.1.3l4.1-1.2c-.4-1-1-1.9-1.7-2.7l-2.7 3.4c.2.1.2.2.3.4m8.6 1.9c0 6.6-5.3 11.9-11.9 11.9-6.5 0-11.9-5.3-11.9-11.9 0-6.6 5.3-11.9 11.9-11.9 6.6.1 11.9 5.4 11.9 11.9m-3.1 0c0-4.8-3.9-8.6-8.7-8.6s-8.7 3.9-8.7 8.6 3.9 8.6 8.7 8.6c4.8 0 8.7-3.9 8.7-8.6m-.8-1.4l-4.1 1.2c0 .2 0 .2 0 .4l4.1 1.2c.1-.4.1-.8.1-1.3.1-.6 0-1.1-.1-1.5m-4.8 3.8l2.7 3.3c.7-.7 1.3-1.7 1.7-2.7l-4.1-1.2c-.1.2-.2.4-.3.6m-2.2 1.4v4.2c1.3-.2 2.6-.6 3.6-1.3l-2.7-3.3c-.3.2-.7.3-1 .4m3.5-10.4c-1-.7-2.2-1.1-3.5-1.2v4.4c.2.1.5.2.7.2l2.7-3.4m-100 10c.2.2.6.2.9.3v4.3c-1.3-.2-2.6-.6-3.6-1.3l2.6-3.3m-1.6-1.7l-4.2 1.2c.4 1 1 1.9 1.7 2.7l2.7-3.4c-.1-.2-.2-.3-.2-.6m1.7-5.1c.2-.1.5-.2.7-.2v-4.4c-1.3.2-2.5.6-3.5 1.2l2.8 3.4m-2.2 3.4c0-.1 0-.2 0-.3l-4.2-1.2c-.1.5-.2 1-.2 1.5 0 .4.1.9.1 1.3l4.3-1.2m.8-2.3l-2.8-3.5c-.7.7-1.3 1.7-1.7 2.7l4.3 1.2c.1-.2.2-.2.2-.4m6.1.3l4.1-1.2c-.4-1-1-1.9-1.7-2.7l-2.7 3.4c.1.1.2.2.3.4m8.6 1.9c0 6.6-5.3 11.9-11.9 11.9-6.5 0-11.9-5.3-11.9-11.9 0-6.6 5.3-11.9 11.9-11.9 6.6.1 11.9 5.4 11.9 11.9m-3.1 0c0-4.8-3.9-8.6-8.7-8.6s-8.7 3.9-8.7 8.6 3.9 8.6 8.7 8.6 8.7-3.9 8.7-8.6m-.8-1.4l-4.1 1.2c0 .2 0 .2 0 .4l4.1 1.2c.1-.4.1-.8.1-1.3.1-.6 0-1.1-.1-1.5m-4.9 3.8l2.6 3.3c.7-.7 1.3-1.7 1.7-2.7l-4.1-1.2c0 .2-.2.4-.3.6m-2.2 1.4v4.2c1.3-.2 2.6-.6 3.6-1.3l-2.6-3.3c-.4.2-.7.3-1 .4m3.5-10.4c-1-.7-2.2-1.1-3.5-1.2v4.4c.2.1.5.2.7.2l2.7-3.4m116 7.8c-.4-.4-.5-.7-.5-.7s-.2-.4-.2-.9c-.1-1.7-.1-7.4-.5-10.4-.2-1.7-1-2.4-1.7-3.2-.3-.4-1.5-1.7-3.5-2.8-2.1-1.2-5-2.3-8.9-3.2-11.8-2.6-26-3.8-26-3.8s-1.2-.4-1.8-.9c-2-1.2-6.1-4.1-10.8-6.3-5.1-2.6-11-5-12.7-5.6-5.1-1.7-36.5-1.7-41.7-.2-3.4 1-19.6 7.7-25 10-1.2.5-1.7.7-1.7.7s-5.9.6-8.9 1c-1.1.2-1.4.4-1.4.4s-1.7 1.3-1.8 1.8c-.4.9-.4 2.2-.7 4.4l-.2 4.6c-.2.7-.9 1.2-1.3 1.8-.2.4-.2 1.8-.2 1.8l.5 8.7c0 0 1.5 1.6 2.2 1.7 3.1.7 8.5 1.7 13.5 2.3-.2-.8-.2-1.7-.2-2.7-.1-7.5 6.1-13.6 13.7-13.6s13.7 6 13.7 13.7c0 1.4-.2 2.7-.6 4.1h68c-.4-1.2-.6-2.7-.6-4.1 0-7.6 6.1-13.7 13.7-13.7 7.6 0 13.7 6 13.7 13.7 0 1.4-.2 2.7-.6 4 2.7-.1 5.8-.2 8.2-.5 4.2-.4 4.6-1.1 4.6-1.1s.2-1.1 0-1.3m-143-17.8c-1.5.3-3.4.1-3.8-.2-.7-.5-.3-3.1.4-5 .5-1.2 8-1.5 8.8-.2.3.6-3.3 4.8-5.4 5.3m74-17.8c1.9.5 6.9 2.4 11.5 4.9 1.6.8 3 1.7 4.1 2.4-.6.3-1.1.8-1.3 1.5-.3.7-.2 1.7.1 2.5l-25-.6-.5-11.2c5.5.1 10 .3 11 .6m-47 9.7c0 0-.3-1-.2-1.4.1-.4 3.1-2.6 6.7-4.8 2.9-1.8 6.1-3.2 6.8-3.5 1.7-.6 8.5-.9 16.5-.8.5 0 1.1 0 1.6 0l.2 11.2-31.6-.7m70.9 19.9l-.6.2-54-1-.4-.6.4-.8.6-.4 54 1 .6.4-.4 1.2m30.8-10.9c.2-.7 4.8-1.2 7.8.4 2.7 1.6 3.9 4.4 3.4 5-.4.5-4.8.7-7.4-.6-3.1-1.6-4.1-3.6-3.8-4.8m11.6 14.6c0 0-.4.4-1.1.5-.7.1-1.6.2-2.2.2-.5.1-.8-.3-.8-.3v-1.6c0 0 .3-.7.8-.7.7-.1 1.6-.2 2.2-.2.6-.1 1.1.5 1.1.5v1.6"/></svg>