<svg xmlns="http://www.w3.org/2000/svg" width="137" height="54" viewBox="0 0 137 54"><path fill="#326fd6" d="m115 45.9c.3.1.5.3.9.4v4.1c-1.2-.1-2.4-.6-3.4-1.3l2.6-3.2m-1.5-1.6l-3.9 1.2c.4 1 1 1.8 1.7 2.6l2.6-3.3c-.1-.2-.2-.4-.3-.5m1.7-4.9c.2-.1.4-.1.7-.2v-4.2c-1.2.1-2.3.5-3.3 1.2l2.6 3.3m-2 3.3c0-.1 0-.2 0-.3l-4-1.2c-.1.4-.1.9-.1 1.4 0 .4.1.8.1 1.3l4-1.2m.8-2.2l-2.6-3.3c-.7.7-1.3 1.6-1.7 2.5l4.1 1.2c0-.1.1-.2.2-.4m5.8.4l3.9-1.1c-.4-1-1-1.8-1.7-2.5l-2.6 3.2c.1.1.2.3.3.4m8.1 1.8c0 6.3-5 11.4-11.3 11.4-6.2 0-11.3-5.1-11.3-11.4s5-11.4 11.3-11.4c6.3 0 11.3 5.1 11.3 11.4m-3 0c0-4.6-3.7-8.3-8.3-8.3s-8.3 3.8-8.3 8.3c0 4.6 3.7 8.3 8.3 8.3 4.6 0 8.3-3.8 8.3-8.3m-.7-1.4l-3.9 1.1c0 .1 0 .2 0 .4l3.9 1.2c.1-.4.1-.8.1-1.3.1-.4 0-1-.1-1.4m-4.6 3.7l2.5 3.1c.7-.7 1.3-1.6 1.7-2.6l-3.8-1.1c-.1.2-.2.4-.4.6m-2.1 1.3v4.1c1.2-.1 2.4-.6 3.4-1.3l-2.5-3.1c-.3.1-.6.2-1 .3m3.4-10c-1-.7-2.1-1-3.3-1.2v4.2c.2.1.5.1.7.2l2.6-3.3m-96 9.7c.3.1.5.3.9.4v4.1c-1.2-.1-2.4-.6-3.4-1.3l2.6-3.2m-1.5-1.6l-3.9 1.2c.4 1 .9 1.8 1.7 2.6l2.6-3.3c-.1-.2-.2-.4-.3-.5m1.6-4.9c.2-.1.4-.1.7-.2v-4.2c-1.2.1-2.3.5-3.3 1.2l2.6 3.3m-2 3.3c0-.1 0-.2 0-.3l-4-1.2c-.1.4-.1.9-.1 1.4 0 .4.1.8.1 1.3l4-1.2m.7-2.2l-2.6-3.3c-.7.7-1.3 1.6-1.7 2.5l4.1 1.2c.1-.1.1-.2.2-.4m5.8.4l3.9-1.1c-.4-1-1-1.8-1.7-2.5l-2.6 3.2c.1.1.1.3.3.4m8.1 1.8c0 6.3-5 11.4-11.3 11.4s-11.3-5.1-11.3-11.4 5-11.4 11.3-11.4 11.3 5.1 11.3 11.4m-3 0c0-4.6-3.7-8.3-8.3-8.3s-8.3 3.8-8.3 8.3c0 4.6 3.7 8.3 8.3 8.3s8.3-3.8 8.3-8.3m-.7-1.4l-3.9 1.1c0 .1 0 .2 0 .4l3.9 1.2c.1-.4.1-.8.1-1.3 0-.4 0-1-.1-1.4m-4.6 3.7l2.5 3.1c.7-.7 1.3-1.6 1.7-2.6l-3.8-1.1c-.1.2-.2.4-.4.6m-2.1 1.3v4.1c1.2-.1 2.4-.6 3.4-1.3l-2.5-3.1c-.3.1-.6.2-1 .3m3.4-10c-.9-.7-2.1-1-3.3-1.2v4.2c.2.1.5.1.7.2l2.6-3.3m106 5.5c.1-2.7.7-8.2.7-10.2-.1-1.4-.7-1-.7-2-.2-2.8-.4-4.4-1.1-5.8-.4-1-2.5-3-7.8-4.2-8.8-2-22.3-3.3-28-4-1.8-.2-2.5-.8-2.5-.8s-5.3-3.7-11.5-7.1c-6.1-3.3-8.9-4.9-12.3-6-3.4-1.1-13-1.3-27.3-1.1-5.8.1-11.8.3-17.3.7-.2-.3-.5-.5-.7-.7-.2-.3-.8-.3-.8-.3l-2.3.4c0 0-.6.1-.7.5 0 .1-.1.4-.1.5-5.2.4-9.4.7-11.6.9-.4 0-.3 1.5-.3 1.5l.9 1.8c0 0 0 1.2-.5 1.7-2 1.7-7.5 6-9.8 8.4-.7.8-.9 1.8-.9 1.8s0 1.7.1 4.6c.1 1.3.1 4.3.1 4.3s-.8.3-1.2 1c-.1.3.1.8 0 1.1-.1.7 0 1.9 0 2.8 0 .6-.1.9-.4 1.3-.1.2-.1.9-.1 1.3.7 3.6 1 7.5 1 7.5s1.4 1.7 2.6 1.8c2.4.1 5.9.4 9.4.8 0-.4-.1-.7-.1-1.1 0-7.2 5.8-13.1 13-13.1s13 5.9 13 13.1c0 .8-.1 1.7-.2 2.5h65c-.1-.8-.2-1.6-.2-2.5 0-7.2 5.8-13.1 13-13.1s13 5.9 13 13.1c0 .8-.1 1.6-.2 2.4h7.1c0 0 .4-.3.8-1.5 0-.1.1-.4-.1-.8-.1-.4-.4-.7-.4-1.1m-126-20.7c-1.6 1.3-4.2 3.3-5.7 4.5-.7.5-1.1.7-1.8.1-.3-.2-.4-1.6-.5-3.3-.1-2.1-.2-4.3 0-4.7.4-.7.9-1.3 1.8-1.1 1.5.4 3.7.9 5.3 1.2 1 .2 1.2 1.1 1.2 1.1s.4 1.4-.4 2.1m60-17c2.2.5 6.9 3.2 11.3 6 1.2.8 2.3 1.6 3.4 2.4-1 .3-1.9 1-2.3 1.9-.6 1.3-.3 2.7.5 3.9-5-.1-12.4-.2-20.4-.5-.7-1.6-1.4-3.7-2.1-6.1-1-3.3-1.5-6.8-1.8-8.6 5.1.2 9.4.5 11.5 1m-41 11.9c-8-.9-10.2-5.5-10.4-5.8-.4-1.4 3.1-5.2 3.1-5.2s4.8-.7 11.3-1.3l-3.6 12.4c-.1-.1-.3-.1-.5-.1m1.9.1l3.7-12.6c.9-.1 1.8-.1 2.7-.2 0 1.2-.1 4.4.2 7.3.2 2.3.7 4.5 1 6-2.8-.1-5.3-.3-7.5-.5m8-5.5c-.4-3-.4-6-.4-7.4 2-.1 4.2-.2 6.3-.2 3.4-.1 6.9-.1 10.2 0-.1 1.4-.2 5.4.4 8.9.4 2.2 1 4.1 1.4 5.7-5.8-.2-11.6-.4-16.8-.8-.3-1.5-.8-3.8-1.1-6.2m56 30.5l-.4.9c0 0-.1.4-1.1.3-7.5-.2-42.8-1.1-50-1.3-.9 0-.8-.4-.8-.4l.7-1c0 0 .3-.4.9-.3 5.9.2 40.7 1.2 49.6 1.5 1.3-.1 1 .4 1 .4m39-12.6c-.7.6-2.1-.4-3.7-1.4-1.6-1.1-3.3-2.2-3.1-3 .4-1.2 5-1.8 6.1-.4 1.2 1.6 1.5 4.2.7 4.9"/></svg>