<svg xmlns="http://www.w3.org/2000/svg" width="155" height="55" viewBox="0 0 155 55"><g fill="#326fd6"><path d="m135 26.4c-.1-.6-.5-1.1-.6-1.4-.2-.3-.3-7.7-.7-9.3-.4-1.6-5.3-3.8-5.8-4.2-.5-.3-4.7-9.1-6.3-10-1.4-.9-12-1.1-13-1.1 0 0 0 0 0 0-1 0-11.7.2-13 1.1-1 .6-3.1 4.5-4.6 7.2.5 1 .9 2 1.4 3 .1-.1.3-.2.5-.4.3-.6 3.8-7.6 4.4-8 .6-.5 11.2-.8 11.2-.8h2.2c0 0 8.8.3 9.4.8.6.5 4.4 8.1 4.4 8.1s-10.7-.5-16-.5c0 0 0 0 0 0-3.5 0-7.8.1-11 .2.2.1.4.1.6.2 3 1.1 4.5 3.1 3.9 5.3-.2.9-.9 2-2.7 2.5.7.5 1.3.9 1.7 1.3 1.4 1.2 3.3 3.2 3.3 7.8v6.7c2.3 0 3.9.1 4.3.1 0 0 0 0 0 0 1.4 0 21.4-.3 23.9-1.2 2.6-.9 2.6-6.8 2.6-7.4m-5.4 5.2c-.9 0-1.6-.7-1.6-1.6 0-.9.7-1.6 1.6-1.6.9 0 1.6.7 1.6 1.6 0 .9-.7 1.6-1.6 1.6m2.2-11.6c-.6.5-4.7 1.5-6.2 1.4-.9 0-2.6 0-2.7-.8-.1-.8-.2-2 .4-2.4 1-.6 2.9-.9 4-1.2 1.5-.3 3.5-.6 3.8-.5.7.3 1.3 2.9.7 3.4m-3.6-9c-.2-.2-.5-.8-.9-1.6l.5-.5c0 0 .5-.8.7-1 .5-.4 3.2-.6 3.8.1.6.7.4 1.9-.3 2.3-.2.1-.9.3-1.4.4-.9.1-1.8-.1-1.8-.1l-.4.5c-.1 0-.1-.1-.1-.1m4.4 23.5c.3-.1.6-.3.9-.5v2.8c0 .7-.6 1.3-1.3 1.3h-5.9c-.7 0-1.3-.6-1.3-1.3v-1.5c3.6-.2 6.6-.4 7.6-.8"/><path d="m38 10.9h1.8c-.1.3-.2.5-.3.8-.3-.3-.8-.6-1.5-.8m-10.4 25c-1.6 0-2.6 0-2.8 0-.5 0-17 .3-20.9-1.6-5.1-2.4-4.2-13.4-3.9-14.8.5-2.1 3.8-6.8 5.1-8.9 1.9-3 4.5-8.3 7.1-9.6 2-1 11.9-1 12.5-1 0 0 0 0 0 0 .6 0 10.5 0 12.5 1 1.6.8 3.2 3.2 4.7 5.5-.5.9-1 1.8-1.5 2.8-1.2-1.9-3.3-5-4.3-5.8-1.5-1.3-10.8-1.3-11.4-1.3 0 0 0 0 0 0-.6 0-9.9.1-11.4 1.3-1.4 1.1-5.2 7.3-5.2 7.3h16.6 10.6c-.5.1-1 .2-1.5.4-3.1 1.1-4.5 3.1-3.9 5.3.2.9.9 2 2.7 2.5-.7.5-1.3.9-1.7 1.3-1.4 1.2-3.4 3.2-3.4 7.8v7.8m-20-3.1l-.8-3.8h-4.2c0 0 .3 2 2.3 3.2 1.1.6 2.6.6 2.6.6m-.8-18c-2.5-.6-4.8 2.6-4.3 4.5.3 1.1 7.2 3.9 8.2 2.5 1.3-2-2.9-6.7-3.9-6.9m-6.1 16.8v5.6c0 .7.6 1.3 1.3 1.3h5.4c.7 0 1.3-.6 1.3-1.3v-1.2c-2.2-.2-4-.6-5-1.1-1.4-.7-2.4-1.9-3.1-3.3m2.8-20l.2.3c.1-.1.2-.3.2-.4.3-.4.5-.8.8-1.1.2-.3.3-.5.5-.8-.1-.2-.3-.5-.5-.6-.6-.5-2.4-.3-3.1.4-.8.8-.4 1.3-.1 1.7.3.4 2 .6 2 .6"/></g><path fill="#f29a02" d="m100 21.9c-1.4-1.1-5.5-3.9-6.8-5-1.5-1.2-3.8-9.8-6.9-11.9-3.4-2.2-19-2.4-19.8-2.4 0 0 0 0 0 0-.8 0-16.5.2-19.8 2.4-3.1 2-5.4 10.6-6.9 11.9-1.3 1.1-5.4 3.9-6.9 5-1.3 1.1-2.6 2.7-2.6 6.3v20c0 1 .8 1.8 1.8 1.8h34.4 34.4c1 0 1.8-.8 1.8-1.8v-20c0-3.6-1.3-5.2-2.6-6.3m-63 23.5c-1.3 0-2.4-1-2.4-2.3s1.1-2.3 2.4-2.3c1.3 0 2.4 1 2.4 2.3s-1.1 2.3-2.4 2.3m7.9-14.5c-1.5.7-5.1 1.5-7.3 1.5-1.2 0-4.5-.2-4.9-.6-.5-.6-.2-5.1.8-5.8.8-.6 14.3.9 14.5 2.2.2 1.2-2 2.2-3.1 2.7m21-14.8c-5.9 0-23.4.8-23.4.8s3.1-8.8 4.7-10 13.9-2 18.6-2c4.7 0 17 .7 18.6 2 1.7 1.2 4.7 10 4.7 10s-17.5-.8-23.4-.8m29 29c-1.3 0-2.4-1-2.4-2.3s1.1-2.3 2.4-2.3c1.3 0 2.4 1 2.4 2.3s-1.1 2.3-2.4 2.3m4.3-13.6c-.4.5-3.7.6-4.9.6-2.1 0-5.7-.8-7.3-1.5-1.1-.5-3.4-1.6-3.1-2.7.3-1.3 13.7-2.9 14.5-2.2 1 .7 1.2 5.2.8 5.8m-6-16.5c0 0-.2-1.3.1-2.1.4-.7 2.2-.7 3.8-.1.8.3 3.1 1.2 2.7 2.9-.4 1.7-4.5 1.4-4.5 1.4h-.7c-.7-.5-1.2-.9-1.5-1.2-.2-.1-.4-.5-.7-1h.8m-61 .8c-.4-1.7 1.9-2.7 2.7-2.9 1.5-.6 3.4-.6 3.8.1.4.7.1 2.1.1 2.1h.8c-.3.5-.5.9-.7 1-.3.3-.9.7-1.5 1.2h-.7c0 0-4 .3-4.5-1.4m68 34.6v2.7c0 .9-.7 1.6-1.6 1.6h-8.8c-.9 0-1.6-.7-1.6-1.6v-2.7h12m-55 0v2.7c0 .9-.7 1.6-1.6 1.6h-8.8c-.9 0-1.6-.7-1.6-1.6v-2.7h12"/></svg>