<svg width="115" height="79" viewBox="0 0 115 79" fill="none" xmlns="http://www.w3.org/2000/svg">
<path d="M114.213 23.3267L93.2409 1.06576C92.7647 0.560411 91.969 0.536757 91.4638 1.01271L82.6528 9.31413C82.1469 9.79005 82.1236 10.5858 82.6 11.0911L103.572 33.3521C104.048 33.8574 104.844 33.8811 105.349 33.4051L114.16 25.1037C114.666 24.6278 114.69 23.832 114.213 23.3267ZM106.553 25.8552C105.451 26.8935 103.716 26.8417 102.677 25.7398C101.639 24.6378 101.69 22.9031 102.793 21.8647C103.895 20.8266 105.63 20.8784 106.668 21.9804C107.706 23.0821 107.654 24.8171 106.553 25.8552ZM22.0434 4.11186C21.4951 3.68573 20.7059 3.78503 20.2798 4.33311L0.707405 29.5236C0.281502 30.0716 0.380355 30.8616 0.928467 31.2875L10.5284 38.7464C11.077 39.1723 11.8664 39.0733 12.2924 38.5249L31.8649 13.3345C32.2908 12.7864 32.192 11.9965 31.6431 11.5706L22.0434 4.11186ZM12.8318 30.3577C11.9002 31.5575 10.1716 31.7745 8.97238 30.8422C7.77238 29.9102 7.55571 28.182 8.48816 26.9823C9.41991 25.7825 11.1484 25.5655 12.3477 26.4978C13.5471 27.43 13.7643 29.158 12.8318 30.3577Z" fill="#E20613"/>
<path d="M85.653 54.7675L64.1436 37.9761L60.222 41.5648C54.6806 46.5403 49.6915 47.877 45.9253 47.877C44.9604 47.877 44.0742 47.7888 43.281 47.6525C38.1054 46.7587 34.5969 43.4441 33.0132 40.6011C31.0738 37.516 31.6309 33.6221 34.3907 31.0884L49.8401 17.0416C48.0189 15.647 45.8751 14.9579 43.7401 14.9581C40.7362 14.9581 37.7624 16.2979 35.779 18.8608L20.6949 38.3555C19.463 39.9318 18.9086 41.9331 19.1525 43.9185L20.1252 51.8328C20.3689 53.8182 21.3916 55.6254 22.9685 56.8568L49.4092 77.4715C50.1476 78.0475 51.0279 78.3293 51.9025 78.3293C53.0049 78.3293 54.1006 77.882 54.8973 77.0122L56.0863 75.7138C57.647 74.0095 57.4716 71.3478 55.7008 69.8632L60.1391 73.5841C60.896 74.2184 61.8215 74.5327 62.7454 74.5327C63.7637 74.5327 64.7796 74.1511 65.5628 73.3958L66.9298 72.0779C68.6685 70.4015 68.5672 67.5861 66.7118 66.0394L69.9937 68.7753C70.7495 69.4049 71.6715 69.7164 72.5913 69.7164C73.6209 69.7164 74.6464 69.3267 75.432 68.5568L76.6381 67.3752C78.3311 65.7166 78.2477 62.9667 76.4596 61.4132L78.6258 63.2865C79.3936 63.9504 80.3381 64.2747 81.278 64.2747C82.4387 64.2747 83.592 63.7795 84.3955 62.8173L86.273 60.5682C87.743 58.807 87.462 56.1782 85.653 54.7675ZM96.1652 34.6665L78.0015 16.1385C77.2133 15.3355 76.1797 14.8198 75.0645 14.6738L65.7685 13.4564C64.3062 13.2651 62.8344 13.7247 61.7413 14.714L59.5535 16.7047L38.6308 35.7287C38.3953 35.9447 37.8746 36.5501 38.3485 37.2792L38.4787 37.4964C39.2938 38.9966 41.3194 40.935 44.3515 41.4592C47.9631 42.0754 51.9922 40.5078 56.0015 36.9073L63.8225 29.7498L88.4324 48.9647L96.1014 41.7729C98.0797 39.8278 98.1083 36.6474 96.1652 34.6665Z" fill="#868686"/>
</svg>
