<svg width="57" height="53" viewBox="0 0 57 53" fill="none" xmlns="http://www.w3.org/2000/svg">
<path d="M8.86566 0.469858L0.513883 11.2332C-0.366953 12.3683 0.442062 14.0201 1.87889 14.0201H2.28021C2.30215 14.0115 2.3245 14.0041 2.34718 13.9978C2.37739 14.0033 2.40721 14.0107 2.43647 14.0201H17.9837C18.7002 14.0201 19.3813 13.7087 19.8501 13.1669L27.9968 3.75151C28.2583 3.45608 28.7099 3.42861 29.0053 3.69017C29.0194 3.70264 29.033 3.71567 29.046 3.72923L38.1613 13.2579C38.6269 13.7447 39.2713 14.02 39.9448 14.02H55.121C56.6031 14.02 57.3973 12.2765 56.4246 11.1583L47.1273 0.469727H8.86605L8.86566 0.469858Z" fill="#E20613"/>
<path d="M28.5565 6.01782L20.2203 15.6781C20.0841 15.8348 19.8851 15.9224 19.6776 15.9169H3.78662V29.3327H9.71313L9.66971 21.4744C9.66121 19.4169 11.3504 17.7405 13.4036 17.7405C15.457 17.7405 17.1302 19.4233 17.1376 21.4744L17.1593 29.3327H24.996L24.9526 21.4744C24.9441 19.4169 26.6333 17.7405 28.6866 17.7405C30.7399 17.7405 32.4131 19.4233 32.4205 21.4744L32.4422 29.3327H40.279L40.2355 21.4744C40.227 19.4169 41.9162 17.7405 43.9695 17.7405C46.0228 17.7405 47.6961 19.4233 47.7034 21.4744L47.7251 29.3327H53.6083V15.9169H38.3037C38.1432 15.911 37.9898 15.8496 37.8695 15.7433C37.847 15.73 37.8252 15.7155 37.8044 15.6998C37.7892 15.686 37.7748 15.6715 37.7609 15.6564C37.7384 15.6432 37.7167 15.6287 37.6958 15.613L28.5565 6.01799V6.01782Z" fill="#868686"/>
<path d="M1.85484 31.1394V32.5466C1.85484 33.4599 2.59522 34.2003 3.50853 34.2003H53.8872C54.8005 34.2003 55.5409 33.4599 55.5409 32.5466V31.1394H54.4988C54.4351 31.1558 54.3693 31.1631 54.3035 31.1609H3.0919C3.02608 31.1631 2.9603 31.1558 2.89652 31.1394H1.85449H1.85484Z" fill="#E20613"/>
<path d="M3.78711 36.4443V52.5304H8.3244L8.28047 45.0196C8.27234 42.9622 9.96101 41.2856 12.0141 41.2856C14.068 41.2856 15.7412 42.9686 15.7485 45.0196L15.7705 52.5304H41.6683L41.6252 45.0196C41.6171 42.9622 43.3058 41.2856 45.3597 41.2856C47.4127 41.2856 49.086 42.9686 49.0933 45.0196L49.1152 52.5304H53.6086V36.4443H3.78711ZM34.0059 47.0831C34.0059 47.6964 33.5089 48.1937 32.8955 48.1937H24.4961C23.8828 48.1937 23.3858 47.6964 23.3858 47.0831V41.8772C23.3858 41.2638 23.8828 40.7666 24.4961 40.7666H32.8955C33.5089 40.7666 34.0059 41.2638 34.0059 41.8772V47.0831Z" fill="#868686"/>
</svg>
