<svg width="51" height="54" viewBox="0 0 51 54" fill="none" xmlns="http://www.w3.org/2000/svg">
<path fill-rule="evenodd" clip-rule="evenodd" d="M32.5865 53.4243H21.3656V47.3564C21.3656 46.8302 20.9353 46.4 20.4092 46.4H12.9949C12.4687 46.4 12.0384 46.8302 12.0384 47.3564V53.4243H0.817871V2.3389C0.988609 1.16754 1.99077 0.264771 3.22174 0.264771H30.1842C31.3948 0.264771 32.4097 1.16794 32.5865 2.33323V53.4243H32.5865ZM27.1952 5.46024H6.21044C5.79536 5.46024 5.44628 5.81309 5.44628 6.22444V8.6575C5.44628 9.06905 5.79377 9.42196 6.21044 9.42196H27.1952C27.6121 9.42196 27.9596 9.07793 27.9596 8.6575V6.22444C27.9596 5.80394 27.6103 5.46024 27.1952 5.46024ZM27.1952 38.6864H6.21044C5.79536 38.6864 5.44628 39.0392 5.44628 39.4506V41.8842C5.44628 42.2955 5.79377 42.6486 6.21044 42.6486H27.1952C27.6121 42.6486 27.9596 42.3046 27.9596 41.8842V39.4506C27.9596 39.0303 27.6103 38.6864 27.1952 38.6864ZM27.1952 32.041H6.21044C5.79536 32.041 5.44628 32.3939 5.44628 32.8054V35.2388C5.44628 35.6501 5.79377 36.0033 6.21044 36.0033H27.1952C27.6121 36.0033 27.9596 35.659 27.9596 35.2388V32.8054C27.9596 32.3849 27.6103 32.041 27.1952 32.041ZM27.1952 25.3959H6.21044C5.79536 25.3959 5.44628 25.7487 5.44628 26.16V28.5933C5.44628 29.0047 5.79377 29.3575 6.21044 29.3575H27.1952C27.6121 29.3575 27.9596 29.0138 27.9596 28.5933V26.16C27.9596 25.7395 27.6103 25.3959 27.1952 25.3959ZM27.1952 18.7507H6.21044C5.79536 18.7507 5.44628 19.1037 5.44628 19.5149V21.9482C5.44628 22.3598 5.79377 22.7124 6.21044 22.7124H27.1952C27.6121 22.7124 27.9596 22.3688 27.9596 21.9482V19.5149C27.9596 19.0948 27.6103 18.7507 27.1952 18.7507ZM27.1952 12.1054H6.21044C5.79536 12.1054 5.44628 12.4582 5.44628 12.8695V15.3032C5.44628 15.7145 5.79377 16.0673 6.21044 16.0673H27.1952C27.6121 16.0673 27.9596 15.7233 27.9596 15.3032V12.8695C27.9596 12.449 27.6103 12.1054 27.1952 12.1054Z" fill="#868686"/>
<path fill-rule="evenodd" clip-rule="evenodd" d="M34.4775 10.8538H48.126C49.4595 10.8538 50.5556 11.9493 50.5556 13.283C50.5556 26.6344 50.6568 40.2137 50.6568 53.4243H34.4775V46.9131H45.4731C45.89 46.9131 46.236 46.5688 46.2362 46.1485L46.2375 43.7153C46.2378 43.2942 45.8868 42.9507 45.4731 42.9507H34.4775V40.2674H45.4731C45.89 40.2674 46.236 39.9247 46.2362 39.5032L46.2375 37.0699C46.2378 36.6487 45.8868 36.3057 45.4731 36.3057H34.4775V33.6223H45.4731C45.89 33.6223 46.236 33.2792 46.2362 32.8581L46.2375 30.4247C46.2378 30.0046 45.8868 29.6605 45.4731 29.6605H34.4775V26.9772H45.4731C45.89 26.9772 46.236 26.6332 46.2362 26.2131L46.2375 23.7794C46.2378 23.3585 45.8868 23.0152 45.4731 23.0152H34.4775V20.3317H45.4731C45.89 20.3317 46.236 19.9884 46.2362 19.5672L46.2375 17.1343C46.2378 16.7132 45.8868 16.3701 45.4731 16.3701H34.4775V10.8538Z" fill="#E20613"/>
</svg>
