<svg class="fill-current" aria-hidden="true" version="1.1" x="0" y="0" viewBox="0 0 24 24" height="48" width="48"><path d="m0 0v24h24v-24z" fill="none"></path><path d="m6 16.5c.13 0 .26-.05.35-.15.41-.4.89-.4 1.29 0 .4.41.4.89 0 1.29-.09.09-.15.22-.15.36q0 .23 2.15 2.35c.1.1.22.14.35.14s.26-.05.35-.15l10-10c.2-.2.2-.51 0-.71l-2-2c-.2-.2-.51-.2-.71 0-.4.4-.89.4-1.29 0-.4-.41-.4-.89 0-1.29.2-.2.2-.51 0-.71l-2-2c-.2-.2-.51-.2-.71 0l-9.98 10.02c-.19.19-.2.51 0 .71q2.12 2.15 2.35 2.15zm1-4.79 1.65 1.65c.1.1.23.15.35.15s.26-.05.35-.15c.2-.2.2-.51 0-.71l-1.65-1.65 6.29-6.29 1.33 1.33c-.19.3-.28.62-.28.96 0 .49.21.96.6 1.35.66.66 1.58.78 2.31.32l1.33 1.33-6.29 6.29-1.65-1.65c-.2-.2-.51-.2-.71 0s-.2.51 0 .71l1.65 1.65-2.29 2.29c-.47-.46-1.01-1-1.33-1.33.19-.3.29-.63.29-.97 0-.49-.21-.96-.6-1.35-.66-.66-1.59-.78-2.32-.31-.33-.32-.86-.87-1.33-1.33l2.29-2.29z"></path><path d="m11 11.5c.13 0 .26-.05.35-.15l2-2c.2-.2.2-.51 0-.71s-.51-.2-.71 0l-2 2c-.2.2-.2.51 0 .71.1.1.23.15.35.15z"></path><path d="m12.65 13.35c.1.1.23.15.35.15s.26-.05.35-.15l2-2c.2-.2.2-.51 0-.71s-.51-.2-.71 0l-2 2c-.2.2-.2.51 0 .71z"></path></svg>