<svg class="fill-current" aria-hidden="true" version="1.1" viewBox="0 0 24 24" x="0" y="0" width="48" height="48"><path d="m0 0v24h24v-24z" fill="none"></path><path d="m5.35 5.65c-.2-.2-.51-.2-.71 0s-.2.51 0 .71l2 2c.1.1.23.15.35.15s.26-.05.35-.15c.2-.2.2-.51 0-.71l-2-2z"></path><path d="m18.65 5.65-2 2c-.2.2-.2.51 0 .71.1.1.23.15.35.15s.26-.05.35-.15l2-2c.2-.2.2-.51 0-.71s-.51-.2-.71 0z"></path><path d="m12 6.5c.28 0 .5-.22.5-.5v-3c0-.28-.22-.5-.5-.5s-.5.22-.5.5v3c0 .28.22.5.5.5z"></path><path d="m14.5 12.5c0 .28.22.5.5.5s.5-.22.5-.5c0-.97-.66-2.72-3-2.95v-.55c0-.28-.22-.5-.5-.5s-.5.22-.5.5v.55c-2.34.23-3 1.98-3 2.95s.66 2.72 3 2.95v4c-1.89-.24-2-1.76-2-1.95 0-.28-.22-.5-.5-.5s-.5.22-.5.5c0 .97.66 2.72 3 2.95v.55c0 .28.22.5.5.5s.5-.22.5-.5v-.55c2.34-.23 3-1.98 3-2.95s-.66-2.72-3-2.95v-4c1.89.24 2 1.77 2 1.95zm-5 0c0-.19.11-1.71 2-1.95v3.9c-1.89-.24-2-1.76-2-1.95zm5 4.99c0 .19-.11 1.71-2 1.95v-3.9c1.89.24 2 1.76 2 1.95z"></path></svg>