<svg class="fill-current" aria-hidden="true" version="1.1" x="0" y="0" viewBox="0 0 24 24" height="48" width="48"><path d="m0 0v24h24v-24z" fill="none"></path><path d="m21.47 13.11c-.19-1.3-3.79-2.31-6.17-2.84.7-.26 1.35-.53 1.91-.79 1.75-.84 2.44-1.52 2.26-2.21l-.52-1.93s0 0 0 0c-.02-.08-.06-.15-.11-.21-.97-1.47-7.3.12-8.62.48-2.09.56-4.02 1.24-5.44 1.92-1.75.84-2.44 1.52-2.26 2.21l.52 1.93c.12.45.63.69 1.35.78-.06.67.7 1.27 2.44 1.93.31.12.66.23 1.02.35-2.02.22-4.04.67-4.31 1.58-.03.06-.05.13-.05.21v2c0 1.9 7.08 2 8.5 2s8.5-.1 8.5-2v-2c0-.08-.02-.16-.05-.23-.02-.06-.07-.12-.1-.18.48-.17.74-.43.8-.78l.35-1.97c.01-.08 0-.16-.01-.24zm-10.99-6.55c4.4-1.18 7-1.18 7.44-.99-.33.48-2.58 1.76-6.93 2.92-1.82.49-3.32.77-4.5.92-.02 0-.05 0-.07 0-1.51.19-2.49.15-2.84.02.43-.51 2.67-1.75 6.89-2.88zm-6.71 3.95c.47.06 1.07.06 1.81 0 1.56-.12 3.58-.49 5.67-1.05 1.05-.28 5.31-1.48 7.01-2.86l.23.82c-.15.42-2.43 1.78-6.98 3-4.56 1.22-7.2 1.18-7.5.97l-.24-.89zm1.61 2.03v-.05c.53 0 1.11-.06 1.69-.13.04.01.07.03.11.04 1.47.55 3.45 1.06 5.58 1.44 1.07.19 5.44.9 7.56.38l-.14.84c-.32.32-2.95.58-7.6-.23-4.64-.82-7.03-1.97-7.21-2.29zm6.62 6.97c-4.72 0-7.26-.72-7.5-1v-.94c2 .88 6.41.94 7.5.94s5.51-.06 7.51-.94v.85c-.25.37-2.79 1.09-7.51 1.09zm7.45-3.03c-.46.38-2.96 1.03-7.45 1.03s-6.85-.62-7.4-1c.5-.35 2.65-.89 6.35-.98.48.1.97.2 1.47.29 2.05.36 4.01.56 5.55.56h.19c.36 0 .68-.02.97-.05.15.06.26.11.32.15zm-6.51-3.62c-1.49-.26-2.73-.56-3.76-.85 1.16-.23 2.15-.49 2.59-.6.57-.15 1.12-.31 1.66-.48 4.39.79 6.71 1.86 7.03 2.22-.51.3-3.08.5-7.51-.27z"></path></svg>