<svg xmlns="http://www.w3.org/2000/svg" width="73.719" height="52.478" viewBox="0 0 73.719 52.478">
  <defs>
    <style>
      .cls-1 {
        fill: #191d4c;
      }
    </style>
  </defs>
  <g id="dt" transform="translate(-0.191 -0.023)">
    <path id="Shape" class="cls-1" d="M44.22,1.92A25.52,25.52,0,0,0,35,.66H33.21a.2.2,0,0,0,0-.09c.06-.06,0-.11-.11-.19s-.22,0-.22-.25-.23,0-.29.11,0,.18-.31.25h-.09s.11,0,0-.09,0-.07-.15,0,0,.09-.07.09S31.88.4,31.84.4s-.12-.1-.22.11-.09.1-.07,0a.91.91,0,0,0,0-.33c0-.13-.07-.09-.11-.06s0,.11-.13.19-.09-.06,0,.14-.08.08-.15.11-.09,0-.13.07,0-.07-.12.08-.08,0-.17.11,0,.23-.16.25S30.46.91,30.5.79a.121.121,0,0,0-.1-.17c-.04,0,0,.15-.14.2s0-.11-.06-.16-.12-.06-.12.07a1.55,1.55,0,0,1,0,.38c0,.22-.07.06-.39-.07s-.21,0-.34,0a.18.18,0,0,1-.15-.2c0-.07.13-.13.17-.2s-.08-.18-.15-.15S29.05.29,29,.27s-.16.13-.18.19,0,0-.05.09-.1,0-.08.11a.18.18,0,0,1,0,.16s.27-.13.2,0a.186.186,0,0,1-.26.11c-.11-.04-.18-.07-.22,0s0,.16-.05.2-.2.07-.26,0S28.12,1,28,1s-.2,0-.12-.16.25-.2.09-.24-.13-.09-.13-.11-.13,0-.2,0,0-.14-.17-.07-.2.07-.14.16.05.17-.09.21-.11.12,0,.16.19.05.11.09a.23.23,0,0,1-.23.07C27,1.1,27,.88,26.84.93s-.13.11-.16.06,0-.11-.15-.17-.07,0-.18,0-.06.24-.19.29,0,.13-.12.11,0-.11-.08-.15S25.91.88,25.78,1s0,.3-.13.24,0,.17-.09.19,0-.33-.18-.11-.18.12-.13.2,0,.16-.11.16-.16-.38-.31-.36-.2.09-.2-.06,0,0-.11,0-.05-.14-.2-.14h-.26c-.11,0-.22-.08-.14,0a2,2,0,0,1,.11.2c0,.13.07.08,0,.13s0,.15,0,.2,0-.09-.19,0-.16.08-.16.15,0,.13.11.11.05,0,.05.07-.05.13.06.09a.16.16,0,0,0,.09,0L24,2V1.95c0,.02,0,0,.07,0h.08v.06c0,.06.12.13,0,.14a1.32,1.32,0,0,1-.21,0c-.21,0-.2,0-.22.09s.06.13,0,.15a.125.125,0,0,1-.09,0c-.02,0,0,.07.09.07s0-.07.14,0,0,0,0,.06a.258.258,0,0,1-.07.2c-.07.08-.24-.08-.27.09s-.44.22-.33.35.12-.13.22-.11,0,.12,0,.22.09,0,.23-.06.2.07.24.22-.15.15-.31.13-.05-.15-.13-.09-.07.23-.18.31-.2.12-.22.25.16.15.24,0,.2,0,.2,0l-.09.29.4.08.27.16.08.15-.46-.08a1.69,1.69,0,0,0-.42.13h-.27c-.03,0-.15.15-.21.2a.37.37,0,0,1-.16.09l.15.06v.13h.22l-.09.15a.35.35,0,0,1,.05.2c0,.09.11.22.13.29s-.13,0-.2,0a.528.528,0,0,1-.29-.16c-.05-.07,0-.26-.11-.28s-.15-.23-.11-.34.29-.46.23-.42a.764.764,0,0,1-.25.05s-.06-.24-.13-.27-.13.14-.15.2-.11-.2-.16-.15a.61.61,0,0,0,0,.41,1,1,0,0,1,.11.4c0,.09-.09.18-.16.14s-.08-.34-.08-.33a2.18,2.18,0,0,1-.12.22h-.24l.11.22S21,5.7,21,5.76s.35,0,.31.09-.12.14-.07.2,0,.18-.09.22a.284.284,0,0,0-.13.14l-.2.06.11.2-.3.33s.18,0,.24.09-.13.25-.13.31.22-.09.25-.06,0,.13,0,.2.11,0,.18.06-.2.16-.16.22.14,0,.13.11.11,0,.18.07-.07.18-.17.26,0,.23-.07.27-.16,0-.27.06-.08.16-.11.23-.15,0-.15.11.18,0,.24,0,.07.18,0,.24a1.54,1.54,0,0,0-.26.18c-.05.07,0,.18,0,.22s-.14.15-.11.2a.27.27,0,0,0,.26,0c.07-.07.26-.07.33-.09s.07.13,0,.22-.06.16,0,.18.25-.05.27-.15.13-.32.17-.32.12.07.09.12-.11.13,0,.17-.05.13-.11.18.17.11.17.18-.13.08-.19.15-.11.2-.2.16-.16-.16-.24-.16-.14-.29-.2-.26,0,.33,0,.41-.15-.08-.22-.1-.17-.25-.19-.2a1.88,1.88,0,0,0-.09.3l-.14.05L20,10.8l.09.09.26-.09a.07.07,0,0,0,0,.09.238.238,0,0,1-.06.16c-.06.05.08.06.08.11v.13c0,.02.18-.09.2-.11a.69.69,0,0,1,.2-.07l.13-.06q0,.075,0,.15l-.07.15v.07c0,.02-.12,0-.14.07s.07.06.05.08-.11,0-.09.11.09,0,.13,0a.28.28,0,0,0,.16,0,.19.19,0,0,0,.08-.15.248.248,0,0,1,.09-.07c.04-.01.07,0,.11-.08l.11-.2.05.09a.79.79,0,0,0,0,.13.12.12,0,0,1,0,.13.19.19,0,0,0,.05.11c.05.06-.05,0-.07.07a.191.191,0,0,0,0,.11c0,.03-.07.07,0,.09a.16.16,0,0,0,.13-.05l.17-.18v.14c0,.06.05.07.09.09s0,.19,0,.19.06-.19.08-.17.09,0,.14,0h.08a.19.19,0,0,1-.05.17.38.38,0,0,0-.08.18c0,.05,0,.13-.05.13h-.18c-.06,0-.11-.07-.15-.16v-.11h-.11l-.07-.09v.11h-.05l-.06.06-.13-.06-.05-.09H21l-.08.14a.087.087,0,0,0-.13,0c-.06.07-.1,0-.16,0s-.13,0-.07.07,0,.11,0,.17a.14.14,0,0,1-.11.13.352.352,0,0,1-.05-.22l-.06-.06v-.05h-.16v-.07l-.28-.13v-.21l.07-.06-.09-.14v-.08l.07-.11-.11-.05a.78.78,0,0,0-.22,0c-.05,0-.14-.08-.11-.11s0-.15-.05-.2S19.4,11,19.39,11s-.06,0-.06.09-.13.13-.13.19a.13.13,0,0,0,0,.1.45.45,0,0,1,.09.11h-.11l-.2.09.09.06.11.11h.2v.06l-.11.14-.13.11a.24.24,0,0,0-.16.06.18.18,0,0,0,0,.2c0,.05.05.15,0,.16a.36.36,0,0,1-.17-.12c0-.06-.15-.17-.18-.17a.46.46,0,0,1-.22-.11s-.13-.14-.15-.11,0,.08,0,.11v.37h-.13l-.11-.22s-.07,0-.07.09-.08.06-.06.13a.208.208,0,0,1-.05.2.335.335,0,0,0-.11.2c0,.07-.06.13-.13.06a.15.15,0,0,1,0-.17.28.28,0,0,0,0-.11c-.07-.09,0-.13,0-.2s0-.07-.1,0-.07.15-.14.09l-.13-.07c-.07,0-.09,0-.13-.16s0-.17,0-.26-.06-.13-.1,0,0,.15,0,.24-.17.23-.17.23-.07.08-.05.15.13.09.07.15-.13.11-.14.18-.11.13-.08.18a.12.12,0,0,0,.13.06,1,1,0,0,0-.09.16.2.2,0,0,0,0,.15s.27-.13.22,0a1.1,1.1,0,0,1-.19.24s-.16.12-.09.12a.43.43,0,0,1,.17,0s.16.07.16,0,.09-.2.15-.18.07,0,.05.11a1.41,1.41,0,0,0,0,.22.18.18,0,0,1,.15,0c.05.05.09.05.11,0s0,0,.14-.11.11-.15.09-.2-.09-.17.06-.08.13.08.2.06.16,0,.07.05-.13.06-.14.15a1.074,1.074,0,0,0,0,.18c0,.07-.09.09,0,.13s.09.13.2.11.24-.07.17,0,0,.27-.15.29-.18,0-.26-.11,0,.18-.14.13,0-.17-.19-.19a1.012,1.012,0,0,0-.25,0c-.13,0-.24.11-.07.11s.18.08.09.11-.37.09-.28.17.19-.11.26,0,.07.15,0,.22,0,.07-.07.09-.2.08-.08.09a1.6,1.6,0,0,0,.22,0,.58.58,0,0,0,.2.05c.1,0,.17.05.11.15s-.07.09,0,.18,0,.11,0,.16-.09.19,0,.15h0l-.06.08h0s-.2.06-.2.11.16.17.16.17h-.09l.06.13h.14v.15a1.11,1.11,0,0,0,.29-.09l.08.05v.09s-.13,0-.17.06a.24.24,0,0,1-.09.16c-.07.06,0,.22,0,.22l-.11.11v.13l-.12.09v.24h.11l.07-.09.07-.12.06.07a1,1,0,0,1,.18-.18.66.66,0,0,1,.22-.06.524.524,0,0,0-.07.15c-.01.06-.11.09-.11.09v.16h-.16l.1.13v.13l-.06.09.09.07.24-.07c.08,0,0,.23-.05.34s0,.15.11.11.11,0,.14.09.06.19.13.15.06-.13.15-.13,0,0,.09-.12.05,0,.13,0,.05-.06.12-.17.06,0,.15,0h.2c.14,0,0-.07,0-.16s.18,0,.12-.13-.1-.06-.29-.07,0-.08.08-.1.09-.05.21-.12.15.07.32.07,0-.07.21-.26.08,0,.21-.12,0,0,0,.07v.27c0,.05,0,0-.06.17a1,1,0,0,1,0,.23c-.06.15-.15.37-.11.32a.26.26,0,0,1,.23,0,.59.59,0,0,1,.26,0c.05.06-.07.15-.2.17s0,0-.07-.06,0,0-.08.15-.05,0-.11,0h-.12c-.05,0,0,.07,0,.24s0,.12-.07.23-.13,0-.18,0H19.6c-.05,0,0-.07-.15-.07s0,.07.06.22,0,.12,0,.32-.15.3-.15.35-.11.11-.07.22,0,0,.25,0,.08,0,.11-.09,0-.11.13-.14.06,0,.09.14,0,.06,0,.18-.21.17-.21.17a.52.52,0,0,0,0,.13c0,.07,0,.12,0,.2s.07,0,.2-.06,0,0,.09.17,0,.11,0,.2-.18.16-.12.16h.16c.13,0,.07,0,.07-.09s0-.07.09-.11,0,0,.15,0,.06.09.11.11-.07.27-.07.27a.42.42,0,0,0,.2-.11c.09-.09,0-.07,0-.13s.09,0,.13-.07,0-.07.07-.11.09,0,.22,0,.05-.08.14-.11,0,0,.06,0,.05,0,.09-.13.11,0,.24,0,0,0,.05-.09,0,0,0-.11.05,0,.11-.07,0-.08-.06-.19.06-.14.07-.18.13,0,.15.07,0,.08,0,.15a.39.39,0,0,0,0,.18c0,.15,0-.07.11-.11s.11,0,.16,0,.17-.08.2,0-.05.17-.13.2,0,.09,0,.17.11.09.09.2-.09.27,0,.25a1,1,0,0,1,.25-.12h.07c.07,0,.08.07.15.07s0,0,.13.15,0,.12,0,.16.07,0,.15.13.1,0,.14-.13-.07-.09,0-.13a.55.55,0,0,1,.35,0c.13,0,0,0,0,.07s0,.09.11.09a.36.36,0,0,1,.15,0h.07a.16.16,0,0,0,.13,0h.47c.11,0,.06,0,.09-.11s0,0,.08,0,.07,0,.11-.09-.13,0-.17-.06,0,0,.15-.14,0-.06,0-.17.06,0,.18-.05.08,0,.06.11,0,.07,0,.18v.17s.11-.17.15-.24.05-.09.15-.09.09-.08.11-.11.12,0,.11.09-.26.36-.22.44,0-.06.09-.09.11,0,.14-.11,0,0,.17,0,.07.09.07.09h.07a.75.75,0,0,1,.15,0c.07,0,.09-.05.15-.09s.05,0,.09,0,0-.11.11-.2.11.05.13.11.05,0,.05.09-.07.07-.15.12a2.32,2.32,0,0,0-.18.21c-.09.12,0,0-.05.18s-.09.14-.17.2,0,.13.09.05h.11c.08-.06,0-.06.09-.08s0,0,.11,0a.11.11,0,0,0,.08-.11.09.09,0,0,1,.12,0c.08,0-.05.11-.09.18s0,.09.09.06,0,0,.06.11,0,0,.15,0,0-.11,0-.21v-.11a.17.17,0,0,1,0-.16c.07-.09.06-.13,0-.26s.06,0,.15-.07.05,0,.11.09,0,.06,0,.19,0,0,.22-.06,0,0,.06.15,0,0,.2,0,0,0,0,.2.08,0,.15-.06,0,0,.07,0h.13c.07,0,0-.11-.05-.31s0,0,.14-.16,0-.06.06-.06V22c0,4.38-.7,4.87-3.13,5.2l-.95.11a.85.85,0,0,0,.08,1.06c1.95-.09,3.8-.11,5.53-.11,1.46,0,4.13.33,6.82.33a20.1,20.1,0,0,0,9.33-2,13.68,13.68,0,0,0,7.33-12.41A12.44,12.44,0,0,0,44.22,1.92Zm-22.7,5a.923.923,0,0,0,.08-.09c.02-.03.02.17-.08.06Zm.31,1.42a.087.087,0,0,1,.08.06c.02.06-.13-.1-.08-.09Zm-3.63,8h0s.02-.08,0-.06Zm1-2.59s.11,0,0,.05.02-.1.04-.11Zm-.2-.41v.09h-.08S19.06,13.14,19,13.34ZM18.86,13s.09.06.05.08S18.84,13,18.86,13Zm-.22,2.25s.05.08,0,.06a.062.062,0,0,1,0-.11Zm-.22-2c.07,0-.08.09-.06,0s.04-.04.06-.04Zm0,3.62c-.2,0,0-.15.09-.15.25.05.09.11-.09.11Zm.36-1.21c-.34.28-.33-.07,0-.14.31.12.56-.33.56-.11s-.34.05-.56.21Zm1.15-2c-.25,0,.08-.24.06,0,.01-.01.01-.01-.06-.03Zm.1-.57L20,13v.06Zm.11,1.28a.5.5,0,0,1,.12-.29c.11.1-.03.21-.12.26Zm.63,4.72h0s-.03-.09,0-.03Zm-.31.91c-.11,0,0-.11.06-.09s-.04.09-.06.09Zm.24-.46c-.11,0-.09-.09-.22,0,0-.05.13-.14.15-.18s.09,0,.18,0c-.07.06-.14.08-.11.15Zm.5.64h0s.01-.03,0-.03Zm.07-3.74v-.09c0-.01.05.06,0,.06Zm.11-.59a.13.13,0,0,1,.07,0s-.11-.01-.07-.03Zm3.74-5.59c-.18.33-.18,0-.25-.16s.13.13.25.13Zm-.27-6.78s.15,0,.13.09-.19-.08-.13-.12Zm-.2.08s-.06.07-.07,0,.07-.09.07-.03Zm-.26.09v.09c0,.09-.03-.09,0-.12ZM24,4.09c-.17,0,0-.29.25,0C24.25,4.18,24.12,4.06,24,4.09Zm.22.93h0c.06,0,.03-.02.03-.02ZM23.8,6.07h0s.03-.02.03,0Zm-.39,1.79a.726.726,0,0,1-.05-.09c0-.01.08.07.08.09ZM23.17,7s.11,0,.07.06S23.15,7,23.17,7Zm0,1.26h-.21c-.1-.35.48-.09.24-.04Zm-.43.31s0,.13.11.13.14.06.09.15a1.19,1.19,0,0,1-.42-.11c-.05-.13.17-.19.25-.21Zm-.42.72c.2,0,0-.17.14-.15.48.15-.07.75-.18.18Zm.09,3.43c.11,0,.07-.11.13-.16.14.42.27.05.34-.17.11.11-.22.84.19.31a.472.472,0,0,1-.17.55c0-.11-.16-.16-.2-.24-.24,0-.31.06-.44-.18.1-.11.03-.2.18-.15Zm.6,4.15c-.09,0,0-.06,0-.06s.07.02-.01.02Zm-.16,0a1,1,0,0,1-.46.11c-.07,0,0-.07,0-.07.25-.26.29-.26.49-.1Zm-.41-3.18c.06-.15.06,0,.17-.13v.11c0-.04-.1-.02-.14-.04Zm.35.46h.09c-.02,0-.1-.04-.06-.06Zm0-.84h.07v-.06Zm-.4,6.12a.51.51,0,0,1-.24,0,.35.35,0,0,1,.31-.06Zm-.68.36V19.7c0-.02.12.03.07.03ZM21.62,17v-.13c0-.04.07.17.14,0,0-.28.2.11.33,0C22.51,16.92,21.71,17,21.62,17Zm.53,3.4c-.11,0-.06-.09,0-.15s.22.15.38.06-.33.12-.38.12Zm.43-1.94c0-.09-.22,0-.2-.18s.24.07.31.13-.09.12-.11.08Zm.11-.36c0-.08.09,0,.08.05s-.09.01-.08-.02Zm.24,2.22c-.25,0-.18,0,0-.16s.11,0,.22-.09,0,.13.11.13.19-.08.26-.06c-.21.14-.42.12-.59.21Zm.53-14.17c0-.22.38.16.37-.11.16.16.34.36.36,0,.11,0,.11-.18.17-.29s.14,0,.11-.13c-.26-.33.07-.13.16-.19s.11.13.18.13,0,.06,0,.09c-.21.13,0,.28-.32.31.05.33-.24.26-.11.41s-.19.16,0,.2c.07.25-.22-.11-.28-.11s0,.09-.22,0a.09.09,0,0,0-.14,0c-.06,0-.13-.13,0-.2s-.22-.05-.28-.08Zm.68,7.09c0-.08.12.05.05.07s-.07.01-.05-.04Zm-.08.43a.18.18,0,0,1-.22-.22c0-.09.46.29.22.25Zm.13-3c0-.17-.2-.21-.25-.33s-.1-.24.07,0c.31,0-.13-.46-.26-.49s0-.19.09,0,.28,0,.39,0,.07.13.11.19a.252.252,0,0,1-.11.29c-.11.06.22.18.22.31s0,.13-.09.09-.15.07-.17,0Zm-.24-3c-.25.05-.14-.13-.16-.28s.2,0,.26,0c-.15.19.03.36-.05.38Zm.46-.11s.09.07,0,.07-.11.06,0,.03Zm.09,9.28c.18,0,.4.11.06.09s-.35.07-.06.01Zm0-2.72v-.1c0-.04.09.2.02.2Zm-.84-6.58c0,.09-.15,0-.11-.06a.2.2,0,0,1,.13.16Zm.07,4.53c-.11,0-.09,0-.18-.07s0-.08,0-.13c-.09-.29.22.16.2-.11-.07-.07,0-.09.06-.13.24.06,0,.11.11.22s.11-.11.18-.11c.24.2-.38.13-.2.35,0,0-.06,0-.07.05s-.04.05-.08.03ZM24,19.59a.653.653,0,0,0,.09-.13C24.3,19.62,24.21,19.82,24,19.59Zm1.12-2.25c-.35-.13-.3.27-.64.27-.08,0-.08-.07-.11-.07s-.08,0-.08-.05-.22-.08-.31-.17-.24-.18-.09-.18a6.21,6.21,0,0,0,.75.07c.26-.02.72-.21.47.13Zm1-12.19A1.458,1.458,0,0,1,26,5c.61-.11-.05.55.31.45.26.19-.22.24-.34-.23.03.04.16.02.12-.07Zm.06,3.2a.205.205,0,0,0-.13-.07h0s0-.11.07-.07.09,0,.11,0-.03.14-.08.14ZM26,8.28s-.05.07-.07,0S26,8.28,26,8.28Zm-.16-3.49c.05,0,.07.11.11.14s-.17-.09-.13-.14ZM25.89,12c0-.16.11,0,.22-.15s.22.26.11.28C26.16,11.86,25.91,12.24,25.89,12Zm.66,3.24h-.24c-.09-.2-.11-.15-.25-.06,0-.11.09-.31,0-.4.09-.09-.06-.09.05-.33a.169.169,0,0,0,.17.06c.1-.03-.08.09,0,.16s-.15.11-.06.2.13-.11.21-.12c.25.16-.31.2.2.38.03.02-.01.15-.08.15Zm.8-3.35h0s0,0,0,.04Zm-.64-6.81c0-.11.11,0,.17.07-.06.22-.17.11-.17-.03ZM26.88,17c0-.06,0-.09-.08-.09h.11C26.89,16.91,26.66,17.21,26.88,17Zm.09-.22h.07c-.02,0-.04.05-.04.03Zm0-4.6s0-.08.06-.1,0-.07.14-.09c.2-.18.06.17.37.15-.08.31-.35.13-.33.35-.07,0-.07-.22-.09-.28s-.12-.08-.12,0Zm.46,4.69h-.06c-.06,0,.04-.02.04.03Zm.36,1c-.05-.05-.2-.23-.23-.07,0,.44-.42-.14-.3-.2s-.09-.27-.12-.37c.23-.27.1.13.21.24a.08.08,0,0,0,.15,0c.24-.11.13.31.35.4.03.05-.04.07-.08.05Zm.55-11.34h0c0,.06,0,.05-.02.05Zm1.81.4a.18.18,0,0,1-.11,0c.04-.06.2-.06.09.07Zm-.2,12.08-.11.13c0-.01.03-.14.09-.08Zm-.18,1.09h.05c.05,0-.07.09-.07.05ZM29.2,7h0C29.07,7,29.14,7.05,29.2,7Zm-.55-3.44a.21.21,0,0,1,.07-.18c.07-.06,0-.22.15-.26s0-.18.13-.12c.18.27.09.07,0,.29s.08.57-.22.46c-.07-.06-.21,0-.21-.1s.06-.05.08-.09Zm.18,3.15c.11-.31.17.09,0,0s-.03.01,0,0Zm0-.42h.07s-.12.03-.1,0Zm-.19,2s0-.1.06,0-.05.02-.09.01Zm0,.47h-.15c.13-.06.08-.24.26-.21s.49-.27.55-.12c-.12.25-.3-.01-.65.34Zm2,13.76c0,2.34-.14,3.51-.63,4.11a.45.45,0,0,1-.13-.15c-.72-1-.57-2.28-.57-4.49V21.4c0-.05,0,0,.13,0s0,.11.16.24,0,0,.13-.13.06,0,.13,0,0-.08-.13-.2,0,0,.13,0,0,0,.07-.08-.07-.07.06-.12.05.09.07.2.07,0,.18,0,0,0,0-.08.16.08.33,0h.05Zm.21-3.78c-.08,0-.26,0-.24-.08s.32.09.2.09Zm-.19-10.1c0-.27.18-.22.29-.07C30.88,8.59,30.68,8.81,30.66,8.64Zm.73-7.16s.11-.13.15-.09-.13.2-.15.09Zm1.52,1.44a.09.09,0,0,1-.06.06s.06-.13.06-.06Zm0,8.13c0,.08.14,0,.21,0s.1.27,0,.42.15,0,.19.09c0,.33-.42-.11-.41-.25.2.22.22-.08.08-.19s-.22-.12-.22-.22.11.1.17.15Zm.8-3.25c0,.06.22.08.15.13s-.28.11-.24,0,.04-.2.11-.13Zm1-.31c.1,0,.33.09.35.18a.3.3,0,0,1-.27.33c-.21,0-.11-.14-.15-.23s.19-.04.09-.28ZM36,5c-.06.09-.17,0-.22.16s0,0-.07,0,0,.06-.06,0,.11-.09,0-.17-.16,0-.26,0,.13-.15.2-.2.28-.33.26,0S36.1,4.75,36,5Zm.18,6c.06.08-.07.09-.13.09s-.09,0,0-.09,0-.09-.06-.09,0-.24.08-.24.12,0,.12.15-.03.07-.05.18Zm.06,6.36c-.13,0-.13,0-.15.17s0,.11,0,.16-.12,0-.16,0-.13-.13-.31-.09-.07-.13,0-.17.29.09.31-.09-.07-.09.06-.2.11.07.16,0S36,17,36.2,17s0,.06,0,.11a.359.359,0,0,0,0,.21Zm-.15,2.87c0-.05,0-.13-.13-.09.04-.06.22-.02.09.05Zm-.62-6.05c-.09,0,.07-.09.07-.05s-.09.01-.11.01Zm.25.48a.075.075,0,0,1,0-.15c.12-.02.11.13-.04.11Zm.15.42c0,.05-.11,0-.11,0l.07-.08Zm-.44-8v.16c0,.05,0,.06-.11.06s-.42-.1-.4-.26c.25-.24.22.01.47-.04ZM34.57,5.6c.06-.08.13-.06.15,0s-.15-.05-.19-.06Zm.08,5c0,.05,0,.16.11.13s.23.14.18.16-.26.09-.24,0-.16-.17-.27-.13,0-.11,0-.08.05-.19.18-.1Zm.23,5.52h-.05s.03-.12.01-.02Zm0-2.83c.05,0,.05,0,0,.05s-.05-.07-.05-.07Zm.05,6.66s0,.17-.05.17-.07-.2,0-.19Zm-.33-8c-.07,0,0,.18-.07.16-.22-.07-.86-.2-.26-.33a.08.08,0,0,1,.08,0c-.05.22.2.06.2.22Zm-.31.67c-.38.53-.27.35-.53,0,.28-.12.09-.18,0-.32h0a4.17,4.17,0,0,1,.48.34Zm0,1.32s-.14,0-.07-.09.02.07,0,.15Zm-.49-2.67h.13c-.02,0-.24.17-.2.02Zm-.11,8.61c-.06,0-.09-.09-.13-.15s.21.17.06.17ZM33.44,7.75c-.08.07-.17,0-.09-.08a.09.09,0,0,0,.11,0s0,.11.16,0C33.6,7.78,33.49,7.69,33.44,7.75Zm-.24,7.16s-.13-.09-.06-.11.21.04.06.11Zm-.49-12.1a.035.035,0,1,1,.07,0v.13c0,.02-.11,0-.11-.09s.02,0,.04-.04Zm0,13.23c0,.15.13.11.21.06s0,.36.25.36c0,.22-.13.05-.24.16-.16.3-.09.08-.31.17a1.24,1.24,0,0,1-.06-.29c.15-.26-.26-.07.16-.5Zm-.32-4.62c.07,0,.09,0,0,.05s-.07-.05.01-.05Zm4.36,15.91c-2.21,0-3.07-.65-3.82-1.71a6.37,6.37,0,0,1-.82-3.69c.09-.06,0,.09,0,.16s.07,0,.2-.09,0,.09-.05.22,0,.14.07.05.07,0,.13-.07,0-.07,0-.13.06,0,.11-.05,0,0,0-.11,0,0,.09-.15-.09-.22-.11-.31.13,0,.19,0,0,0,.13.05c.6-.6.69.06.82-.47,0-.11.27.11.34.09s.22,0,.19-.09a1.4,1.4,0,0,0-.17-.24h0a.85.85,0,0,1,.25.09c.11,0-.09.08-.09.08a.21.21,0,0,0,.09.09l.17.09a.09.09,0,0,0,0,.09c0,.06.11.06.16.09a.39.39,0,0,0,.21,0c.07,0,0,.09.09.13a.17.17,0,0,1,0,.14c.17.06.22,0,.33,0s0,0,.11.07.28,0,.2-.12-.07,0-.16-.11-.2-.06-.18-.09,0,0,0-.1,0,0,.14,0,.07,0,0-.07-.05-.11-.15-.16-.07,0-.09-.08-.07,0-.11,0h.06c.14,0,.09,0,.13-.06s.07-.11.16,0,0,.17.13.07,0-.11.11-.07,0,0,.16,0A.269.269,0,0,1,36,21s.09,0,.07.13.08.11.15.11h.26c.04,0-.09-.06-.15-.28s0,0,.11-.11.05,0,.11.13.05.2.07,0,.08,0,.17-.08,0-.16,0-.14a.52.52,0,0,0,.24,0c.13,0,.11,0,.18.09s0,.07.08.13l.09.07c0,.05.12,0,.22,0h.11l.11.2c0,.11,0,.06.05,0s0-.07.11-.15.11,0,.15.2,0,.08.2.13.14,0,.25,0,.09.09.19.11,0-.06,0-.13a1.35,1.35,0,0,1,0-.22c0-.11-.22-.09-.33-.05s-.19,0-.22-.13,0-.06.09,0,0,0,.14,0,0-.08,0-.24.06,0,.15.11,0,0,.11.09a1.741,1.741,0,0,1,.22.18c.11.11.11.31.11.24s.09-.11.2-.17,0,0,0-.05,0-.07-.15-.16,0-.08.06-.13.09,0,.18,0,.07,0,.2-.09.08-.07.19-.07.09,0,.07-.15-.07-.09,0-.13.07,0,.24.11.11,0,.13.06.05,0,.29,0,.14,0,.14.06c.06-.07,0,0-.09-.11s0-.09.13-.2.09-.05.13-.24,0,0,.11,0,0,0,0-.07,0-.07.11-.13.07,0,.11.08.13.14.16.07.08.09.13.13a.1.1,0,0,0,.16-.11c0-.09.08-.15,0-.2a.2.2,0,0,1,0-.3c.11-.11-.13-.11-.18-.18s0-.16,0-.24,0,0,.11,0,0,0,0-.12-.07-.1-.13-.13,0-.15.13-.29.13,0,.07.18,0,.2.07.2.11-.15.24-.15,0-.09,0-.16,0-.13.13-.11.06.09.13.16.07,0,.07-.18,0-.07.08-.05.07.05.09,0,0-.07,0-.23.07.05.18.09,0-.11,0-.17-.07-.07,0-.16,0-.09,0-.17,0-.12.11-.14a.76.76,0,0,0,.2-.06c.09,0,.22.13.35.11s0-.07-.08-.11-.09-.11-.18-.18-.11-.15,0-.22.17.09.26,0-.18-.15-.27-.18-.08-.11.09-.11,0,0-.08-.11-.11,0-.25,0-.08.11-.19.18-.07-.29-.14-.11-.13.11-.26.11,0-.13-.14-.28.07-.07.16-.05.11,0,.2-.11,0-.07,0-.15v-.16c0-.09-.06-.09-.13-.15s0-.09.09-.07.06,0,.18-.05.08,0,.06.07,0,.11.09.2.11,0,.15.09.05.07.12,0a.17.17,0,0,1,.15,0,.7.7,0,0,0,0-.22v-.12a.356.356,0,0,1,.15.18c.02.09.17,0,.17,0a.3.3,0,0,1,.16,0c.09,0,0-.09-.09-.11a1,1,0,0,1-.2-.26c-.06-.11.22,0,.22,0a.24.24,0,0,0,0-.14.51.51,0,0,0-.08-.17.12.12,0,0,0,.13,0,.247.247,0,0,0-.07-.2c-.07-.09-.09-.11-.15-.19s.06-.09.06-.14a.21.21,0,0,0-.06-.15l-.16-.24c-.06-.07,0-.09,0-.23s-.06-.1-.09,0,0,.12,0,.25,0,.17-.13.17-.05,0-.14.07-.06,0-.15-.09,0-.07-.09,0l-.07.24c-.06.14,0,0,0,.09v.16c0,.07-.07,0-.13-.05s-.05,0-.15,0,0,.09-.09.27-.07,0-.12-.15a1.679,1.679,0,0,0-.08-.25c-.08-.2,0-.13-.13-.11s0,.11-.09.25-.11-.07-.14-.14,0-.08,0-.13,0-.07-.06-.2-.05-.13,0-.2a.46.46,0,0,0,0-.2c0-.11-.2-.11-.31-.2s0,0,.13-.06,0-.09-.07-.16a2.37,2.37,0,0,1-.06-.41c0-.12-.07-.05-.13-.05s-.14-.13-.22-.22a.394.394,0,0,1-.09-.13.94.94,0,0,0-.05-.29c-.05-.13,0-.18,0-.18a.17.17,0,0,1,.09,0,.475.475,0,0,0,.11.28c.11.13,0,0,.14.09s0,0,.09.13.1.07.11,0,0,0,0-.07,0-.05.09-.13,0-.05-.06-.22,0-.07-.09-.18,0-.09.15-.09h0v.07h0v.13c0,.14,0,.05.11,0s.06,0,.08,0a.08.08,0,0,0,.14,0v-.22c0-.16-.11-.07-.11-.13s.09-.09.13-.14,0,0,.15-.06a.78.78,0,0,1,.22,0c.14,0,0-.08,0-.15s-.06-.09-.15-.22-.13,0-.24-.07,0-.19-.09-.09-.09,0-.16-.13-.2,0-.28-.13,0-.18.06-.18.11-.06.16-.19.11-.11.08-.2a.71.71,0,0,0-.22-.33c-.11-.07-.06-.11,0-.27s0-.09-.08-.09-.09.18-.18.07,0-.11-.05-.14A.26.26,0,0,1,40.6,10c0-.12-.07-.09-.16-.12s-.13,0-.21,0,0-.06,0-.19-.11-.14-.17-.2a.26.26,0,0,1-.07-.2c0-.11,0,0,.15,0s.2.06.14-.09-.07-.17.1-.18.07-.06.05-.22-.05,0-.15-.08,0-.22-.12-.16-.08.07-.17,0,0,.07-.13.22-.09.09-.2,0-.11,0-.2,0a.18.18,0,0,1-.18-.11c0-.11.11-.11.13-.18s0-.11-.13-.18-.15-.13-.07-.28.12.15.12.15A.19.19,0,0,1,39.39,8c.11,0,.06,0,.06-.13V7.78a.2.2,0,0,0,.06-.13c0-.07,0,0,.15,0s.09.06.14,0,.06,0,0-.14,0,0,0-.08V7.25c0-.11-.09-.11-.13-.14s0-.13,0-.13h.29c.22,0,.13.11.28.11s0,0,0-.15-.07-.16,0-.25.22,0,.18-.07.07-.1,0-.15-.13,0-.15-.15-.15.1-.29,0-.09,0-.13.13a.2.2,0,0,1-.28.13c-.14,0,0-.07.08-.13s0-.09-.15-.14-.29,0-.53-.08,0-.07.13-.07.11-.09.26-.2.32.18.32.18a.14.14,0,0,0,0-.18.3.3,0,0,0-.16-.17c-.09,0-.06-.2,0-.31s-.11-.25-.29-.25,0-.2-.17-.19-.12-.09-.21-.12-.15,0-.35.12-.09,0-.2,0-.09,0-.15.24-.15,0-.16.12-.19.28-.28.24-.34-.15-.4-.27.22.09.35.09.07-.13,0-.28,0,0,0-.09a.84.84,0,0,0,.11-.29c.06-.22-.22-.16-.24-.2s0-.11,0-.18.13-.06.22-.06.07,0,.25-.13.15.06.26.15.11,0,.26,0-.06-.11-.09-.22.16-.19.27-.28a.15.15,0,0,0-.13-.24c-.13,0-.14,0-.14-.1s-.21,0-.08-.19-.07,0-.16-.07-.08-.13-.13-.24-.16.09-.33.11-.11-.16-.11-.35-.14-.07-.16,0-.2,0-.28,0-.11.08-.14.15a.43.43,0,0,0-.11.16c-.08.13,0,0,.22,0s0,.07-.08.16-.23,0-.4,0h-.16c-.07,0-.09,0-.15-.13s0,0-.11.2-.09,0-.25,0a.23.23,0,0,0-.3.18c0,.05.11.07.15.18a.32.32,0,0,0,.13.15c.07.05.09.05.09.12s0,.08.14.21,0,.09,0,.16h.08s0-.07.06-.07h0v.09c0,.03,0,.06.07.08s0,0,0-.08h.09v.08c0,.07-.06.07-.09.07a.11.11,0,0,0-.07,0h0v.08h0s0,.06-.09.06a.15.15,0,0,1,0-.06V4.52a.069.069,0,0,1-.07-.07h0a.425.425,0,0,1-.2.08c-.13.02-.18,0-.24-.15s.08-.15.08-.33-.08-.09-.19-.11-.18-.13-.23-.11a.52.52,0,0,0-.09.26c0,.14-.08.09-.26,0s-.07-.15-.2-.06-.13.06-.13.13v.15c0,.09-.09.09-.22.11s0,0,0,.07.2.11.18.24-.13.05-.33,0-.07-.07-.18-.14-.11-.09-.08-.28.15,0,.21-.12,0-.1-.06-.26,0-.22-.07-.29-.13,0-.17-.15,0-.13-.09,0a.909.909,0,0,1-.18.21.81.81,0,0,1-.35.26c-.14.07-.24-.05-.29-.11s.09,0,.15-.09-.06-.07-.06-.15a.22.22,0,0,1,.09-.18c.08-.07.22,0,.31,0s0-.11-.07-.25a.78.78,0,0,0-.11-.31,1.62,1.62,0,0,1-.09-.26c0-.06.13,0,.22,0s0-.24.14-.33,0-.07-.07-.07h1.76c10.92.11,13.11,7.76,13.11,12.35-.01,7.49-3.62,12.77-11.72,12.77Zm-.2-22.74h.06a.08.08,0,0,0-.11,0c-.08.03.01-.02.06,0ZM37,3.82v0ZM37,15.9a.282.282,0,0,1,.05.11C37.05,16.05,37,15.93,37,15.9Zm.51-8.5c-.07,0,0-.11-.11-.13.11,0,0-.24.13-.2s.09,0,0,.11.18.24.02.22Zm1.08,4.44Zm.12-4.92c.08,0,.15,0,.08.1s-.06.16-.17.05c.17-.07.04-.15.13-.15Zm.37,8.52c-.11,0-.55-.18-.46-.27,0,.09.15.05.2.07s.41.18.3.2Zm-.22-4.39c.06-.05.11.11,0,.1s0-.08.04-.1Zm.4.22c-.09,0-.22.06-.22-.09a.36.36,0,0,1,.11-.22s.24,0,.19.08a.366.366,0,0,0-.04.23Zm-.07,3.58c.09,0,.29.41.05.33v-.11c0-.29-.33.21-.31,0s.24-.07.3-.22Zm.57,4s.07.11.09.15-.13,0-.19,0-.05,0,0-.08.15.08.14-.03Zm0-4.22a.18.18,0,0,1,.11.13s-.13-.05-.11-.09Zm-.07.24h0c0,.06-.04.13,0,.04Zm0-3.6c.05,0,.05,0,.05.09s-.26-.05-.09-.05Zm0,4.15s-.07,0-.07-.06.03.04.01.1Zm0,.29c.13,0-.05.13-.07.2s-.11,0-.17,0-.11-.07,0-.07.11-.08.18-.06-.07-.03,0-.03Zm-.2,4.18c0,.13-.09,0-.07,0s.03-.01.01.04Zm-.24-1.51s-.07,0,0-.06a.16.16,0,0,1-.06.1ZM39,6.27v0Zm0,9.61a.64.64,0,0,1-.33-.37c.08.04.21.26.33.37Zm-.27-4.66h0c0-.07-.03-.11-.03,0Zm-.06-4.3Zm.15,8c.06,0-.11.24-.13.2-.07-.2-.31-.05-.33.08s-.14,0-.18-.06.09-.07,0-.16a3.05,3.05,0,0,0,.61-.11ZM38.39,19c-.07.13-.06,0,0-.06S38.43,18.89,38.39,19Zm-.11-7.48c-.28,0,0-.34.16,0-.03.12-.09-.05-.16-.05Zm-.37,4.3c-.29,0,.06-.11.13-.15s.06,0,.09,0-.13.12-.22.1Zm.17.51s-.08.11-.13.09-.05-.13,0-.11.13-.07.13-.03Zm-.24,3.34c.13,0,.16-.16.29-.12.35,0,.17.27.42.34s.37.09.09.13-.23-.15-.38-.15a3.85,3.85,0,0,1-.68-.1c.04-.15.17-.15.26-.15Zm-.38-3.5v.14c0,.05,0,.07-.06.09s.13.17.16.24c-.07.27-.42-.2-.42-.33.21.11.13-.2-.07-.24.26-.01.19-.07.39.05Zm2.87,2.59c.09.05-.1.2.18.26.07.12-.06,0-.11,0s-.28,0-.24-.14.11.12.17-.17Zm.87-1.06v-.13c0-.04.11.06,0,.08Zm.2.51c0,.06-.12.06-.18.11s0,.11,0,0,0-.43.18-.16Zm-.2-3.07c-.05.08-.11,0-.18.06a3.4,3.4,0,0,1-.31.25c-.06,0-.07-.11-.15-.09s0-.11,0-.16-.09-.24,0-.35.18.09.25,0,.18-.22.29.06.16-.2.1.18Zm-.51,3.42c.46.16.11-.11.42,0,0,0,.06.05,0,.07s-.18.11-.26.14c.15-.22-.45-.19-.16-.26Zm0,.8s.12,0,.14-.07-.23.1-.19.02Zm-.08-3.16h.06a.479.479,0,0,1-.11-.05Zm-.11,3.4v-.07c0-.02-.03.02-.05.02Zm-.14-.2c0-.06,0-.09.07,0s-.14.06-.12-.05Zm1.59-1.72v.08s-.07-.13-.05-.13ZM39.67,6.82s-.11.09-.09,0S39.69,6.76,39.67,6.82Z"/>
    <path id="Shape-2" data-name="Shape" class="cls-1" d="M14.18,33.89a3.87,3.87,0,0,0-4,3.93,3.74,3.74,0,0,0,4,3.78,3.8,3.8,0,0,0,3.87-3.89,3.69,3.69,0,0,0-3.87-3.82Zm.14,7.37c-2.21,0-3-2.14-3-3.8,0-2.43,1.51-3.24,2.67-3.24,2.12,0,2.94,2,2.94,3.82-.01,2.21-1.27,3.22-2.61,3.22Zm11.57-7.2c.09,0,.07.2,0,.27h-.27a.65.65,0,0,0-.55.27,10.35,10.35,0,0,0-.15,2.27v1.28a3.91,3.91,0,0,1-.78,2.65,2.94,2.94,0,0,1-2.14.8,3.13,3.13,0,0,1-2.07-.6,3.12,3.12,0,0,1-.87-2.63V35.74c0-1.17,0-1.35-.66-1.41h-.29c-.08,0-.06-.23,0-.27h2.75c.06,0,.1.22,0,.27h-.27c-.64.06-.66.24-.66,1.41v2.41c0,1.79.55,3,2.25,3s2.23-1.28,2.25-3V36.89a8.52,8.52,0,0,0-.22-2.32c-.08-.13-.28-.2-.57-.22h-.27a.19.19,0,0,1,0-.27h1.28c.44,0,.86.01,1.24-.02Zm4.68,3.42c-.13,0-.22-.06-.22-.17a1.61,1.61,0,0,0,1.15-1.52,1.45,1.45,0,0,0-.84-1.38,4.22,4.22,0,0,0-1.88-.32,16.342,16.342,0,0,0-2.4.1.17.17,0,0,0,0,.27h.35c.49.05.55.25.55,1.09V39.8c0,1.16,0,1.29-.6,1.38h-.2c-.08.07-.06.26,0,.27H29.1c2,0,3-.84,3-2.13a1.85,1.85,0,0,0-1.53-1.84Zm-2.38-2.71c0-.2.06-.25.17-.29a1.48,1.48,0,0,1,.51-.06c.86,0,1.66.41,1.64,1.5s-.6,1.39-1.75,1.43c-.57,0-.59,0-.59-.33Zm1.1,6.38a1.16,1.16,0,0,1-.88-.31,2.38,2.38,0,0,1-.24-1.23V38c0-.24.06-.29.64-.29,1.78,0,2.22,1,2.22,1.9-.03,1.08-.75,1.54-1.74,1.54Zm9.32-1.21a9.67,9.67,0,0,1-.48,1.55H32.89c-.07,0-.09-.2,0-.27h.35c.64,0,.66-.23.66-1.38v-4c0-1.17,0-1.35-.72-1.4h-.27c-.06-.06,0-.26,0-.28h2.81c.07,0,.09.24,0,.28h-.27c-.66,0-.68.22-.68,1.4v3.88c0,.71,0,1,.22,1.2s.33.28,1.22.28,1.19-.06,1.35-.17a2.29,2.29,0,0,0,.74-1.09C38.39,39.81,38.61,39.87,38.61,39.94ZM45,40a8.31,8.31,0,0,1-.49,1.53H39c-.07,0-.09-.2,0-.27h.37c.64,0,.69-.23.69-1.38v-4c0-1.15,0-1.31-.67-1.4H39.2c-.07-.06,0-.26,0-.28h3.42a12.42,12.42,0,0,0,1.5,0c.07.19.12,1,.18,1.48-.06.06-.22.1-.28,0-.16-.53-.25-.91-.84-1.06a5.7,5.7,0,0,0-1.07-.07H41.3c-.33,0-.33,0-.33.44v2.23c0,.31,0,.31.37.31H42a4.87,4.87,0,0,0,.95-.06c.13,0,.2-.11.27-.38l.09-.46h.3v2.19c0,.23-.24.08-.3,0l-.09-.42a.52.52,0,0,0-.34-.43,4.07,4.07,0,0,0-.86-.06h-.64c-.33,0-.37,0-.37.31v1.57c0,.59,0,1,.22,1.15s.37.28,1.35.28A3,3,0,0,0,44,41a2.64,2.64,0,0,0,.8-1.07C44.82,39.83,45,39.87,45,40ZM6.63,33.07a8.37,8.37,0,0,0-2.88-.4c-1.12,0-2.2,0-3.31.11a.2.2,0,0,0,0,.33H.73c.55.08.62.35.62,1.26v5c0,1.39,0,1.53-.8,1.66H.24a.3.3,0,0,0,0,.33H1.88c.55,0,1.3.11,2.14.11A6.32,6.32,0,0,0,7,40.93,4.32,4.32,0,0,0,9.26,37,3.89,3.89,0,0,0,6.63,33.07Zm-2.35,8c-.83,0-1.34-.14-1.61-.55a2.42,2.42,0,0,1-.26-1.42V34.26c0-.59,0-.93.15-1a2.81,2.81,0,0,1,1.3-.18C7.31,33.07,8,35.52,8,37c0,2.43-1.17,4.11-3.72,4.09ZM47,32.8h6.49c0,.53-.09,1.24-.09,1.66,0,.11-.28.09-.33,0a1.579,1.579,0,0,0-.33-1,2.67,2.67,0,0,0-1.53-.33h-.94c-.4,0-.38,0-.38.44v5.84c0,1.39,0,1.59.79,1.67h.42c.07.06,0,.3,0,.33H47.51a.19.19,0,0,1,0-.32h.47c.75-.07.82-.27.82-1.66V33.56c0-.42,0-.42-.4-.42h-.73a2.86,2.86,0,0,0-1.63.31,2.43,2.43,0,0,0-.53.93c-.09.08-.36,0-.34-.09.11-.6.12-1,.2-1.55C45.39,32.76,46.39,32.8,47,32.8Zm19.9,7.12A2.77,2.77,0,0,1,66.12,41a3,3,0,0,1-1.42.18c-1,0-1.22-.14-1.35-.27a2.045,2.045,0,0,1-.22-1.15V38.19c0-.29,0-.31.38-.31h.64a5.05,5.05,0,0,1,.86,0,.49.49,0,0,1,.35.44l.09.42a.23.23,0,0,0,.29,0V37.68c0-.38.06-.86.06-1.13a.23.23,0,0,0-.29,0l-.09.46c-.06.27-.13.34-.26.38a3.56,3.56,0,0,1-1,.06h-.64c-.33,0-.38,0-.38-.32V34.94c0-.42,0-.44.34-.44h.81a5.889,5.889,0,0,1,1.08.07c.56.15.67.53.84,1.06,0,.07.23,0,.27,0a8.705,8.705,0,0,0-.16-1.48,12.83,12.83,0,0,1-1.52,0H61.41c-.07,0-.09.24,0,.28h.19c.65.08.65.24.65,1.41v4c0,1.17,0,1.37-.69,1.41h-.44a1.17,1.17,0,0,1-.77-.19,11.56,11.56,0,0,1-2.23-3c-.05-.07-.11-.2-.05-.27A2.06,2.06,0,0,0,59.44,36a1.71,1.71,0,0,0-.92-1.58,4,4,0,0,0-1.86-.33,16.887,16.887,0,0,0-2.48.1.17.17,0,0,0,0,.27h.36c.46,0,.5.25.5,1.31v4c0,1.16,0,1.29-.68,1.38h-.27c-.06.09,0,.26,0,.27H56.8c.07,0,.09-.21,0-.27h-.24c-.64-.09-.68-.23-.66-1.38V38.39c0-.24,0-.24.53-.24a.79.79,0,0,1,.79.35c.34.49.8,1.26,1.09,1.68.79,1.13,1.32,1.41,2.27,1.41a5.731,5.731,0,0,0,.64-.1h5.46a8.31,8.31,0,0,0,.5-1.49.25.25,0,0,0-.27-.08ZM56.72,37.84a2.25,2.25,0,0,1-.77-.05V34.81c0-.31,0-.35.73-.35a1.64,1.64,0,0,1,1.77,1.72,1.62,1.62,0,0,1-.54,1.37,1.86,1.86,0,0,1-1.19.29ZM73.91,40a11.17,11.17,0,0,1-.49,1.54H67.91c-.06,0-.09-.2,0-.27h.38c.64-.06.7-.24.7-1.39v-4c0-1.15,0-1.32-.68-1.41h-.18V34.2H71.5a12.719,12.719,0,0,0,1.51,0c.06.18.13,1,.19,1.48-.06,0-.22.09-.28,0-.16-.53-.25-.92-.84-1.06a5,5,0,0,0-1.08-.1h-.8c-.33,0-.33,0-.33.43v2.23c0,.31,0,.31.37.31h.64a5.13,5.13,0,0,0,1-.05c.12,0,.2-.11.27-.39l.09-.45a.23.23,0,0,1,.29,0v2.19c0,.07-.22.07-.3,0l-.09-.42a.52.52,0,0,0-.35-.44,4.1,4.1,0,0,0-.85-.05H70.3c-.33,0-.37,0-.37.31v1.57c0,.58,0,1,.22,1.15s.37.27,1.33.27A3.08,3.08,0,0,0,72.85,41a2.53,2.53,0,0,0,.78-1.08.22.22,0,0,1,.28.08Z"/>
    <path id="Shape-3" data-name="Shape" class="cls-1" d="M22.93,47.07a1.79,1.79,0,0,0-1.17.49V45.5H20.48v.23l.31.06v4.73l-.31.06v.23h1.28v-.2a1.59,1.59,0,0,0,.92.28c1.11,0,1.73-.72,1.73-2C24.41,47.8,23.79,47.07,22.93,47.07Zm-.36,3.45a1.28,1.28,0,0,1-.81-.31V47.87a1.64,1.64,0,0,1,.64-.18c.62,0,1,.53,1,1.39S23.1,50.52,22.57,50.52Zm4.75-3.4h1.06v.26h-.3L26.6,51c-.33.83-.64,1.5-1.33,1.5a2.45,2.45,0,0,1-.62-.07v-.8h.22L25,52a.52.52,0,0,0,.31.1c.44,0,.74-.66.92-1.08v-.09l-1.49-3.42-.3-.06V47.2h1.63v.27l-.33.06.95,2.25.9-2.27-.33-.06v-.29Zm6.06-1.48h1.74v.26l-.35.05v4.53l.35.06v.26H33.38v-.26l.37-.06V48.42H31.52v2.06l.35.06v.26h-1.7v-.26l.34-.06V46l-.34-.05v-.26h1.7v.26l-.35.05v1.94h2.23V46l-.37-.05Zm3.77,4.86.33.06v.24H35.87v-.24l.33-.06V47.41h-.33v-.24h1.28Zm-1-4.51a.551.551,0,1,1,1.1-.02.56.56,0,0,1-.55.6.54.54,0,0,1-.56-.57Zm3.29,4.51.33.06v.24H38.15v-.24l.33-.06V45.77l-.33-.05V45.5h1.28Zm2.89-.11a2.85,2.85,0,0,0,.51,0v.25a3.47,3.47,0,0,1-1.17.24c-.73,0-.91-.33-.91-1V47.49h-.68v-.35h.69v-.77l.94-.27v1h.85v.35H41.7v2.17c0,.59.12.77.62.77ZM45,47a1.86,1.86,0,0,0-2,2,1.67,1.67,0,0,0,1.91,1.9,1.82,1.82,0,0,0,2-1.9A1.77,1.77,0,0,0,45,47Zm0,3.58c-.53,0-.88-.47-.88-1.64s.35-1.66.88-1.66.9.51.9,1.66-.4,1.67-.99,1.67Zm6.18-.11.33.06v.24H49.83v-.24l.31-.06V48.42c0-.58-.22-.84-.64-.84a1.58,1.58,0,0,0-.75.31V50.5l.33.06v.24H47.47v-.24l.33-.06V47.43h-.33v-.26h1.28v.51a2,2,0,0,1,1.31-.58c.72,0,1,.42,1,1.24V50.5Zm.31-4.88h1v.22H52.4V45.7H52v.9h.11v.07h-.48V46.6h.13v-.9h-.27v.11H51.4v-.22Zm2.37.11v.92h.11v.07h-.44v-.07h.11v-.81l-.4.92h0l-.39-.9v.81h.11v.08h-.31v-.08h.09v-.92h-.09v-.07h.38l.32.71.31-.71h.36v.07Z"/>
  </g>
</svg>
