<svg xmlns="http://www.w3.org/2000/svg" fill="none" viewBox="0 0 44 44" class="injected-svg" data-src="https://www.hilton.com/modules/assets/svgs/amenities/freeWifi.svg" xmlns:xlink="http://www.w3.org/1999/xlink">
    <path stroke="#666666" stroke-linecap="round" stroke-linejoin="round" stroke-width="1.5" d="M32.8111 22.478C30.126 19.5195 26.2489 17.662 21.9457 17.662C17.6315 17.662 13.7595 19.5115 11.0846 22.465"></path>
    <path stroke="#666666" stroke-linecap="round" stroke-linejoin="round" stroke-width="1.5" d="M27.2657 27.4879C25.9515 26.0399 24.0533 25.13 21.9471 25.13C19.8351 25.13 17.9399 26.0355 16.63 27.4813"></path>
    <path stroke="#666666" stroke-linecap="round" stroke-linejoin="round" stroke-width="1.5" d="M37.8961 16.5776C33.8081 12.5107 28.1681 10.0002 21.9521 10.0002C15.7193 10.0002 10.0837 12.5042 6.00006 16.5674"></path>
    <path fill-rule="evenodd" stroke="#666666" stroke-width="1.5" d="M23.701 33.1708C23.701 34.1388 22.9163 34.9235 21.9483 34.9235C20.9796 34.9235 20.1948 34.1388 20.1948 33.1708C20.1948 32.2028 20.9796 31.418 21.9483 31.418C22.9163 31.418 23.701 32.2028 23.701 33.1708Z" clip-rule="evenodd"></path>
</svg>