<svg xmlns="http://www.w3.org/2000/svg" fill="none" viewBox="0 0 44 44" class="injected-svg" data-src="https://www.hilton.com/modules/assets/svgs/amenities/dining.svg" xmlns:xlink="http://www.w3.org/1999/xlink">
    <path fill-rule="evenodd" stroke="#666666" stroke-linecap="round" stroke-linejoin="round" stroke-width="1.2" d="M9.75604 15.1935C8.99656 15.9529 8.99656 17.1967 9.75604 17.9562L17.0571 25.256C17.8166 26.0155 19.0591 26.0155 19.8186 25.256L27.7444 33.1818C28.1242 33.5616 28.7455 33.5616 29.1252 33.1818C29.5049 32.8021 29.5049 32.1808 29.1252 31.8011L19.8186 22.4945L19.5887 22.2634L12.5188 15.1935C11.7593 14.434 10.5155 14.434 9.75604 15.1935Z" clip-rule="evenodd"></path>
    <path stroke="#666666" stroke-linecap="round" stroke-linejoin="round" stroke-width="1.2" d="M18.0335 8.71542L21.6509 12.3328C22.5161 13.2189 22.6194 14.5904 21.9587 15.5868C22.0318 15.6297 22.1038 15.6797 22.1665 15.7424L33.6738 27.2496C34.0547 27.6305 34.0547 28.2518 33.6761 28.6304C33.2952 29.0125 32.6739 29.0125 32.293 28.6304L20.7858 17.1232C20.7254 17.0628 20.6801 16.9977 20.6383 16.9292C19.6303 17.6423 18.2205 17.5633 17.31 16.6737L13.6926 13.0563"></path>
    <path stroke="#666666" stroke-linecap="round" stroke-linejoin="round" stroke-width="1.5" d="M15.2492 11.5874L18.8213 15.1595"></path>
    <path stroke="#666666" stroke-linecap="round" stroke-linejoin="round" stroke-width="1.5" d="M16.6303 10.2063L20.2024 13.7784"></path>
    <path fill-rule="evenodd" stroke="#666666" stroke-linecap="round" stroke-linejoin="round" stroke-width="1.5" d="M39.5516 22.1323C39.5516 31.7524 31.7524 39.5516 22.1323 39.5516C12.5121 39.5516 4.71292 31.7524 4.71292 22.1323C4.71292 12.5121 12.5121 4.71292 22.1323 4.71292C31.7524 4.71292 39.5516 12.5121 39.5516 22.1323Z" clip-rule="evenodd"></path>
</svg>