<?xml version="1.0"?>
<svg xmlns="http://www.w3.org/2000/svg" id="Layer_1" data-name="Layer 1" viewBox="0 0 512 512" width="512" height="512"><path d="M256,201.13A54.87,54.87,0,1,0,310.87,256,54.932,54.932,0,0,0,256,201.13Zm0,97.74A42.87,42.87,0,1,1,298.87,256,42.918,42.918,0,0,1,256,298.87Z"/><path d="M243.333,186.311a6,6,0,0,0,.984-.081A71.944,71.944,0,0,1,256,185.27a6,6,0,0,0,0-12,84.02,84.02,0,0,0-13.638,1.12,6,6,0,0,0,.971,11.921Z"/><path d="M227.149,191.408a6,6,0,1,0-4.9-10.955A82.856,82.856,0,0,0,173.27,256a6,6,0,0,0,12,0A70.841,70.841,0,0,1,227.149,191.408Z"/><path d="M436.062,99.146A238.8,238.8,0,1,0,494.8,256,238.864,238.864,0,0,0,436.062,99.146ZM256,29.2a226.842,226.842,0,0,1,168.568,75.1l-10.515,27.333a201.1,201.1,0,0,0-316.1,0L87.437,104.3A226.8,226.8,0,0,1,256,29.2ZM439.145,208.628l-99.767-20.1a107.248,107.248,0,0,0-166.763,0l-99.76,20.1a187.28,187.28,0,0,1,28.3-61.249,189.155,189.155,0,0,1,309.682,0A187.3,187.3,0,0,1,439.145,208.628ZM482.8,256A226.8,226.8,0,0,1,95.629,416.371,226.793,226.793,0,0,1,78.585,114.716L89.52,143.144a199.064,199.064,0,0,0-30.486,71.993,6,6,0,0,0,7.061,7.095l96.782-19.5a107.36,107.36,0,0,0,0,106.542L66.1,289.768a6,6,0,0,0-7.062,7.094A201.312,201.312,0,0,0,218.7,453.657a6,6,0,0,0,7.106-5.9V358.937a107.364,107.364,0,0,0,60.38,0V447.76a6,6,0,0,0,7.106,5.9,201.312,201.312,0,0,0,159.67-156.795,6,6,0,0,0-7.061-7.094l-96.782,19.5A106.175,106.175,0,0,0,363.27,256a108.316,108.316,0,0,0-1.5-17.974,6,6,0,1,0-11.832,2A96.391,96.391,0,0,1,351.27,256a94.318,94.318,0,0,1-19.952,58.343,95.23,95.23,0,0,1-150.629.007A95.269,95.269,0,1,1,331.452,197.838a95.532,95.532,0,0,1,9.592,15.178,6,6,0,0,0,10.7-5.425c-.832-1.643-1.718-3.262-2.637-4.863l96.794,19.5a6,6,0,0,0,7.062-7.095,199.064,199.064,0,0,0-30.486-71.993l10.938-28.429A226.686,226.686,0,0,1,482.8,256ZM172.636,323.482a107.261,107.261,0,0,0,41.174,31.157v85.75A189.415,189.415,0,0,1,72.856,303.372ZM298.19,440.389V354.645a107.356,107.356,0,0,0,41.184-31.172l99.77-20.1A189.415,189.415,0,0,1,298.19,440.389Z"/></svg>
