<svg width="70" height="70" viewBox="0 0 70 70" fill="none" xmlns="http://www.w3.org/2000/svg">
<path d="M55.5616 4.83801H46.8329C46.3584 3.43348 45.0292 2.41901 43.4665 2.41901H39.7751C38.6548 0.912419 36.88 0 35 0C33.12 0 31.3452 0.912419 30.2249 2.41901H26.5335C24.9708 2.41901 23.6416 3.43348 23.1671 4.83801H14.4384C11.8125 4.83801 9.67603 6.97445 9.67603 9.60043V65.2376C9.67603 67.8636 11.8125 70 14.4384 70H55.5616C58.1875 70 60.324 67.8636 60.324 65.2376V9.60043C60.324 6.97445 58.1875 4.83801 55.5616 4.83801ZM23.1671 11.9438C23.6416 13.3484 24.9708 14.3629 26.5335 14.3629H43.4665C45.0292 14.3629 46.3584 13.3484 46.8329 11.9438H53.2181V62.8942H16.7819V11.9438H23.1671ZM26.5335 4.68683H30.833C31.2366 4.68683 31.6099 4.47214 31.813 4.1232C32.4892 2.96147 33.6806 2.26782 35 2.26782C36.3194 2.26782 37.5108 2.96147 38.1869 4.1232C38.3901 4.47214 38.7634 4.68683 39.1669 4.68683H43.4665C44.1751 4.68683 44.7516 5.2633 44.7516 5.97192V10.8071C44.7516 10.8081 44.7515 10.809 44.7515 10.8099C44.7515 10.8104 44.7515 10.8108 44.7515 10.8114C44.7507 11.5193 44.1745 12.095 43.4664 12.095H26.5333C25.8258 12.095 25.25 11.5201 25.2484 10.8128C25.2484 10.8117 25.2485 10.8108 25.2485 10.8099C25.2485 10.808 25.2482 10.806 25.2482 10.804V5.97192C25.2484 5.2633 25.8249 4.68683 26.5335 4.68683ZM58.0562 65.2376C58.0562 66.6131 56.9371 67.7322 55.5616 67.7322H14.4384C13.0629 67.7322 11.9438 66.6131 11.9438 65.2376V9.60043C11.9438 8.22493 13.0629 7.10583 14.4384 7.10583H22.9806V9.67603H15.6479C15.0216 9.67603 14.514 10.1836 14.514 10.8099V64.0281C14.514 64.6544 15.0216 65.162 15.6479 65.162H54.3521C54.9784 65.162 55.486 64.6544 55.486 64.0281V10.8099C55.486 10.1836 54.9784 9.67603 54.3521 9.67603H47.0194V7.10583H55.5616C56.9371 7.10583 58.0562 8.22493 58.0562 9.60043V65.2376Z" fill="#EB6441"/>
<path d="M35 9.52471C35.6264 9.52471 36.1339 9.01718 36.1339 8.3908V5.9718C36.1339 5.34543 35.6264 4.83789 35 4.83789C34.3736 4.83789 33.8661 5.34543 33.8661 5.9718V8.3908C33.8661 9.01718 34.3736 9.52471 35 9.52471Z" fill="#EB6441"/>
<path d="M36.2095 25.2483H43.4665C44.0929 25.2483 44.6004 24.7407 44.6004 24.1144C44.6004 23.488 44.0929 22.9805 43.4665 22.9805H36.2095C35.5831 22.9805 35.0756 23.488 35.0756 24.1144C35.0756 24.7407 35.5831 25.2483 36.2095 25.2483Z" fill="#EB6441"/>
<path d="M36.2095 30.0864H48.3045C48.9309 30.0864 49.4384 29.5789 49.4384 28.9525C49.4384 28.3261 48.9309 27.8186 48.3045 27.8186H36.2095C35.5831 27.8186 35.0756 28.3261 35.0756 28.9525C35.0756 29.5789 35.5831 30.0864 36.2095 30.0864Z" fill="#EB6441"/>
<path d="M24.5221 29.7544C24.7436 29.9758 25.0339 30.0864 25.324 30.0864C25.6141 30.0864 25.9044 29.9758 26.1259 29.7544L32.1734 23.7069C32.6163 23.2639 32.6163 22.5461 32.1734 22.1032C31.7304 21.6606 31.0126 21.6606 30.5698 22.1032L25.324 27.349L22.4974 24.5223C22.0544 24.0796 21.3366 24.0796 20.8937 24.5223C20.4509 24.9652 20.4509 25.6831 20.8937 26.1259L24.5221 29.7544Z" fill="#EB6441"/>
<path d="M36.2095 37.3435H43.4665C44.0929 37.3435 44.6004 36.836 44.6004 36.2096C44.6004 35.5832 44.0929 35.0757 43.4665 35.0757H36.2095C35.5831 35.0757 35.0756 35.5832 35.0756 36.2096C35.0756 36.836 35.5831 37.3435 36.2095 37.3435Z" fill="#EB6441"/>
<path d="M36.2095 42.1814H48.3045C48.9309 42.1814 49.4384 41.6739 49.4384 41.0475C49.4384 40.4211 48.9309 39.9136 48.3045 39.9136H36.2095C35.5831 39.9136 35.0756 40.4211 35.0756 41.0475C35.0756 41.6739 35.5831 42.1814 36.2095 42.1814Z" fill="#EB6441"/>
<path d="M24.5221 41.8494C24.7436 42.0707 25.0339 42.1814 25.324 42.1814C25.6141 42.1814 25.9044 42.0707 26.1259 41.8494L32.1734 35.8019C32.6163 35.3589 32.6163 34.641 32.1734 34.1982C31.7304 33.7555 31.0126 33.7555 30.5698 34.1982L25.324 39.444L22.4974 36.6172C22.0544 36.1745 21.3366 36.1745 20.8937 36.6172C20.4509 37.0602 20.4509 37.778 20.8937 38.2209L24.5221 41.8494Z" fill="#EB6441"/>
<path d="M36.2095 49.4385H43.4665C44.0929 49.4385 44.6004 48.9309 44.6004 48.3046C44.6004 47.6782 44.0929 47.1707 43.4665 47.1707H36.2095C35.5831 47.1707 35.0756 47.6782 35.0756 48.3046C35.0756 48.9309 35.5831 49.4385 36.2095 49.4385Z" fill="#EB6441"/>
<path d="M36.2095 54.2764H48.3045C48.9309 54.2764 49.4384 53.7688 49.4384 53.1425C49.4384 52.5161 48.9309 52.0085 48.3045 52.0085H36.2095C35.5831 52.0085 35.0756 52.5161 35.0756 53.1425C35.0756 53.7688 35.5831 54.2764 36.2095 54.2764Z" fill="#EB6441"/>
<path d="M24.5221 53.9444C24.7436 54.1657 25.0339 54.2764 25.324 54.2764C25.6141 54.2764 25.9044 54.1657 26.1259 53.9444L32.1734 47.8968C32.6163 47.4539 32.6163 46.736 32.1734 46.2932C31.7304 45.8505 31.0126 45.8505 30.5698 46.2932L25.324 51.539L22.4974 48.7122C22.0544 48.2695 21.3366 48.2695 20.8937 48.7122C20.4509 49.1552 20.4509 49.873 20.8937 50.3159L24.5221 53.9444Z" fill="#EB6441"/>
</svg>
