<svg width="68" height="68" viewBox="0 0 68 68" fill="none" xmlns="http://www.w3.org/2000/svg">
<path d="M40.8028 23.7836C40.8028 24.4094 41.3095 24.9174 41.9365 24.9174H53.2744C53.9014 24.9174 54.4081 24.4094 54.4081 23.7836C54.4081 23.1578 53.9014 22.6499 53.2744 22.6499H41.9365C41.3095 22.6498 40.8028 23.1577 40.8028 23.7836Z" fill="#EB6441"/>
<path d="M47.6056 30.5864C47.6056 31.2122 48.1123 31.7201 48.7393 31.7201H55.5421C56.169 31.7201 56.6758 31.2122 56.6758 30.5864C56.6758 29.9606 56.169 29.4526 55.5421 29.4526H48.7393C48.1123 29.4525 47.6056 29.9604 47.6056 30.5864Z" fill="#EB6441"/>
<path d="M46.4717 18.1144C47.0987 18.1144 47.6054 17.6065 47.6054 16.9807C47.6054 16.3549 47.0987 15.8469 46.4717 15.8469H44.2041C43.5771 15.8469 43.0703 16.3549 43.0703 16.9807C43.0703 17.6065 43.5771 18.1144 44.2041 18.1144H46.4717Z" fill="#EB6441"/>
<path d="M32.8662 29.4524C32.2392 29.4524 31.7325 29.9603 31.7325 30.5861C31.7325 31.2119 32.2392 31.7199 32.8662 31.7199H44.2041C44.831 31.7199 45.3378 31.2119 45.3378 30.5861C45.3378 29.9603 44.831 29.4524 44.2041 29.4524H32.8662Z" fill="#EB6441"/>
<path d="M38.5352 61.1984H16.9933C15.118 61.1984 13.5919 59.6723 13.5919 57.7971V5.64278C13.5919 5.01698 13.0852 4.50903 12.4582 4.50903C9.33237 4.50903 6.78918 7.05208 6.78918 10.178C6.78918 10.8038 7.29593 11.3118 7.92293 11.3118C8.54992 11.3118 9.05667 10.8038 9.05667 10.178C9.05667 8.69948 10.0045 7.43872 11.3243 6.9705V57.7971C11.3243 60.9229 13.8673 63.4661 16.9933 63.4661H38.5352C39.1622 63.4661 39.6689 62.9581 39.6689 62.3323C39.6689 61.7065 39.1622 61.1984 38.5352 61.1984Z" fill="#EB6441"/>
<path d="M21.5284 24.9174H37.4014C38.0284 24.9174 38.5352 24.4094 38.5352 23.7836C38.5352 23.1578 38.0284 22.6499 37.4014 22.6499H21.5284C20.9014 22.6499 20.3947 23.1578 20.3947 23.7836C20.3947 24.4094 20.9014 24.9174 21.5284 24.9174Z" fill="#EB6441"/>
<path d="M21.5284 18.1144H26.0635C26.6905 18.1144 27.1972 17.6065 27.1972 16.9807C27.1972 16.3549 26.6905 15.8469 26.0635 15.8469H21.5284C20.9014 15.8469 20.3947 16.3549 20.3947 16.9807C20.3947 17.6065 20.9014 18.1144 21.5284 18.1144Z" fill="#EB6441"/>
<path d="M39.6689 15.8469H30.5986C29.9716 15.8469 29.4648 16.3549 29.4648 16.9807C29.4648 17.6065 29.9716 18.1144 30.5986 18.1144H39.6689C40.2959 18.1144 40.8027 17.6065 40.8027 16.9807C40.8028 16.3549 40.2959 15.8469 39.6689 15.8469Z" fill="#EB6441"/>
<path d="M55.542 0H12.4581C6.84461 0 2.27549 4.55663 2.25397 10.1644V10.1779V10.1904V10.2041V10.2176C2.26872 13.8333 4.21998 17.2017 7.35481 19.0159C7.89677 19.3288 8.58954 19.144 8.9035 18.6032C9.21866 18.0612 9.03158 17.3674 8.49082 17.0544C6.04649 15.6383 4.5261 13.0102 4.52159 10.1905C4.52956 5.82085 8.08624 2.26762 12.4581 2.26762H55.542C59.9173 2.26762 63.4785 5.82776 63.4785 10.2041V57.8232C63.4785 58.3979 63.3175 58.9751 63.0148 59.4898C62.6984 60.0295 62.8775 60.7245 63.4172 61.042C63.5986 61.1485 63.7959 61.1985 63.991 61.1985C64.3798 61.1985 64.7585 60.9989 64.9694 60.6395C65.4773 59.7767 65.746 58.8028 65.746 57.8232V10.2041C65.7461 4.57709 61.169 0 55.542 0Z" fill="#EB6441"/>
<path d="M58.9434 52.1282C58.9434 48.3764 55.8924 45.3254 52.1407 45.3254C48.3889 45.3254 45.338 48.3764 45.338 52.1282C45.338 55.8799 48.3889 58.9309 52.1407 58.9309C55.8924 58.9309 58.9434 55.8799 58.9434 52.1282ZM52.1407 56.6633C49.6395 56.6633 47.6056 54.6292 47.6056 52.1282C47.6056 49.6271 49.6396 47.5931 52.1407 47.5931C54.6419 47.5931 56.6758 49.6271 56.6758 52.1282C56.6758 54.6292 54.6419 56.6633 52.1407 56.6633Z" fill="#EB6441"/>
<path d="M50.0941 60.0658C49.5534 59.7529 48.8594 59.9388 48.5453 60.4807L46.1043 64.7109L45.7166 64.1259C45.5205 63.8277 45.1951 63.6395 44.8391 63.6191L44.1383 63.5771L46.6202 59.2801C46.9331 58.7382 46.7473 58.0444 46.2053 57.7313C45.6633 57.4172 44.9695 57.6032 44.6554 58.1463L41.2575 64.0318C41.0614 64.3719 41.0557 64.7903 41.2416 65.1361C41.4275 65.4818 41.779 65.7075 42.1724 65.7301L44.1373 65.848L45.2222 67.4908C45.432 67.8095 45.788 67.9998 46.1678 67.9998H46.203C46.5942 67.9874 46.9536 67.773 47.1509 67.4329L50.5103 61.6143C50.8232 61.0726 50.6373 60.3787 50.0941 60.0658Z" fill="#EB6441"/>
<path d="M59.6554 58.1995C59.3413 57.6565 58.6463 57.4705 58.1066 57.7845C57.5636 58.0974 57.3776 58.7914 57.6905 59.3332L60.1429 63.5769L59.4422 63.6189C59.0862 63.6405 58.7608 63.8287 58.5635 64.1257L58.1781 64.7107L55.7496 60.502C55.4344 59.9601 54.7405 59.7742 54.1997 60.0871C53.6577 60.4 53.4719 61.094 53.7848 61.6359L57.1316 67.433C57.329 67.7731 57.6884 67.9874 58.0795 67.9999H58.1147C58.4934 67.9999 58.8505 67.8094 59.0614 67.4909L60.1453 65.8492L62.1091 65.7302C62.5025 65.7074 62.8539 65.4818 63.0399 65.1361C63.2259 64.7904 63.219 64.372 63.0241 64.0319L59.6554 58.1995Z" fill="#EB6441"/>
<path d="M21.5284 31.7201H28.3311C28.9581 31.7201 29.4649 31.2122 29.4649 30.5864C29.4649 29.9606 28.9581 29.4526 28.3311 29.4526H21.5284C20.9014 29.4526 20.3947 29.9606 20.3947 30.5864C20.3947 31.2122 20.9014 31.7201 21.5284 31.7201Z" fill="#EB6441"/>
<path d="M21.5284 38.5226H35.1338C35.7608 38.5226 36.2676 38.0147 36.2676 37.3889C36.2676 36.7631 35.7608 36.2551 35.1338 36.2551H21.5284C20.9014 36.2551 20.3947 36.7631 20.3947 37.3889C20.3947 38.0147 20.9014 38.5226 21.5284 38.5226Z" fill="#EB6441"/>
<path d="M21.6485 52.6348C21.9274 53.1948 22.6089 53.4216 23.1689 53.1428C23.7289 52.8627 23.9569 52.1813 23.6756 51.6212C22.5532 49.3763 22.3015 47.3627 22.9999 46.2323C23.3718 45.6303 24.0203 45.3252 24.9296 45.3252C25.4704 45.3252 25.6722 45.5111 25.7992 45.6926C26.6439 46.9103 25.8412 50.6188 25.0011 52.8637C24.814 53.3637 25.0011 53.9261 25.4501 54.2153C25.8968 54.5021 26.4875 54.4398 26.8651 54.0634C27.3493 53.5804 27.8742 53.0985 28.3311 52.7074V53.2618C28.3311 53.7198 28.6067 54.1337 29.0307 54.3083C29.4546 54.4851 29.9411 54.3876 30.2664 54.0634C30.7846 53.5464 31.3854 53.0395 31.8911 52.6745C31.8776 52.7028 31.8639 52.7301 31.8503 52.7561C31.6768 53.1076 31.6961 53.5249 31.9026 53.8581C32.1101 54.1915 32.474 54.3956 32.8662 54.3956H37.4013C38.0283 54.3956 38.5351 53.8876 38.5351 53.2618C38.5351 52.636 38.0283 52.1281 37.4013 52.1281H34.4501C34.5419 51.5884 34.5193 51.0396 34.246 50.5975C33.9569 50.1292 33.4535 49.8604 32.8662 49.8604C32.1655 49.8604 31.3413 50.2867 30.5885 50.8151C30.5307 50.3207 30.2381 49.9137 29.7937 49.7301C29.491 49.6053 29.101 49.4422 28.1543 50.0102C28.5272 48.0567 28.6362 45.805 27.6633 44.4014C27.2382 43.788 26.4196 43.0579 24.9298 43.0579C23.2313 43.0579 21.8606 43.7619 21.0704 45.0409C19.94 46.8707 20.1497 49.6383 21.6485 52.6348Z" fill="#EB6441"/>
<path d="M52.1407 37.3889C52.1407 36.7631 51.6339 36.2551 51.0069 36.2551H39.6691C39.0421 36.2551 38.5353 36.7631 38.5353 37.3889C38.5353 38.0147 39.0421 38.5226 39.6691 38.5226H51.0069C51.6339 38.5226 52.1407 38.0147 52.1407 37.3889Z" fill="#EB6441"/>
</svg>
