<svg width="70" height="70" viewBox="0 0 70 70" fill="none" xmlns="http://www.w3.org/2000/svg">
<path d="M35.0951 61.7881L67.7156 21.7949L57.5648 7.58418H12.6253L2.47226 21.7949L35.0951 61.7881ZM69.9387 22.5283L35.9496 64.1983C35.9016 64.26 35.8469 64.3149 35.7828 64.3652C35.3144 64.7442 34.6246 64.6735 34.2453 64.2052L0.249301 22.5283C-0.052317 22.1558 -0.0843431 21.6144 0.205951 21.2055L11.1243 5.92099C11.3186 5.60348 11.6658 5.38867 12.0656 5.38867H58.1269V5.39325C58.4695 5.39553 58.8056 5.55315 59.018 5.85248L69.9683 21.1849L69.9387 22.5283Z" fill="#EB6441"/>
<path d="M42.7691 20.7417C43.3745 20.7417 43.8656 21.233 43.8656 21.8384C43.8656 22.4438 43.3745 22.935 42.7691 22.935H1.09667C0.491258 22.935 0 22.4439 0 21.8384C0 21.233 0.491144 20.7417 1.09667 20.7417H42.7691Z" fill="#EB6441"/>
<path d="M68.9033 20.7417C69.5087 20.7417 70 21.233 70 21.8384C70 22.4438 69.5087 22.935 68.9033 22.935H64.7041C64.0987 22.935 63.6074 22.4439 63.6074 21.8384C63.6074 21.233 64.0987 20.7417 64.7041 20.7417H68.9033Z" fill="#EB6441"/>
<path d="M11.0487 6.89178C10.8248 6.33201 11.0989 5.69457 11.6587 5.47073C12.2185 5.24678 12.8559 5.52094 13.0797 6.07843L36.1092 63.1083C36.3331 63.6682 36.059 64.3055 35.5015 64.5293C34.9417 64.7533 34.3043 64.4814 34.0781 63.9218L11.0487 6.89178Z" fill="#EB6441"/>
<path d="M46.9225 31.3036C47.1463 30.7438 47.7861 30.4696 48.3435 30.6936C48.9033 30.9176 49.1775 31.5572 48.9511 32.1169L36.1091 63.9242C35.8853 64.484 35.2455 64.7581 34.688 64.5319C34.1283 64.3079 33.8541 63.6682 34.0781 63.1107L46.9225 31.3036Z" fill="#EB6441"/>
<path d="M57.1075 6.07872C57.3315 5.51895 57.9712 5.24707 58.5307 5.47103C59.0905 5.69498 59.3647 6.3347 59.1384 6.89436L57.3678 11.2809C57.144 11.8407 56.5043 12.1149 55.9468 11.8886C55.387 11.6648 55.1129 11.025 55.3392 10.4676L57.1075 6.07872Z" fill="#EB6441"/>
<path d="M19.39 22.638C18.9468 23.0492 18.2546 23.024 17.8433 22.5832C17.4321 22.1422 17.4572 21.4477 17.9005 21.0387L34.3524 5.68572C34.7933 5.27441 35.4878 5.29958 35.8968 5.74051C36.3081 6.18144 36.2829 6.87595 35.842 7.28485L19.39 22.638Z" fill="#EB6441"/>
<path d="M46.8015 15.9162C47.2423 16.3274 47.2675 17.0198 46.8563 17.4607C46.4448 17.9016 45.7527 17.9268 45.3118 17.5155L34.3499 7.28472C33.909 6.87353 33.8839 6.18131 34.2952 5.74026C34.7064 5.29933 35.3986 5.27417 35.8396 5.68548L46.8015 15.9162Z" fill="#EB6441"/>
<path d="M54.7155 14.767L56.7579 18.8201L60.811 20.8625C61.3502 21.1321 61.565 21.7923 61.2953 22.3315C61.1856 22.5486 61.0119 22.7131 60.811 22.8159L56.7579 24.8584L54.7155 28.9114C54.4461 29.4506 53.7856 29.6677 53.2465 29.3958C53.0295 29.2861 52.865 29.1125 52.7622 28.9114L50.722 24.8584L46.6687 22.8159C46.1296 22.544 45.9149 21.886 46.1846 21.3468C46.2943 21.1298 46.468 20.9654 46.6687 20.8625L50.722 18.8201L52.7622 14.767C53.0341 14.2279 53.6921 14.0132 54.2313 14.2828C54.4482 14.3902 54.6128 14.5638 54.7155 14.767ZM54.9668 20.1269L53.7398 17.6914L52.5129 20.1269C52.4101 20.3279 52.2455 20.5016 52.0285 20.6113L49.5909 21.8381L52.0285 23.0673C52.2296 23.1701 52.4033 23.3346 52.5129 23.5516L53.7398 25.9894L54.9668 23.5516C55.0695 23.3505 55.2341 23.1769 55.451 23.0673L57.8888 21.8381L55.451 20.6113C55.2501 20.5084 55.0765 20.3439 54.9668 20.1269Z" fill="#EB6441"/>
</svg>
