<svg width="70" height="70" viewBox="0 0 70 70" fill="none" xmlns="http://www.w3.org/2000/svg">
<path d="M51.3996 55.4531V44.2422C51.3996 42.5605 50.0197 41.1934 48.3225 41.1934H8.65169C6.95447 41.1934 5.57461 42.5605 5.57461 44.2422V55.4531C4.30515 55.877 3.38065 57.0801 3.38065 58.4746C3.38065 60.2383 4.82949 61.6738 6.6095 61.6738H50.3647C52.1447 61.6738 53.5935 60.2383 53.5935 58.4746C53.5935 57.0801 52.669 55.8906 51.3996 55.4531ZM7.6444 44.2422C7.6444 43.6953 8.09975 43.2441 8.65169 43.2441H48.3363C48.8882 43.2441 49.3436 43.6953 49.3436 44.2422V55.2891H7.6444V44.2422ZM50.3647 59.6231H6.6095C5.97477 59.6231 5.45043 59.1035 5.45043 58.4746C5.45043 57.8457 5.97477 57.3262 6.6095 57.3262H50.3647C50.9994 57.3262 51.5238 57.8457 51.5238 58.4746C51.5238 59.1172 51.0132 59.6231 50.3647 59.6231Z" fill="#EB6441"/>
<path d="M53.4555 45.1309H52.5586V47.1816H53.4555C54.6284 47.1816 54.6284 47.4551 54.6284 47.8379V61.5371C54.6284 62.4668 53.9937 63.5742 53.4555 63.5742H3.51863C2.91149 63.5742 2.06978 62.3984 2.06978 61.5371V47.8379C2.06978 47.6191 2.06978 47.1816 3.51863 47.1816H4.41553V45.1309H3.51863C2.59413 45.1309 1.83521 45.2949 1.26947 45.623C0.455352 46.0742 0 46.8672 0 47.8379V61.5371C0 62.3984 0.358762 63.3828 0.952099 64.1758C1.65582 65.0918 2.59413 65.625 3.51863 65.625H4.41553V68.9746C4.41553 69.5351 4.87089 69.9863 5.43663 69.9863C6.01616 69.9863 6.47152 69.5215 6.47152 68.9609V65.625H51.441V68.9746C51.441 69.5351 51.9101 70 52.4758 70C53.0416 70 53.5107 69.5351 53.5107 68.9746V65.625C55.5529 65.5703 56.6844 63.1914 56.6844 61.5371V47.8379C56.6982 46.8262 56.2704 45.1309 53.4555 45.1309Z" fill="#EB6441"/>
<path d="M13.2466 47.3184H11.0388V49.3691H13.2466V47.3184Z" fill="#EB6441"/>
<path d="M46.0733 47.3184H43.7276V49.3691H46.0733V47.3184Z" fill="#EB6441"/>
<path d="M29.653 47.3184H27.4453V49.3691H29.653V47.3184Z" fill="#EB6441"/>
<path d="M2.34575 23.7344H31.7918C32.9509 23.7344 33.8892 22.8047 33.8892 21.6562V2.13281C33.8892 0.957031 32.9233 0 31.7366 0H2.04218C0.965896 0 0.0965881 0.861328 0.0965881 1.92773V21.5059C0.0965881 22.7363 1.10388 23.7344 2.34575 23.7344ZM2.16637 2.05078H31.8332V21.6836H2.16637V2.05078Z" fill="#EB6441"/>
<path d="M3.38065 3.25391V20.4805H30.619V3.25391H3.38065ZM28.5492 18.4297H5.45043V5.30469H28.5492V18.4297Z" fill="#EB6441"/>
<path d="M44.9004 4.33398C40.1124 4.33398 36.2074 8.20313 36.2074 12.9473C36.2074 17.6914 40.1124 21.5606 44.9004 21.5606C49.6885 21.5606 53.5935 17.6914 53.5935 12.9473C53.5935 8.20313 49.6885 4.33398 44.9004 4.33398ZM45.9353 19.4277V18.334H43.8656V19.4277C41.0783 18.9902 38.8705 16.8301 38.3737 14.0957H39.588V12.0449H38.3323C38.7325 9.1875 40.9955 6.9043 43.8518 6.4668V7.94336H45.9215V6.4668C48.7916 6.91797 51.0546 9.1875 51.441 12.0449H50.0473V14.0957H51.3996C50.9304 16.8438 48.7226 19.0039 45.9353 19.4277Z" fill="#EB6441"/>
<path d="M43.8656 9.58398V12.0449H40.4159V14.0957H45.9353V9.58398H43.8656Z" fill="#EB6441"/>
<path d="M64.5496 64.6406V40.4824H62.4798V64.6406H56.988V69.9453H70V64.6406H64.5496ZM67.9302 67.8809H59.0578V66.6777H67.9302V67.8809Z" fill="#EB6441"/>
<path d="M59.1819 16.2012V35.8066C59.1819 36.9277 60.0926 37.8301 61.2241 37.8301H62.4936V39.5254H64.5633V37.8301H65.7638C66.9091 37.8301 67.8336 36.9141 67.8336 35.7793V16.1875C67.8336 15.0254 66.8815 14.0957 65.7224 14.0957H61.3345C60.134 14.0957 59.1819 15.0391 59.1819 16.2012ZM65.75 32.5527H63.4595C62.9213 32.5527 62.4936 32.9766 62.4936 33.5098C62.4936 34.1113 62.9903 34.6035 63.5974 34.6035H65.75V35.7793H61.2517V16.1465H65.75V32.5527Z" fill="#EB6441"/>
<path d="M14.6243 7.88455L12.4388 10.05L13.9023 11.5002L16.0879 9.33466L14.6243 7.88455Z" fill="#EB6441"/>
<path d="M20.0998 6.79685L12.4406 14.3857L13.9042 15.8358L21.5634 8.24696L20.0998 6.79685Z" fill="#EB6441"/>
<path d="M20.0981 12.2332L17.9126 14.3987L19.3761 15.8488L21.5617 13.6833L20.0981 12.2332Z" fill="#EB6441"/>
</svg>
