<svg width="70" height="70" viewBox="0 0 70 70" fill="none" xmlns="http://www.w3.org/2000/svg">
<g clip-path="url(#clip0)">
<path d="M54.0227 49.797L43.1667 46.9338V43.2994C47.1486 41.0156 49.9781 37.1522 50.954 32.6667H51.3334C53.8171 32.5738 55.7921 30.5509 55.8257 28.0655C55.8587 25.5806 53.9384 23.5054 51.4581 23.3464C52.2967 22.9351 52.9358 22.206 53.2337 21.3207L53.5841 20.2708C54.1589 18.6245 53.7373 16.7936 52.5 15.5643V8.20142C52.5 5.56958 50.7375 3.26302 48.1974 2.57259C43.8668 1.40023 38.0739 0 35 0C30.9913 0 24.9466 1.57853 21.7001 2.51904C19.2124 3.24764 17.5029 5.52799 17.5 8.11995V15.5643C16.2627 16.7936 15.8412 18.6234 16.4148 20.2697L16.7652 21.3196C17.0631 22.2048 17.7023 22.934 18.5408 23.3447C16.0554 23.4985 14.1282 25.5761 14.1618 28.0661C14.1954 30.5555 16.1784 32.5806 18.6667 32.6667H19.0529C20.0276 37.1499 22.8543 41.0116 26.8334 43.296V46.9338L15.9836 49.797C9.31626 51.5418 4.66612 57.5666 4.66669 64.4583V68.8333C4.66669 69.4776 5.18907 70 5.83335 70H64.1667C64.811 70 65.3334 69.4776 65.3334 68.8333V64.4583C65.3345 57.5683 60.6878 51.5441 54.0227 49.797ZM29.1667 44.4148C32.9213 45.8606 37.0787 45.8606 40.8334 44.4148V47.4015L35 54.2067L29.1667 47.4015V44.4148ZM53.6667 28C53.6667 29.2886 52.6219 30.3333 51.3334 30.3333V25.6667C52.6219 25.6667 53.6667 26.7114 53.6667 28ZM50.1667 8.20142V14.2336C48.6571 13.8656 46.9817 13.481 45.2773 13.1204L48.5557 5.25798C49.5583 5.90112 50.1656 7.01025 50.1667 8.20142ZM46.346 4.49634L42.9451 12.6539C40.3298 12.0985 37.6717 11.7681 35 11.6667C32.011 11.7937 29.0397 12.1839 26.1196 12.8333L23.3334 4.48324C27.1262 3.31942 31.0414 2.59823 35 2.33333C38.8464 2.65975 42.6489 3.38493 46.346 4.49634ZM21.1715 5.37931L23.8187 13.313C22.4282 13.616 21.0758 13.9322 19.8334 14.2347V8.11995C19.8368 7.05013 20.3301 6.04069 21.1715 5.37931ZM18.7994 17.6646C19.1127 17.091 19.6551 16.6768 20.2908 16.5259C24.1502 15.5819 31.2038 14 35 14C38.7962 14 45.8498 15.5819 49.7093 16.5259C50.3433 16.6803 50.8839 17.0933 51.1995 17.6641C51.5151 18.2349 51.5772 18.9122 51.371 19.5314L51.0206 20.5813C50.9209 20.8855 50.6993 21.1344 50.4082 21.2683C50.1137 21.405 49.7759 21.4136 49.4751 21.2928C48.6759 20.9744 47.7075 20.5357 46.6399 20.0538C42.9719 18.3972 38.4055 16.3333 35 16.3333C31.5946 16.3333 27.0282 18.3972 23.3601 20.0561C22.2926 20.538 21.3242 20.9766 20.5266 21.2951C20.2253 21.4159 19.8875 21.4067 19.593 21.2706C19.3019 21.1367 19.0803 20.8878 18.9806 20.5836L18.6308 19.5337C18.42 18.9145 18.4815 18.2354 18.7994 17.6646ZM18.6667 30.3333C17.3781 30.3333 16.3334 29.2886 16.3334 28C16.3334 26.7114 17.3781 25.6667 18.6667 25.6667V30.3333ZM21 29.1667V23.5737C21.1322 23.5441 21.2621 23.5076 21.3897 23.4626C22.2157 23.134 23.2177 22.6811 24.3217 22.1798C27.6024 20.6992 32.0976 18.6667 35 18.6667C37.9024 18.6667 42.3976 20.6992 45.6783 22.182C46.7823 22.6811 47.7787 23.134 48.6104 23.4649C48.738 23.5116 48.8679 23.5504 49 23.5817V29.1667C49 36.8987 42.732 43.1667 35 43.1667C27.268 43.1667 21 36.8987 21 29.1667ZM27.5904 49.1481L34.1148 56.7594C34.3364 57.018 34.6594 57.1667 35 57.1667C35.3407 57.1667 35.6637 57.018 35.8853 56.7594L42.4096 49.1481L43.8845 49.5366L35 60.0286L26.1156 49.5366L27.5904 49.1481ZM63 67.6667H52.5V59.5H50.1667V67.6667H19.8334V59.5H17.5V67.6667H7.00002V64.4583C6.99831 58.6296 10.929 53.5328 16.5669 52.0534L23.6096 50.1957L34.1039 62.587C34.3255 62.8485 34.6514 62.9994 34.9943 62.9994C35.3373 62.9994 35.6625 62.8485 35.8841 62.587L46.3841 50.1957L53.4331 52.0534C59.0711 53.5328 63.0017 58.6296 63 64.4583V67.6667Z" fill="#EB6441"/>
<path d="M35 32.6667C36.9329 32.6667 38.5 31.0995 38.5 29.1667V24.5H36.1667V29.1667C36.1667 29.811 35.6443 30.3333 35 30.3333C34.3557 30.3333 33.8333 29.811 33.8333 29.1667V24.5H31.5V29.1667C31.5 31.0995 33.0671 32.6667 35 32.6667Z" fill="#EB6441"/>
<path d="M41.1717 25.3282C41.2851 25.4313 41.4155 25.5139 41.5568 25.5731C41.6952 25.6386 41.8467 25.6705 42 25.6666C42.3087 25.662 42.6044 25.5412 42.8283 25.3282C42.9314 25.2148 43.014 25.0844 43.0732 24.9431C43.133 24.8029 43.1649 24.6526 43.1667 24.4999C43.1621 24.1911 43.0413 23.8955 42.8283 23.6716C42.7166 23.5662 42.5862 23.483 42.4432 23.4266C42.1618 23.2979 41.8382 23.2979 41.5568 23.4266C41.4138 23.483 41.2833 23.5662 41.1717 23.6716C40.9586 23.8955 40.8379 24.1911 40.8333 24.4999C40.835 24.6526 40.8669 24.8029 40.9267 24.9431C40.986 25.0844 41.0686 25.2148 41.1717 25.3282Z" fill="#EB6441"/>
<path d="M29.1666 24.5C29.1706 24.3468 29.1387 24.1953 29.0732 24.0568C29.014 23.9156 28.9314 23.7851 28.8283 23.6718C28.3606 23.2399 27.6394 23.2399 27.1717 23.6718C27.0686 23.7851 26.986 23.9156 26.9267 24.0568C26.8669 24.197 26.835 24.3474 26.8333 24.5C26.8333 25.1443 27.3557 25.6667 28 25.6667C28.6443 25.6667 29.1666 25.1443 29.1666 24.5Z" fill="#EB6441"/>
<path d="M35 38.5C37.5977 38.6094 40.1201 37.6159 41.9453 35.7639L40.1822 34.2361C38.7939 35.5651 36.9198 36.2635 35 36.1667C33.0802 36.2635 31.2061 35.5651 29.8178 34.2361L28.0547 35.7639C29.8799 37.6159 32.4023 38.6094 35 38.5Z" fill="#EB6441"/>
</g>
<defs>
<clipPath id="clip0">
<rect width="70" height="70" fill="white"/>
</clipPath>
</defs>
</svg>
