<svg width="70" height="70" viewBox="0 0 70 70" fill="none" xmlns="http://www.w3.org/2000/svg">
<path d="M36.9063 44.3206C38.1208 44.2261 39.228 43.6066 39.9467 42.6184L50.8702 27.5171C51.205 27.0539 51.1548 26.4146 50.7488 26.0086C50.3428 25.6037 49.7035 25.5536 49.2403 25.8872L34.1367 36.8142C33.152 37.5306 32.5325 38.6377 32.438 39.8522C32.3435 41.0667 32.7833 42.2556 33.6432 43.1154C34.426 43.8994 35.4818 44.3334 36.5797 44.3334C36.6882 44.3334 36.7967 44.3287 36.9063 44.3206ZM34.7643 40.0342C34.8052 39.5011 35.0782 39.0146 35.5075 38.7019L44.7207 32.0367L38.0578 41.2476C37.7428 41.6804 37.2563 41.9522 36.7232 41.9942C36.1923 42.0292 35.6708 41.8449 35.2917 41.4657C34.916 41.0889 34.7223 40.5662 34.7643 40.0342Z" fill="#EB6441"/>
<path d="M63.0397 22.8247C63.028 22.8002 63.028 22.7745 63.0152 22.75C63.0012 22.7267 62.979 22.7138 62.9638 22.6917C61.7843 20.6687 60.389 18.7868 58.8047 17.0812L61.3107 14.5763L62.9603 16.226L67.9093 11.2758L62.9603 6.32683L58.0102 11.2758L59.661 12.9267L57.155 15.4315C55.4493 13.8472 53.5687 12.4507 51.5445 11.2712C51.5223 11.256 51.5095 11.2338 51.4862 11.2198C51.4617 11.2058 51.436 11.207 51.4115 11.1942C47.803 9.11517 43.7488 7.73033 39.4263 7.22283V5.83333H41.1763C42.7852 5.83333 44.093 4.5255 44.093 2.91667C44.093 1.30783 42.784 0 41.1752 0H30.6752C29.0663 0 27.7585 1.30783 27.7585 2.91667C27.7585 4.5255 29.0663 5.83333 30.6752 5.83333H32.4252V7.182C31.1652 7.31617 29.9075 7.5215 28.6638 7.80617C28.0362 7.94967 27.643 8.57617 27.7877 9.20383C27.9312 9.8315 28.5577 10.2258 29.1853 10.08C30.2587 9.83383 31.3425 9.64833 32.4287 9.5235L33.6805 9.42667C34.0632 9.3975 34.4155 9.3765 34.7585 9.36017V11.6667C34.7585 12.3118 35.28 12.8333 35.9252 12.8333C36.5703 12.8333 37.0918 12.3118 37.0918 11.6667V9.36833C41.4797 9.57017 45.6143 10.7485 49.2905 12.6875L48.1402 14.679C47.8182 15.2378 48.0095 15.9507 48.5672 16.2727C48.7503 16.3788 48.951 16.429 49.1493 16.429C49.553 16.429 49.945 16.2202 50.1608 15.8457L51.3077 13.8588C54.9582 16.1747 58.0592 19.2757 60.375 22.9262L58.3882 24.073C57.8317 24.395 57.6403 25.1078 57.9635 25.6667C58.1805 26.0412 58.5713 26.25 58.975 26.25C59.1733 26.25 59.374 26.1998 59.5572 26.0937L61.5487 24.9433C63.5145 28.672 64.6963 32.8743 64.8725 37.3322H62.5683C61.9232 37.3322 61.4017 37.8537 61.4017 38.4988C61.4017 39.144 61.9232 39.6655 62.5683 39.6655H64.8725C64.6963 44.1233 63.5145 48.3257 61.5487 52.0543L59.5572 50.904C58.9995 50.582 58.2855 50.771 57.9635 51.331C57.6415 51.8898 57.8328 52.6027 58.3905 52.9247L60.3773 54.0715C58.0615 57.722 54.9605 60.823 51.31 63.1388L50.1632 61.152C49.84 60.592 49.1248 60.4018 48.5695 60.725C48.0107 61.047 47.8193 61.761 48.1425 62.3187L49.2928 64.3102C45.6167 66.2492 41.482 67.4275 37.0942 67.6293V65.3333C37.0942 64.6882 36.5727 64.1667 35.9275 64.1667C35.2823 64.1667 34.7608 64.6882 34.7608 65.3333V67.6387C32.8977 67.5745 31.0287 67.3412 29.1888 66.9188C28.5612 66.7683 27.9347 67.1673 27.7912 67.795C27.6465 68.4227 28.0397 69.0492 28.6673 69.1927C30.996 69.7293 33.3748 70 35.735 70C35.7922 70 35.847 69.9965 35.9042 69.9953C35.9123 69.9953 35.9182 70 35.9252 70C35.9345 70 35.9427 69.9942 35.952 69.9942C41.5602 69.9557 46.8218 68.4413 51.3742 65.8257C51.4103 65.8093 51.4488 65.8012 51.4838 65.7802C51.5072 65.7662 51.52 65.744 51.5422 65.7288C56.2543 62.9825 60.1918 59.0497 62.944 54.341C62.9662 54.3095 62.9942 54.285 63.014 54.25C63.028 54.2255 63.0268 54.1998 63.0385 54.1753C65.7032 49.5553 67.235 44.205 67.235 38.5C67.235 32.795 65.7032 27.4447 63.0397 22.8247ZM62.9592 9.62617L64.6088 11.2758L62.9592 12.9267L61.3083 11.2758L62.9592 9.62617ZM34.7585 7.0245V3.5H30.6752C30.3543 3.5 30.0918 3.2375 30.0918 2.91667C30.0918 2.59583 30.3543 2.33333 30.6752 2.33333H41.1752C41.496 2.33333 41.7585 2.59583 41.7585 2.91667C41.7585 3.2375 41.496 3.5 41.1752 3.5H37.0918V7.0245C36.6858 7.00817 36.2985 7 35.9252 7C35.8925 7 35.8552 7.00233 35.8225 7.00233C35.7933 7.00233 35.7642 7 35.735 7C35.5437 7 35.3523 7.01283 35.161 7.01633C35.0257 7.01983 34.8985 7.01867 34.7585 7.0245Z" fill="#EB6441"/>
<path d="M25.4252 16.3333H19.5918C18.9467 16.3333 18.4252 16.8548 18.4252 17.4999C18.4252 18.1451 18.9467 18.6666 19.5918 18.6666H25.4252C26.0703 18.6666 26.5918 18.1451 26.5918 17.4999C26.5918 16.8548 26.0703 16.3333 25.4252 16.3333Z" fill="#EB6441"/>
<path d="M25.4252 24.5H13.7585C13.1133 24.5 12.5918 25.0215 12.5918 25.6667C12.5918 26.3118 13.1133 26.8333 13.7585 26.8333H25.4252C26.0703 26.8333 26.5918 26.3118 26.5918 25.6667C26.5918 25.0215 26.0703 24.5 25.4252 24.5Z" fill="#EB6441"/>
<path d="M25.4251 32.6667H7.92515C7.27998 32.6667 6.75848 33.1882 6.75848 33.8334C6.75848 34.4786 7.27998 35.0001 7.92515 35.0001H25.4251C26.0703 35.0001 26.5918 34.4786 26.5918 33.8334C26.5918 33.1882 26.0703 32.6667 25.4251 32.6667Z" fill="#EB6441"/>
<path d="M25.4252 40.8333H3.25849C2.61333 40.8333 2.09183 41.3548 2.09183 41.9999C2.09183 42.6451 2.61333 43.1666 3.25849 43.1666H25.4252C26.0703 43.1666 26.5918 42.6451 26.5918 41.9999C26.5918 41.3548 26.0703 40.8333 25.4252 40.8333Z" fill="#EB6441"/>
<path d="M25.4252 49H10.2585C9.61333 49 9.09183 49.5215 9.09183 50.1667C9.09183 50.8118 9.61333 51.3333 10.2585 51.3333H25.4252C26.0703 51.3333 26.5918 50.8118 26.5918 50.1667C26.5918 49.5215 26.0703 49 25.4252 49Z" fill="#EB6441"/>
<path d="M25.4252 57.1667H17.2585C16.6133 57.1667 16.0918 57.6882 16.0918 58.3334C16.0918 58.9786 16.6133 59.5001 17.2585 59.5001H25.4252C26.0703 59.5001 26.5918 58.9786 26.5918 58.3334C26.5918 57.6882 26.0703 57.1667 25.4252 57.1667Z" fill="#EB6441"/>
</svg>
