  <svg id="star-1-5" width="27" height="24" viewBox="0 0 27 24" fill="none" xmlns="http://www.w3.org/2000/svg">
    <mask id="mask0_21_153" style="mask-type:alpha" maskUnits="userSpaceOnUse" x="0" y="0" width="15" height="24">
    <rect width="15" height="24" fill="#990F40"/>
    </mask>
    <g mask="url(#mask0_21_153)">
    <path d="M14.0489 2.92705C14.3483 2.00574 15.6517 2.00574 15.9511 2.92705L17.4697 7.60081C17.6035 8.01284 17.9875 8.2918 18.4207 8.2918H23.335C24.3037 8.2918 24.7065 9.53141 23.9228 10.1008L19.947 12.9894C19.5966 13.244 19.4499 13.6954 19.5838 14.1074L21.1024 18.7812C21.4017 19.7025 20.3472 20.4686 19.5635 19.8992L15.5878 17.0106C15.2373 16.756 14.7627 16.756 14.4122 17.0106L10.4365 19.8992C9.65276 20.4686 8.59828 19.7025 8.89763 18.7812L10.4162 14.1074C10.5501 13.6954 10.4034 13.244 10.053 12.9894L6.07722 10.1008C5.29351 9.53141 5.69628 8.2918 6.66501 8.2918H11.5793C12.0125 8.2918 12.3965 8.01284 12.5303 7.60081L14.0489 2.92705Z" fill="#990F40"/>
    </g>
    <path opacity="0.5" d="M14.0489 2.92705C14.3483 2.00574 15.6517 2.00574 15.9511 2.92705L17.4697 7.60081C17.6035 8.01284 17.9875 8.2918 18.4207 8.2918H23.335C24.3037 8.2918 24.7065 9.53141 23.9228 10.1008L19.947 12.9894C19.5966 13.244 19.4499 13.6954 19.5838 14.1074L21.1024 18.7812C21.4017 19.7025 20.3472 20.4686 19.5635 19.8992L15.5878 17.0106C15.2373 16.756 14.7627 16.756 14.4122 17.0106L10.4365 19.8992C9.65276 20.4686 8.59828 19.7025 8.89763 18.7812L10.4162 14.1074C10.5501 13.6954 10.4034 13.244 10.053 12.9894L6.07722 10.1008C5.29351 9.53141 5.69628 8.2918 6.66501 8.2918H11.5793C12.0125 8.2918 12.3965 8.01284 12.5303 7.60081L14.0489 2.92705Z" fill="#990F40"/>
  </svg>