<svg width="103" height="104" viewBox="0 0 103 104" fill="none" xmlns="http://www.w3.org/2000/svg">
<path d="M101.947 43.7358C100.732 40.1146 98.1701 37.1811 94.734 35.4741C93.1775 34.6988 91.2929 35.3278 90.5171 36.8715C89.7415 38.4126 90.371 40.2879 91.9227 41.0585C93.8586 42.0191 95.3012 43.6701 95.9851 45.711C96.6699 47.7498 96.5128 49.9297 95.5454 51.8537C94.8517 53.2315 93.6603 54.2606 92.1913 54.755C87.8078 38.7847 70.8658 30.7752 50.588 30.7752C43.8302 30.7752 37.4637 31.6931 31.7827 33.4665C26.1339 30.9158 19.616 30.4081 13.4757 32.3416C11.9572 32.8197 11.249 34.5662 12.0163 35.9528L15.8096 42.8064C11.5821 47.1725 8.80548 52.7087 8.0598 59.4559L4.50682 60.0439C2.08242 60.4455 0.305176 62.529 0.305176 64.9701V73.493C0.305176 74.9116 0.912608 76.263 1.97557 77.2104L7.53358 82.1632L7.5361 82.1555C10.9629 85.3632 15.4003 88.0056 20.4183 90.0776V100.692C20.4183 102.071 21.5439 103.189 22.9325 103.189H36.0545C37.208 103.189 38.2136 102.409 38.4935 101.298L40.0663 95.0487C43.5861 95.4789 47.1263 95.6981 50.588 95.6981C54.2126 95.6981 57.7121 95.4118 61.0725 94.9013L62.6825 101.298C62.9623 102.409 63.968 103.189 65.1217 103.189H78.2435C79.6321 103.189 80.7577 102.071 80.7577 100.692V87.6155C88.5216 82.2054 93.3284 74.0806 93.3284 63.2367C93.3284 62.4401 93.2494 61.689 93.1984 60.9219C93.5157 60.844 93.8362 60.7926 94.1498 60.6885C97.2248 59.6717 99.7181 57.5257 101.168 54.6434C102.887 51.2319 103.163 47.357 101.947 43.7358ZM21.6754 60.7396C19.5926 60.7396 17.9042 59.0626 17.9042 56.9941C17.9042 54.9255 19.5926 53.2485 21.6754 53.2485C23.7581 53.2485 25.4466 54.9255 25.4466 56.9941C25.4466 59.0626 23.7581 60.7396 21.6754 60.7396ZM67.4712 43.8237C67.0405 45.1429 65.8078 45.9794 64.4846 45.9794C64.1616 45.9794 63.834 45.9304 63.5109 45.8256C58.8927 44.3333 53.4028 43.7773 47.6331 44.2017C44.9754 44.4015 42.4012 44.7965 39.9828 45.3771C38.2948 45.7916 36.5983 44.7528 36.1905 43.0776C35.783 41.3998 36.8203 39.7148 38.507 39.3101C41.2545 38.6491 44.1651 38.2029 47.1604 37.9786C53.8338 37.4762 59.9866 38.1225 65.4556 39.8904C67.1054 40.422 68.009 42.1849 67.4712 43.8237Z" fill="#E20613"/>
<path d="M51.8449 23.284C58.0932 23.284 63.1585 18.2532 63.1585 12.0474C63.1585 5.84155 58.0932 0.81073 51.8449 0.81073C45.5965 0.81073 40.5312 5.84155 40.5312 12.0474C40.5312 18.2532 45.5965 23.284 51.8449 23.284Z" fill="#868686"/>
</svg>
