<svg width="93" height="93" viewBox="0 0 93 93" fill="none" xmlns="http://www.w3.org/2000/svg">
<path d="M46.4993 24.8035C34.5421 24.8035 24.8027 34.5428 24.8027 46.5C24.8027 58.4572 34.5421 68.1965 46.4993 68.1965C58.4565 68.1965 68.1958 58.4572 68.1958 46.5C68.1958 34.5428 58.4565 24.8035 46.4993 24.8035ZM57.8779 42.1607L46.1135 54.8893C45.535 55.4679 44.7635 55.8536 43.8957 55.8536C43.0278 55.8536 42.2564 55.4679 41.6778 54.8893L35.1206 47.7536C33.9635 46.5 34.0599 44.6678 35.3135 43.5107C36.5671 42.3535 38.3992 42.45 39.5564 43.7036L43.9921 48.525L53.5386 38.2071C54.6957 37.0499 56.5279 36.9535 57.7815 38.0142C58.8422 39.075 58.9386 41.0035 57.8779 42.1607Z" fill="#868686"/>
<path d="M91.2423 48.8143C92.6888 47.6572 92.6888 45.4393 91.2423 44.2821L84.1066 38.2071C83.1423 37.4357 82.853 36.0857 83.2387 34.9285L86.4209 26.1535C86.9995 24.4178 85.9388 22.5856 84.1066 22.1999L74.8494 20.4642C73.5958 20.2713 72.6315 19.307 72.4387 18.0534L70.7994 8.89269C70.5101 7.06054 68.5815 5.99982 66.8458 6.5784L58.0708 9.76055C56.9136 10.1463 55.5636 9.85698 54.7922 8.89269L48.7171 1.75695C47.56 0.31051 45.3421 0.31051 44.185 1.75695L38.2064 8.89269C37.435 9.85698 36.0849 10.1463 34.9278 9.76055L26.1528 6.5784C24.3206 5.99982 22.4885 7.06054 22.1992 8.89269L20.4634 18.1499C20.2706 19.4035 19.3063 20.3677 18.0527 20.5606L8.89196 22.1999C7.05981 22.4892 5.99909 24.4178 6.57766 26.1535L9.75982 34.9285C10.1455 36.0857 9.85625 37.4357 8.89196 38.2071L1.75621 44.2821C0.309778 45.4393 0.309778 47.6572 1.75621 48.8143L8.89196 54.8893C9.85625 55.6608 10.1455 57.0108 9.75982 58.1679L6.57766 66.943C5.99909 68.6787 7.05981 70.5108 8.89196 70.8001L18.1491 72.4394C19.4027 72.6323 20.367 73.5965 20.5599 74.8501L22.1992 84.1073C22.4885 85.9395 24.417 87.0002 26.1528 86.4216L34.9278 83.2394C36.0849 82.8537 37.4349 83.143 38.2064 84.1073L44.2814 91.2431C45.4386 92.6895 47.6564 92.6895 48.8136 91.2431L54.8886 84.1073C55.66 83.143 57.01 82.8537 58.1672 83.2394L66.9422 86.4216C68.678 87.0002 70.5101 85.9395 70.8958 84.1073L72.5351 74.8501C72.728 73.5965 73.6923 72.6323 74.9458 72.4394L84.203 70.8001C86.0352 70.5108 87.0959 68.5822 86.5173 66.8465L83.2387 58.0715C82.853 56.9143 83.1423 55.5643 84.1066 54.7929L91.2423 48.8143ZM46.4993 74.0787C31.2635 74.0787 18.9206 61.7358 18.9206 46.5C18.9206 31.2642 31.2635 18.9213 46.4993 18.9213C61.7351 18.9213 74.078 31.2642 74.078 46.5C74.078 61.7358 61.7351 74.0787 46.4993 74.0787Z" fill="#E20613"/>
</svg>
