<svg width="104" height="96" viewBox="0 0 104 96" fill="none" xmlns="http://www.w3.org/2000/svg">
<path d="M87.0793 0.742233H75.8538C72.7542 0.742233 70.241 3.25507 70.241 6.35497C70.241 9.45466 67.728 11.9677 64.6283 11.9677C61.5287 11.9677 59.0155 9.45466 59.0155 6.35497C59.0155 3.25507 56.5024 0.742233 53.4028 0.742233H39.3709C36.2712 0.742233 33.7581 3.25507 33.7581 6.35497C33.7581 9.45466 31.245 11.9677 28.1454 11.9677C25.0457 11.9677 22.5326 9.45466 22.5326 6.35497C22.5326 3.25507 20.0195 0.742233 16.9198 0.742233H5.69432C2.59468 0.742233 0.081543 3.25507 0.081543 6.35497V76.5145C0.081543 79.6141 2.59468 82.1272 5.69432 82.1272H48.2368C46.739 78.3731 45.8915 74.2887 45.8915 70.0003C45.8915 51.9025 60.5627 37.2316 78.6602 37.2316C83.6889 37.2316 88.434 38.3977 92.6921 40.4219V6.35497C92.6921 3.25507 90.179 0.742233 87.0793 0.742233ZM16.9198 68.5971C13.8202 68.5971 11.3071 66.084 11.3071 62.9844C11.3071 59.8845 13.8202 57.3716 16.9198 57.3716C20.0195 57.3716 22.5326 59.8845 22.5326 62.9844C22.5326 66.084 20.0195 68.5971 16.9198 68.5971ZM16.9198 51.7588C13.8202 51.7588 11.3071 49.2458 11.3071 46.1461C11.3071 43.0462 13.8202 40.5333 16.9198 40.5333C20.0195 40.5333 22.5326 43.0462 22.5326 46.1461C22.5326 49.2458 20.0195 51.7588 16.9198 51.7588ZM33.7581 68.5971C30.6584 68.5971 28.1454 66.084 28.1454 62.9844C28.1454 59.8845 30.6584 57.3716 33.7581 57.3716C36.8577 57.3716 39.3709 59.8845 39.3709 62.9844C39.3709 66.084 36.8577 68.5971 33.7581 68.5971ZM33.7581 51.7588C30.6584 51.7588 28.1454 49.2458 28.1454 46.1461C28.1454 43.0462 30.6584 40.5333 33.7581 40.5333C36.8577 40.5333 39.3709 43.0462 39.3709 46.1461C39.3709 49.2458 36.8577 51.7588 33.7581 51.7588ZM33.7581 34.9206C30.6584 34.9206 28.1454 32.4075 28.1454 29.3078C28.1454 26.2079 30.6584 23.695 33.7581 23.695C36.8577 23.695 39.3709 26.2079 39.3709 29.3078C39.3709 32.4075 36.8577 34.9206 33.7581 34.9206ZM50.5964 34.9206C47.4967 34.9206 44.9836 32.4075 44.9836 29.3078C44.9836 26.2079 47.4967 23.695 50.5964 23.695C53.696 23.695 56.2092 26.2079 56.2092 29.3078C56.2092 32.4075 53.696 34.9206 50.5964 34.9206Z" fill="#E20613"/>
<path d="M78.6603 44.7429C64.7112 44.7429 53.4028 56.0509 53.4028 70.0003C53.4028 83.9497 64.7112 95.2578 78.6603 95.2578C92.6097 95.2578 103.918 83.9497 103.918 70.0003C103.918 56.0509 92.6097 44.7429 78.6603 44.7429ZM82.1682 71.4035C82.1682 73.341 80.5978 74.9115 78.6603 74.9115H64.6284C62.6908 74.9115 61.1204 73.341 61.1204 71.4035C61.1204 69.466 62.6908 67.8955 64.6284 67.8955H75.1523V54.5653C75.1523 52.6277 76.7228 51.0572 78.6603 51.0572C80.5978 51.0572 82.1682 52.6277 82.1682 54.5653V71.4035Z" fill="#868686"/>
</svg>
