<svg width="107" height="100" viewBox="0 0 107 100" fill="none" xmlns="http://www.w3.org/2000/svg">
<path d="M31.1711 50.9368C28.641 48.424 24.4417 48.5788 22.1174 51.4014C20.0961 53.8555 20.529 57.5118 22.7864 59.7539L29.4921 66.4139C30.8148 67.728 30.8148 69.8581 29.4921 71.1718C28.1691 72.4858 26.0244 72.4855 24.7016 71.1718L18.1888 64.7025C15.7058 62.2374 14.285 58.9796 14.1435 55.5155L14.1955 39.8018C14.1955 35.9566 10.8636 32.8844 6.91119 33.2777C3.47438 33.6195 0.989258 36.7454 0.989258 40.1761V56.3397C0.989258 60.059 2.31516 63.6579 4.7319 66.4984L19.5646 83.933C19.815 84.2273 20.1832 84.3976 20.5715 84.3982L47.6908 84.4362C48.4209 84.437 49.0133 83.8494 49.0133 83.1245V75.1789C49.0133 71.0047 47.344 67.0016 44.3723 64.0498L31.1711 50.9368ZM100.089 33.2777C96.1369 32.8844 92.805 35.9566 92.805 39.8018L92.857 55.5155C92.7154 58.9796 91.2947 62.2374 88.8117 64.7025L82.2989 71.1718C80.9761 72.4855 78.8315 72.4858 77.5085 71.1718C76.1857 69.8581 76.1857 67.728 77.5085 66.4139L84.214 59.7539C86.4715 57.5118 86.9044 53.8555 84.8831 51.4014C82.5588 48.5788 78.3594 48.424 75.8294 50.9368L62.6282 64.0498C59.6565 67.0016 57.9872 71.0047 57.9872 75.1789V83.1245C57.9872 83.8494 58.5796 84.437 59.3097 84.4362L86.429 84.3982C86.8173 84.3976 87.1855 84.2273 87.4359 83.933L102.269 66.4984C104.685 63.6579 106.011 60.059 106.011 56.3397V40.1761C106.011 36.7454 103.526 33.6195 100.089 33.2777Z" fill="#868686"/>
<path d="M48.4 91.6778H21.2801C20.5509 91.6778 19.9595 92.2651 19.9595 92.9894V98.236C19.9595 98.9605 20.5509 99.5476 21.2801 99.5476H48.4C49.1295 99.5476 49.7206 98.9605 49.7206 98.236V92.9894C49.7206 92.2651 49.1295 91.6778 48.4 91.6778Z" fill="#E20613"/>
<path d="M85.7203 91.6778H58.6004C57.8709 91.6778 57.2798 92.2651 57.2798 92.9894V98.236C57.2798 98.9605 57.8709 99.5476 58.6004 99.5476H85.7203C86.4495 99.5476 87.0409 98.9605 87.0409 98.236V92.9894C87.0409 92.2651 86.4495 91.6778 85.7203 91.6778Z" fill="#E20613"/>
<path d="M54.418 34.292C58.757 34.292 62.2745 30.7985 62.2745 26.489C62.2745 22.1795 58.757 18.686 54.418 18.686C50.079 18.686 46.5615 22.1795 46.5615 26.489C46.5615 30.7985 50.079 34.292 54.418 34.292Z" fill="#E20613"/>
<path d="M54.2953 0.452377C39.7087 0.452377 27.8828 12.1971 27.8828 26.6852C27.8828 41.1731 39.7087 52.9182 54.2953 52.9182C68.8834 52.9182 80.7078 41.1731 80.7078 26.6852C80.7078 12.1971 68.8834 0.452377 54.2953 0.452377ZM69.8869 29.3115L67.3804 29.3614C67.0464 29.3682 66.6725 29.6197 66.5439 29.9274L65.4399 32.5735C65.3128 32.8794 65.3941 33.3188 65.6291 33.5612L67.3656 35.3565C67.5976 35.5961 67.5917 35.982 67.3567 36.2156L64.2104 39.3389C63.9739 39.5737 63.5897 39.5802 63.3458 39.3473L61.5384 37.6228C61.296 37.3926 60.8526 37.3082 60.5438 37.4355L57.8792 38.5312C57.5718 38.658 57.3176 39.0262 57.3102 39.362L57.2599 41.8509C57.2525 42.183 56.9747 42.4523 56.6422 42.4523L52.1938 42.4536C51.8598 42.4536 51.5834 42.1881 51.576 41.8523L51.5258 39.3631C51.5184 39.031 51.2657 38.6597 50.9553 38.5323L48.2922 37.4362C47.9833 37.3095 47.5415 37.3907 47.2976 37.6236L45.4902 39.3483C45.2478 39.5785 44.8591 39.5734 44.6241 39.3396L41.4807 36.2148C41.2442 35.9798 41.2369 35.5978 41.4718 35.3556L43.2083 33.5603C43.4389 33.3208 43.5246 32.8803 43.396 32.5728L42.2935 29.9273C42.165 29.6216 41.794 29.3682 41.4571 29.3614L38.9506 29.3115C38.6166 29.3049 38.3447 29.0284 38.3447 28.698V24.28C38.3447 23.9477 38.6107 23.6731 38.9491 23.6663L41.4556 23.6164C41.7896 23.6098 42.1635 23.358 42.2921 23.0505L43.396 20.4044C43.5231 20.0986 43.4418 19.659 43.2069 19.4168L41.4704 17.6213C41.2383 17.3816 41.2442 16.9958 41.4792 16.7622L44.6256 13.6391C44.8621 13.4042 45.2463 13.3978 45.4902 13.6304L47.2976 15.3551C47.54 15.5852 47.9833 15.6698 48.2922 15.5425L50.9553 14.4465C51.2642 14.3199 51.5184 13.9517 51.5258 13.6158L51.576 11.1269C51.5834 10.7948 51.8613 10.5256 52.1938 10.5255L56.6422 10.5244C56.9762 10.5242 57.2525 10.7897 57.2599 11.1256L57.3102 13.6148C57.3176 13.9469 57.5703 14.3181 57.8792 14.4456L60.5438 15.5417C60.8526 15.6683 61.2945 15.587 61.5384 15.3544L63.3458 13.6295C63.5867 13.3994 63.9769 13.4046 64.2118 13.6383L67.3553 16.7631C67.5917 16.998 67.5991 17.38 67.3641 17.6224L65.6276 19.4175C65.3956 19.6571 65.3114 20.0975 65.4399 20.405L66.5424 23.0505C66.6695 23.3564 67.0405 23.6096 67.3789 23.6164L69.8854 23.6663C70.2194 23.6729 70.4913 23.9496 70.4913 24.28V28.698C70.4913 29.0302 70.2253 29.3047 69.8869 29.3115Z" fill="#E20613"/>
</svg>
