<svg width="96" height="90" viewBox="0 0 96 90" fill="none" xmlns="http://www.w3.org/2000/svg">
<path d="M62.9816 0.845764H33.0171C28.3549 0.845764 24.5757 4.62527 24.5757 9.28727V15.4917H33.0171V9.28727H62.9816V15.4917H71.4231V9.28727C71.4231 4.62527 67.6438 0.845764 62.9816 0.845764Z" fill="#868686"/>
<path d="M51.745 67.9294V69.6911C51.745 71.7599 50.068 73.4366 47.9994 73.4366C45.9309 73.4366 44.2539 71.7599 44.2539 69.6911V67.9294H10.5439C8.80093 67.9294 7.12467 67.646 5.5498 67.1351V84.1602C5.5498 86.9184 7.78566 89.1542 10.5439 89.1542H85.455C88.2132 89.1542 90.4491 86.9184 90.4491 84.1602V67.1351C88.8742 67.646 87.1979 67.9294 85.455 67.9294H51.745Z" fill="#868686"/>
<path d="M90.449 21.7342H5.54976C2.79152 21.7342 0.555664 23.9701 0.555664 26.7283V51.6987C0.555664 57.2149 5.02737 61.6868 10.5438 61.6868H44.2538V58.7533C44.2538 56.6848 45.9308 55.0078 47.9994 55.0078C50.0679 55.0078 51.7449 56.6848 51.7449 58.7533V61.6868H85.4549C90.9714 61.6868 95.4431 57.2149 95.4431 51.6987V26.7283C95.4431 23.9701 93.2072 21.7342 90.449 21.7342Z" fill="#E20613"/>
</svg>
