<svg width="54" height="54" viewBox="0 0 54 54" fill="none" xmlns="http://www.w3.org/2000/svg">
<path fill-rule="evenodd" clip-rule="evenodd" d="M15.7 31.6034L19.4424 45.8705C19.9633 47.8576 21.2343 47.3147 20.9786 46.2121L17.438 30.9602C18.2481 30.6204 19.0115 30.2067 19.7229 29.7298C19.9362 29.85 20.0994 30.057 20.1603 30.3119L24.7385 49.5059C25.0614 50.8586 24.1991 52.2297 22.8452 52.5442L18.7742 53.4893C16.5519 54.0051 13.5766 48.2369 12.0959 46.4661C11.8693 46.1943 11.6678 45.9033 11.8377 45.5914L13.3422 42.8243L13.188 42.3133L10.4247 40.8106C10.1141 40.6419 9.99655 40.2478 10.1659 39.936L11.6458 37.214L11.5051 36.7485L8.787 35.2708C8.4767 35.1021 8.35918 34.7074 8.52849 34.3956L9.92611 31.8257C11.5702 32.1071 13.9734 31.9728 15.7 31.6034ZM22.4379 24.607C22.3509 24.7606 22.2601 24.913 22.1652 25.064C18.7829 30.436 11.687 32.0487 6.31505 28.6666C0.943085 25.2848 -0.669926 18.1887 2.71185 12.817C4.49537 9.985 7.31102 8.1982 10.362 7.6366C10.1506 8.3175 9.99415 9.02214 9.89597 9.7455C9.03042 10.0299 8.25435 10.606 7.73102 11.4372C6.53798 13.3322 7.10707 15.8361 9.00211 17.0288C9.71427 17.4774 10.5129 17.6771 11.2954 17.6506C13.4308 21.6744 17.6031 24.4515 22.4379 24.607Z" fill="#E20613"/>
<path fill-rule="evenodd" clip-rule="evenodd" d="M33.8104 18.5996L46.3246 26.4059C48.0672 27.4928 48.6191 26.2257 47.6767 25.5996L34.6326 16.9387C34.9881 16.1361 35.2595 15.3109 35.4496 14.4755C35.6879 14.4171 35.9482 14.4556 36.1669 14.599L52.6715 25.4143C53.835 26.1766 54.149 27.7655 53.3804 28.9236L51.0688 32.4051C49.8073 34.3052 43.684 32.1535 41.3916 31.8821C41.0403 31.8405 40.6935 31.7664 40.6032 31.4232L39.7981 28.378L39.3348 28.1123L36.2944 28.917C35.9521 29.0074 35.5963 28.801 35.5057 28.4578L34.7133 25.4632L34.2915 25.221L31.3001 26.0118C30.9589 26.1022 30.6024 25.8964 30.5121 25.5529L29.7637 22.7255C31.1528 21.8006 32.808 20.0532 33.8104 18.5996ZM20.5228 0.353633C26.7507 -0.874313 32.7948 3.17869 34.0228 9.40687C35.2507 15.6345 31.1974 21.6783 24.9696 22.9066C18.742 24.1345 12.6981 20.0819 11.4699 13.8536C10.2416 7.62517 14.2952 1.58164 20.5228 0.353633ZM17.3667 4.64228C19.5635 4.20876 21.6959 5.6389 22.1294 7.83574C22.5623 10.0332 21.1322 12.1656 18.9353 12.5989C16.7382 13.0327 14.6058 11.6016 14.1722 9.4048C13.7397 7.20757 15.1689 5.07548 17.3667 4.64228Z" fill="#868686"/>
</svg>
