<svg xmlns="http://www.w3.org/2000/svg" fill="none" viewBox="0 0 44 44" class="injected-svg" data-src="https://www.hilton.com/modules/assets/svgs/amenities/indoorPool.svg" xmlns:xlink="http://www.w3.org/1999/xlink">
    <path fill-rule="evenodd" stroke="#666666" stroke-linecap="round" stroke-width="1.5" d="M5 17.025L22.1 7L39.243 16.951L39.287 36.926L5.043 37L5 17.025Z" clip-rule="evenodd"></path>
    <path fill-rule="evenodd" stroke="#666666" stroke-linecap="round" stroke-linejoin="round" stroke-width="1.5" d="M32.0862 22.997C32.0862 24.3 31.0312 25.353 29.7312 25.353C28.4292 25.353 27.3762 24.3 27.3762 22.997C27.3762 21.697 28.4292 20.643 29.7312 20.643C31.0312 20.643 32.0862 21.697 32.0862 22.997Z" clip-rule="evenodd"></path>
    <path stroke="#666666" stroke-linecap="round" stroke-linejoin="round" stroke-width="1.5" d="M34.7028 30.5247C34.7028 30.5247 31.8058 27.9967 28.1038 27.9967C24.3998 27.9967 21.2038 29.8417 17.1178 29.8417C12.2278 29.8417 9.5838 27.5947 9.5838 27.5947"></path>
    <path stroke="#666666" stroke-linecap="round" stroke-linejoin="round" stroke-width="1.5" d="M13.0957 29.1654L22.0177 23.8484L21.0417 21.6844C21.0417 21.6844 20.8297 20.8004 20.0967 21.0444C19.3657 21.2884 15.8287 23.1034 15.2357 23.3314C13.7317 23.9094 13.0387 22.3414 14.4937 21.4934C16.3777 20.3924 19.9177 18.6444 20.4557 18.3564C21.1357 17.9904 21.7767 17.9244 22.3527 18.9094C23.1887 20.3434 25.7907 24.2764 26.3447 25.2494C26.8987 26.2234 27.1987 27.0454 26.1397 28.0644"></path>
</svg>