<svg xmlns="http://www.w3.org/2000/svg" fill="none" viewBox="0 0 44 44" class="injected-svg" data-src="https://www.hilton.com/modules/assets/svgs/amenities/meetingRooms.svg" xmlns:xlink="http://www.w3.org/1999/xlink">
    <path fill-rule="evenodd" stroke="#666666" stroke-linecap="round" stroke-linejoin="round" stroke-width="1.5" d="M34.5233 19.7472C34.4674 19.1267 34.4886 18.6939 34.4886 18.1273C34.7698 17.9799 35.2735 17.04 35.3577 16.2467C35.5787 16.2282 35.9272 16.0129 36.0292 15.1615C36.0838 14.7046 35.8656 14.4482 35.7325 14.3667C36.0923 13.2858 36.8389 9.94178 34.3519 9.59611C34.0962 9.14703 33.4403 8.91965 32.5889 8.91965C29.1825 8.98199 28.771 11.4923 29.5175 14.3667C29.3851 14.4482 29.1662 14.7046 29.2215 15.1615C29.3235 16.0129 29.6713 16.2282 29.8923 16.2467C29.9773 17.04 30.5007 17.9799 30.7819 18.1273C30.7819 18.6939 30.8032 19.1267 30.7472 19.7472C30.5149 20.3706 29.8214 20.7191 29.0068 21.0506C28.397 17.5634 24.5344 17.9162 23.8983 16.2056C23.8424 15.5851 23.8636 15.1523 23.8636 14.5856C24.1448 14.4383 24.6485 13.4983 24.7327 12.705C24.9537 12.6866 25.3022 12.4712 25.4042 11.6198C25.4588 11.1629 25.2406 10.9065 25.1075 10.8251C25.4673 9.74415 26.2139 6.40011 23.7269 6.05444C23.4712 5.60536 22.8153 5.38861 21.9639 5.38861C18.5575 5.45165 18.146 7.95065 18.8925 10.8251C18.7601 10.9065 18.5412 11.1629 18.5965 11.6198C18.6985 12.4712 19.0463 12.6866 19.2673 12.705C19.3523 13.4983 19.8757 14.4383 20.1569 14.5856C20.1569 15.1523 20.1782 15.5851 20.1222 16.2056C19.4854 17.9162 15.6059 17.5634 14.9939 21.0513C14.1793 20.7191 13.4851 20.3713 13.2535 19.7472C13.1975 19.1267 13.2188 18.6939 13.2188 18.1273C13.5 17.9799 14.0235 17.04 14.1077 16.2467C14.3287 16.2282 14.6773 16.0129 14.7793 15.1615C14.8338 14.7046 14.6156 14.4482 14.4825 14.3667C15.2297 11.4923 14.8182 8.98199 11.4111 8.91965C10.5597 8.91965 9.9045 9.14703 9.64879 9.59611C7.16183 9.94178 7.90842 13.2858 8.26754 14.3667C8.13437 14.4482 7.91621 14.7046 7.97146 15.1615C8.07346 16.0129 8.42125 16.2282 8.64225 16.2467C8.72725 17.04 9.23017 17.9799 9.51137 18.1273C9.51137 18.6939 9.53333 19.1267 9.47738 19.7472C8.80304 21.5599 5.20967 21.0067 5 24.503V32.2947C5 32.2947 6.02567 37.3479 14.2083 39.3617V38.6697C14.4371 34.8666 19.2233 35.4205 19.9572 33.4485C20.0181 32.7735 19.9954 32.3024 19.9954 31.6862C19.6887 31.5254 19.1192 30.5033 19.0271 29.6398C18.787 29.6207 18.408 29.3855 18.2968 28.4604C18.2373 27.9632 18.4753 27.6834 18.6198 27.5956C17.8074 24.4683 18.255 21.7377 21.961 21.6697C22.8875 21.6697 23.6001 21.9169 23.8785 22.4056C26.5836 22.7817 25.7719 26.4197 25.3809 27.5956C25.5254 27.6834 25.7627 27.9632 25.7032 28.4604C25.592 29.3855 25.2137 29.6207 24.9729 29.6398C24.8808 30.5033 24.3333 31.5254 24.0273 31.6862C24.0273 32.3024 24.0039 32.7735 24.0655 33.4485C24.7986 35.4205 29.5636 34.8666 29.7917 38.6697V39.3617C37.975 37.3479 39 32.2947 39 32.2947V24.503C38.7903 21.0067 35.1977 21.5599 34.5233 19.7472Z" clip-rule="evenodd"></path>
</svg>