<svg xmlns="http://www.w3.org/2000/svg" fill="none" viewBox="0 0 44 44" class="injected-svg" data-src="https://www.hilton.com/modules/assets/svgs/amenities/petsAllowed.svg" xmlns:xlink="http://www.w3.org/1999/xlink">
    <path stroke="#666666" stroke-linecap="round" stroke-width="1.5" d="M29.6483 7.45739C30.1313 6.99539 30.7993 6.69739 31.7493 6.69739C34.5703 6.69739 34.6433 9.82139 36.1873 10.2714C36.9483 10.4934 38.3493 10.8994 38.7603 10.8994C38.7603 10.8994 39.3183 10.8344 38.7433 11.6874C38.7433 12.0014 38.5593 13.2954 37.4303 13.6484C36.5953 14.3764 36.4623 14.3794 35.6213 14.3794C34.7803 14.3794 34.1483 13.6734 33.1863 13.6734C32.2243 13.6734 30.8163 15.0624 30.8163 17.4134C30.8163 23.5704 28.6293 24.2454 27.9113 24.8314C27.1933 25.4174 26.3233 28.5654 26.3233 30.7724C26.3233 32.8634 26.5513 34.9094 27.0993 35.2734C28.0773 35.6944 27.7743 36.6974 27.1703 36.6974H26.2603C25.2203 36.6974 23.8493 34.5464 23.8493 30.5624C23.8493 28.3464 24.3343 24.7964 24.2733 24.3024C18.9243 24.3024 18.0193 21.9944 15.7483 21.9944C15.4833 27.2244 10.4323 27.5154 10.4323 29.7714C10.4323 35.2474 12.5683 34.1864 12.5683 35.7574C12.5683 36.1634 12.1433 36.6974 11.4783 36.6974C10.0353 36.6974 9.51929 36.3634 9.03129 35.3324C8.29029 33.7674 7.78229 31.1084 7.78229 29.6244C7.78229 27.2324 9.19729 27.8104 9.17829 25.5834C9.16829 24.3204 7.78229 23.9344 7.78229 20.1244C7.78229 17.6014 8.64429 15.7904 8.64429 15.7904C8.64429 15.7904 8.86129 14.7534 8.00629 13.1654C7.15129 11.5764 5.14429 10.8944 5.84229 9.75039C6.33729 8.93839 8.77229 10.3634 9.68529 11.6684C10.3843 12.6654 11.1683 14.4924 11.1683 14.4924C11.1683 14.4924 11.8953 14.4394 12.7573 14.4394C14.5573 14.4394 15.3413 15.1194 17.5043 15.1194C21.6593 15.1194 24.6253 14.5804 26.3773 13.4884"></path>
    <path stroke="#666666" stroke-linecap="round" stroke-linejoin="round" d="M17.3454 22.4613C16.8264 25.0373 16.0134 25.9863 16.0134 27.6783C16.0134 33.1543 18.1494 32.0933 18.1494 33.6643C18.1494 34.0703 17.7244 34.6043 17.0594 34.6043C15.6164 34.6043 15.1004 34.2703 14.6124 33.2393C13.8714 31.6743 13.3644 29.0153 13.3644 27.5313C13.3644 27.1903 13.3924 26.9103 13.4424 26.6733"></path>
    <path stroke="#666666" stroke-linecap="round" stroke-linejoin="round" d="M30.6083 20.2616C30.5723 24.1656 31.0083 26.6116 31.2173 28.9296C31.4203 31.1796 31.5913 32.4676 32.2013 33.1656C33.3353 33.5576 32.8553 34.6076 32.0543 34.6076C31.3533 34.6076 30.0273 34.9296 28.8803 28.8636C28.4783 26.7366 28.1233 25.4476 28.0623 24.9536"></path>
    <path stroke="#666666" stroke-linecap="round" stroke-width="1.5" d="M29.5181 7.56519C28.0711 9.04219 24.4241 12.1912 27.0531 13.8352C28.7801 14.9152 30.8061 12.2902 30.8061 9.48819"></path>
</svg>