<svg xmlns="http://www.w3.org/2000/svg" fill="none" viewBox="0 0 44 44" class="injected-svg" data-src="https://www.hilton.com/modules/assets/svgs/amenities/fitnessCenter.svg" xmlns:xlink="http://www.w3.org/1999/xlink">
    <path fill-rule="evenodd" stroke="#666666" stroke-linecap="round" stroke-width="1.5" d="M15.2124 26.7334H28.5014V20.3631H15.2124V26.7334Z" clip-rule="evenodd"></path>
    <path stroke="#666666" stroke-linecap="round" stroke-width="1.5" d="M29 34.1689V10.812"></path>
    <path stroke="#666666" stroke-linecap="round" stroke-width="1.5" d="M29.2888 10.8082H33.5357C34.7079 10.8082 35.6591 11.7585 35.6591 12.9317V32.0417C35.6591 33.2149 34.7079 34.1652 33.5357 34.1652H29.2888"></path>
    <path stroke="#666666" stroke-linecap="round" stroke-width="1.5" d="M35.659 25.672H38.8437C39.4303 25.672 39.9059 25.1964 39.9059 24.6107V20.3638C39.9059 19.7772 39.4303 19.3016 38.8437 19.3016H35.659"></path>
    <path stroke="#666666" stroke-linecap="round" stroke-width="1.5" d="M15 34.1689V10.812"></path>
    <path stroke="#666666" stroke-linecap="round" stroke-width="1.5" d="M14.4252 10.8082H10.1783C9.00601 10.8082 8.05484 11.7585 8.05484 12.9317V32.0417C8.05484 33.2149 9.00601 34.1652 10.1783 34.1652H14.4252"></path>
    <path stroke="#666666" stroke-linecap="round" stroke-width="1.5" d="M8.05492 25.672H4.87022C4.28363 25.672 3.80804 25.1964 3.80804 24.6107V20.3638C3.80804 19.7772 4.28363 19.3016 4.87022 19.3016H8.05492"></path>
</svg>