<svg xmlns="http://www.w3.org/2000/svg" fill="none" viewBox="0 0 44 44" class="injected-svg" data-src="https://www.hilton.com/modules/assets/svgs/amenities/nonSmoking.svg" xmlns:xlink="http://www.w3.org/1999/xlink">
    <path fill-rule="evenodd" stroke="#666666" stroke-width="1.5" d="M39.0466 21.8615C39.0466 12.4115 31.3693 4.75 21.8983 4.75C12.4273 4.75 4.75 12.4115 4.75 21.8615C4.75 31.3115 12.4273 38.9731 21.8983 38.9731C31.3693 38.9731 39.0466 31.3115 39.0466 21.8615Z" clip-rule="evenodd"></path>
    <path stroke="#666666" stroke-width="1.5" d="M26.9609 11.9397C28.0565 11.9397 30.1753 12.1387 30.4077 14.8879C31.4471 14.8879 34.5236 15.2933 32.8696 19.3104"></path>
    <path stroke="#666666" stroke-width="1.5" d="M24.0066 11.4483C23.5142 11.9397 21.0237 16.1606 26.4686 16.8534C29.0024 17.1758 30.0537 17.7075 30.4077 19.3103"></path>
    <path stroke="#666666" stroke-width="1.5" d="M33.8544 21.2758H10.2197V25.2069H33.8544V21.2758Z"></path>
    <path stroke="#666666" stroke-width="1.5" d="M31.2197 21.2758V25.2069"></path>
    <path stroke="#666666" stroke-width="1.5" d="M28.2197 21.2758V25.2069"></path>
    <path stroke="#666666" stroke-width="1.5" d="M9.5 10.5L33.954 34.2578"></path>
</svg>