<svg xmlns="http://www.w3.org/2000/svg" xmlns:xlink="http://www.w3.org/1999/xlink">
  
  <symbol id="bar" viewBox="0 0 24 24" fill="none" xmlns="http://www.w3.org/2000/svg">
    <path d="M7 21C6.71667 21 6.479 20.904 6.287 20.712C6.09567 20.5207 6 20.2833 6 20C6 19.7167 6.09567 19.4793 6.287 19.288C6.479 19.096 6.71667 19 7 19H11V14L3.35 5.4C3.25 5.28333 3.16667 5.13733 3.1 4.962C3.03333 4.78733 3 4.61667 3 4.45C3 4.05 3.14167 3.70833 3.425 3.425C3.70833 3.14167 4.05 3 4.45 3H19.55C19.95 3 20.2917 3.14167 20.575 3.425C20.8583 3.70833 21 4.05833 21 4.475C21 4.625 20.9667 4.78733 20.9 4.962C20.8333 5.13733 20.75 5.28333 20.65 5.4L13 14V19H17C17.2833 19 17.5207 19.096 17.712 19.288C17.904 19.4793 18 19.7167 18 20C18 20.2833 17.904 20.5207 17.712 20.712C17.5207 20.904 17.2833 21 17 21H7ZM7.45 7H16.55L18.35 5H5.65L7.45 7Z" fill="#990F40"/>
  </symbol>

  <symbol id="casino" viewBox="0 0 24 24" fill="none" xmlns="http://www.w3.org/2000/svg">
    <g clip-path="url(#clip0_16_121)">
    <path d="M23.2144 12.5434L20.8625 1.92582C20.776 1.53761 20.5391 1.19956 20.2037 0.985815C19.8683 0.77207 19.4618 0.700094 19.0734 0.785676L8.45592 3.13758C8.26359 3.18018 8.08153 3.26025 7.92014 3.37322C7.75875 3.48618 7.6212 3.62983 7.51533 3.79596C7.40946 3.96209 7.33735 4.14745 7.30312 4.34144C7.26889 4.53544 7.27321 4.73428 7.31583 4.92661L8.30119 9.37505H2.25C1.85231 9.3755 1.47104 9.53368 1.18983 9.81488C0.908625 10.0961 0.750447 10.4774 0.75 10.875V21.75C0.750447 22.1477 0.908625 22.529 1.18983 22.8102C1.47104 23.0914 1.85231 23.2496 2.25 23.25H13.125C13.5227 23.2496 13.904 23.0914 14.1852 22.8102C14.4664 22.529 14.6246 22.1477 14.625 21.75V15.9824L22.0742 14.3324C22.4624 14.246 22.8005 14.009 23.0142 13.6737C23.228 13.3383 23.2999 12.9318 23.2144 12.5434ZM13.125 21.75H2.25V10.875H8.63348L9.66769 15.5441C9.74155 15.877 9.92652 16.1748 10.1922 16.3885C10.4578 16.6023 10.7883 16.7193 11.1292 16.7203C11.2394 16.7202 11.3491 16.7081 11.4566 16.6842L13.1254 16.3146L13.1259 21.75H13.125ZM21.75 12.8678L11.1322 15.2197L8.78034 4.60205L19.398 2.25005L21.7508 12.8675L21.75 12.8678Z" fill="#990F40"/>
    <path d="M3.75 12.3749H5.625V14.2499H3.75V12.3749ZM3.75 18.3749H5.625V20.2499H3.75V18.3749ZM9.75 18.3749H11.625V20.2499H9.75V18.3749ZM6.75 15.3749H8.625V17.2499H6.75V15.3749ZM10.5682 5.74528L12.3989 5.34009L12.8041 7.17079L10.9734 7.57598L10.5682 5.74528ZM17.7247 10.3026L19.5554 9.89713L19.9609 11.7278L18.1302 12.1333L17.7247 10.3026ZM14.1471 8.02218L15.9777 7.61671L16.3831 9.44732L14.5526 9.85279L14.1471 8.02218Z" fill="#990F40"/>
    </g>
    <defs>
    <clipPath id="clip0_16_121">
    <rect width="24" height="24" fill="white"/>
    </clipPath>
    </defs>
  </symbol>

  <symbol id="evening" viewBox="0 0 24 24" fill="none" xmlns="http://www.w3.org/2000/svg">
    <path d="M22 10V6C22 5.46957 21.7893 4.96086 21.4142 4.58579C21.0391 4.21071 20.5304 4 20 4H4C3.46957 4 2.96086 4.21071 2.58579 4.58579C2.21071 4.96086 2 5.46957 2 6V10C2.53043 10 3.03914 10.2107 3.41421 10.5858C3.78929 10.9609 4 11.4696 4 12C4 12.5304 3.78929 13.0391 3.41421 13.4142C3.03914 13.7893 2.53043 14 2 14V18C2 19.1 2.9 20 4 20H20C21.1 20 22 19.1 22 18V14C20.9 14 20 13.1 20 12C20 10.9 20.9 10 22 10ZM20 8.54C18.81 9.23 18 10.53 18 12C18 13.47 18.81 14.77 20 15.46V18H4V15.46C5.19 14.77 6 13.47 6 12C6 10.5 5.2 9.23 4 8.54V6H20V8.54ZM11 15H13V17H11M11 11H13V13H11M11 7H13V9H11V7Z" fill="#990F40"/>
  </symbol>

  <symbol id="parking" viewBox="0 0 24 24" fill="none" xmlns="http://www.w3.org/2000/svg">
    <path d="M11 14H12.5C13.4283 14 14.3185 13.6313 14.9749 12.9749C15.6313 12.3185 16 11.4283 16 10.5C16 9.57174 15.6313 8.6815 14.9749 8.02513C14.3185 7.36875 13.4283 7 12.5 7H9V17H11V14ZM4 3H20C20.2652 3 20.5196 3.10536 20.7071 3.29289C20.8946 3.48043 21 3.73478 21 4V20C21 20.2652 20.8946 20.5196 20.7071 20.7071C20.5196 20.8946 20.2652 21 20 21H4C3.73478 21 3.48043 20.8946 3.29289 20.7071C3.10536 20.5196 3 20.2652 3 20V4C3 3.73478 3.10536 3.48043 3.29289 3.29289C3.48043 3.10536 3.73478 3 4 3ZM11 9H12.5C12.8978 9 13.2794 9.15804 13.5607 9.43934C13.842 9.72064 14 10.1022 14 10.5C14 10.8978 13.842 11.2794 13.5607 11.5607C13.2794 11.842 12.8978 12 12.5 12H11V9Z" fill="#990F40"/>
  </symbol>

  <symbol id="restaurant" viewBox="0 0 24 24" fill="none" xmlns="http://www.w3.org/2000/svg">
    <path d="M8.09995 13.34L10.93 10.51L3.90995 3.49996C3.1608 4.25127 2.74011 5.26897 2.74011 6.32996C2.74011 7.39095 3.1608 8.40865 3.90995 9.15996L8.09995 13.34ZM14.88 11.53C16.41 12.24 18.5599 11.74 20.15 10.15C22.0599 8.23996 22.4299 5.49996 20.9599 4.02996C19.5 2.56996 16.76 2.92996 14.84 4.83996C13.25 6.42996 12.75 8.57996 13.46 10.11L3.69995 19.87L5.10995 21.28L12 14.41L18.8799 21.29L20.29 19.88L13.41 13L14.88 11.53Z" fill="#990F40"/>
  </symbol>

  <symbol id="swimming" viewBox="0 0 24 24" fill="none" xmlns="http://www.w3.org/2000/svg">
    <path d="M6 11L10 9L13.5 12L12 14M3 16.75C3.31129 16.9048 3.65249 16.9901 4 17C4.3895 17.0082 4.77512 16.9214 5.12358 16.7472C5.47203 16.5729 5.77283 16.3165 6 16C6.22717 15.6835 6.52797 15.4271 6.87642 15.2528C7.22488 15.0786 7.6105 14.9918 8 15C8.3895 14.9918 8.77512 15.0786 9.12358 15.2528C9.47203 15.4271 9.77283 15.6835 10 16C10.2272 16.3165 10.528 16.5729 10.8764 16.7472C11.2249 16.9214 11.6105 17.0082 12 17C12.3895 17.0082 12.7751 16.9214 13.1236 16.7472C13.472 16.5729 13.7728 16.3165 14 16C14.2272 15.6835 14.528 15.4271 14.8764 15.2528C15.2249 15.0786 15.6105 14.9918 16 15C16.3895 14.9918 16.7751 15.0786 17.1236 15.2528C17.472 15.4271 17.7728 15.6835 18 16C18.2272 16.3165 18.528 16.5729 18.8764 16.7472C19.2249 16.9214 19.6105 17.0082 20 17C20.3475 16.9901 20.6887 16.9048 21 16.75M15 9C15 9.26522 15.1054 9.51957 15.2929 9.70711C15.4804 9.89464 15.7348 10 16 10C16.2652 10 16.5196 9.89464 16.7071 9.70711C16.8946 9.51957 17 9.26522 17 9C17 8.73478 16.8946 8.48043 16.7071 8.29289C16.5196 8.10536 16.2652 8 16 8C15.7348 8 15.4804 8.10536 15.2929 8.29289C15.1054 8.48043 15 8.73478 15 9Z" stroke="#990F40" stroke-width="2" stroke-linecap="round" stroke-linejoin="round"/>
  </symbol>

  <symbol id="wifi" viewBox="0 0 24 24" fill="none" xmlns="http://www.w3.org/2000/svg">
    <path d="M5.3 14.275C5 13.975 4.85833 13.6167 4.875 13.2C4.89167 12.7833 5.05833 12.4583 5.375 12.225C6.29167 11.525 7.31267 10.979 8.438 10.587C9.56267 10.1957 10.75 10 12 10C13.2667 10 14.4627 10.2 15.588 10.6C16.7127 11 17.7333 11.5583 18.65 12.275C18.9667 12.5083 19.1293 12.8293 19.138 13.238C19.146 13.646 19 14 18.7 14.3C18.4167 14.5833 18.071 14.7293 17.663 14.738C17.2543 14.746 16.875 14.6333 16.525 14.4C15.875 13.95 15.171 13.6043 14.413 13.363C13.6543 13.121 12.85 13 12 13C11.15 13 10.346 13.125 9.588 13.375C8.82933 13.625 8.13333 13.9667 7.5 14.4C7.13333 14.65 6.746 14.7627 6.338 14.738C5.92933 14.7127 5.58333 14.5583 5.3 14.275ZM1.05 10.05C0.766667 9.76667 0.625 9.42067 0.625 9.012C0.625 8.604 0.775 8.26667 1.075 8C2.55833 6.75 4.225 5.77067 6.075 5.062C7.925 4.354 9.9 4 12 4C14.1 4 16.075 4.354 17.925 5.062C19.775 5.77067 21.4417 6.75 22.925 8C23.225 8.26667 23.3793 8.6 23.388 9C23.396 9.4 23.25 9.75 22.95 10.05C22.6667 10.3333 22.321 10.4833 21.913 10.5C21.5043 10.5167 21.1333 10.3917 20.8 10.125C19.5833 9.14167 18.2293 8.375 16.738 7.825C15.246 7.275 13.6667 7 12 7C10.3333 7 8.75433 7.275 7.263 7.825C5.771 8.375 4.41667 9.14167 3.2 10.125C2.86667 10.3917 2.496 10.5167 2.088 10.5C1.67933 10.4833 1.33333 10.3333 1.05 10.05ZM12 20C11.4333 20 10.9583 19.8083 10.575 19.425C10.1917 19.0417 10 18.5667 10 18C10 17.4333 10.1917 16.9583 10.575 16.575C10.9583 16.1917 11.4333 16 12 16C12.5667 16 13.0417 16.1917 13.425 16.575C13.8083 16.9583 14 17.4333 14 18C14 18.5667 13.8083 19.0417 13.425 19.425C13.0417 19.8083 12.5667 20 12 20Z" fill="#990F40"/>
  </symbol>

  <symbol id="star" viewBox="0 0 20 19" fill="none" xmlns="http://www.w3.org/2000/svg">
    <path d="M9.04894 0.927052C9.3483 0.00574112 10.6517 0.00573993 10.9511 0.927051L12.4697 5.60081C12.6035 6.01284 12.9875 6.2918 13.4207 6.2918H18.335C19.3037 6.2918 19.7065 7.53141 18.9228 8.10081L14.947 10.9894C14.5966 11.244 14.4499 11.6954 14.5838 12.1074L16.1024 16.7812C16.4017 17.7025 15.3472 18.4686 14.5635 17.8992L10.5878 15.0106C10.2373 14.756 9.7627 14.756 9.41221 15.0106L5.43648 17.8992C4.65276 18.4686 3.59828 17.7025 3.89763 16.7812L5.41623 12.1074C5.55011 11.6954 5.40345 11.244 5.05296 10.9894L1.07722 8.10081C0.293507 7.53141 0.696283 6.2918 1.66501 6.2918H6.57929C7.01252 6.2918 7.39647 6.01284 7.53035 5.60081L9.04894 0.927052Z" fill="#990F40"/>
  </symbol>

  <symbol id="star-no-fill" viewBox="0 0 20 19" fill="none" xmlns="http://www.w3.org/2000/svg">
    <path opacity="0.5" d="M9.04894 0.927052C9.3483 0.00574112 10.6517 0.00573993 10.9511 0.927051L12.4697 5.60081C12.6035 6.01284 12.9875 6.2918 13.4207 6.2918H18.335C19.3037 6.2918 19.7065 7.53141 18.9228 8.10081L14.947 10.9894C14.5966 11.244 14.4499 11.6954 14.5838 12.1074L16.1024 16.7812C16.4017 17.7025 15.3472 18.4686 14.5635 17.8992L10.5878 15.0106C10.2373 14.756 9.7627 14.756 9.41221 15.0106L5.43648 17.8992C4.65276 18.4686 3.59828 17.7025 3.89763 16.7812L5.41623 12.1074C5.55011 11.6954 5.40345 11.244 5.05296 10.9894L1.07722 8.10081C0.293507 7.53141 0.696283 6.2918 1.66501 6.2918H6.57929C7.01252 6.2918 7.39647 6.01284 7.53035 5.60081L9.04894 0.927052Z" fill="#990F40"/>
  </symbol>

</svg>
