<?xml version="1.0" encoding="iso-8859-1"?>
<!-- Generator: Adobe Illustrator 19.0.0, SVG Export Plug-In . SVG Version: 6.00 Build 0)  -->
<svg version="1.1" id="Capa_1" xmlns="http://www.w3.org/2000/svg" xmlns:xlink="http://www.w3.org/1999/xlink" x="0px" y="0px"
	 viewBox="0 0 512 512" style="enable-background:new 0 0 512 512;" xml:space="preserve">
<g>
	<g>
		<path d="M483.592,470.667L448.74,367.955c-3.209-9.427-13.467-14.516-22.931-11.298l-51.356,17.435
			c-9.427,3.209-14.498,13.494-11.298,22.93l3.299,9.707h-33.795v-27.115h-27.115v-72.307h-18.077V126.538h63.269V99.423h36.154
			v27.115c0,9.969,8.107,18.077,18.077,18.077h54.231c9.969,0,18.077-8.107,18.077-18.077V18.077C477.274,8.107,469.167,0,459.197,0
			h-54.231c-9.969,0-18.077,8.107-18.077,18.077v27.115h-36.154V18.077H169.968v27.115h-36.154V18.077
			C133.814,8.107,125.706,0,115.737,0H61.507C51.537,0,43.43,8.107,43.43,18.077v108.461c0,9.969,8.107,18.077,18.077,18.077h54.231
			c9.969,0,18.077-8.107,18.077-18.077V99.423h36.154v27.115h63.269v180.769H215.16v72.307h-27.115v27.115h-60.901l-13.16-38.766
			c-1.546-4.573-4.79-8.261-9.12-10.394c-4.329-2.124-9.228-2.449-13.802-0.913l-51.356,17.435
			c-9.436,3.209-14.507,13.494-11.298,22.93l34.861,102.704c1.546,4.573,4.79,8.261,9.12,10.394c2.522,1.247,5.242,1.88,7.981,1.88
			c1.952,0,3.923-0.325,5.83-0.967l51.356-17.435c9.436-3.209,14.507-13.494,11.298-22.93l-3.308-9.707h42.499v27.115h144.615
			V460.96h52.206l13.16,38.766c1.546,4.573,4.79,8.261,9.12,10.394c2.522,1.247,5.242,1.871,7.972,1.871
			c1.961,0,3.923-0.316,5.83-0.958l51.347-17.435C481.73,490.389,486.801,480.103,483.592,470.667z M441.112,18.077h18.077v5.297
			L441.112,41.45V18.077z M441.112,67.011l18.077-18.077l0.009,19.622l-18.086,18.086V67.011z M441.112,112.203l18.086-18.086
			v32.421h-18.086V112.203z M404.958,18.077h18.077V41.45l-18.077-18.077V18.077z M404.958,48.934l18.077,18.077v19.631
			l-18.077-18.077V48.934z M404.958,99.423v-5.297l18.077,18.077v14.335h-18.077V99.423z M97.651,18.077h18.077v5.297L97.651,41.45
			V18.077z M97.651,67.011l18.077-18.077v19.631L97.651,86.642V67.011z M79.574,126.538H61.497V94.126l18.077,18.077V126.538z
			 M79.574,86.642L61.497,68.566V48.934l18.077,18.077V86.642z M79.574,41.45L61.497,23.373v-5.297h18.077V41.45z M97.651,126.538
			v-14.335l18.077-18.077v5.297h0.009l0.009,27.115H97.651z M169.959,81.346h-36.154V63.269h36.154V81.346z M96.865,373.775
			l1.699,5.016l-11.307,22.93l-7.511-22.135L96.865,373.775z M45.508,391.21l17.119-5.812l7.511,22.135l-22.931-11.307
			L45.508,391.21z M61.741,439.024l-6.318-18.601l22.931,11.307l6.318,18.601L61.741,439.024z M80.37,493.914L69.948,463.22
			l22.93,11.307l4.61,13.576L80.37,493.914z M95.473,425.927l11.307-22.931l6.309,18.583l-11.307,22.931L95.473,425.927z
			 M114.607,482.291l-4.61-13.576l11.316-22.94l10.421,30.694L114.607,482.291z M188.036,442.883h-48.627l-6.137-18.077h54.764
			V442.883z M431.63,373.775l1.699,5.007l-11.307,22.94l-7.511-22.135L431.63,373.775z M350.727,63.269h36.154v18.077h-36.154
			V63.269z M233.228,108.461h-45.192V36.154H332.65v72.307h-45.192H233.228z M269.381,126.538v180.769h-18.077V126.538H269.381z
			 M233.228,325.384h54.231v54.231h-54.231V325.384z M314.574,469.998H206.112v-72.307h9.038h90.384h9.038V469.998z M332.65,442.883
			v-18.077h39.932l6.137,18.077H332.65z M381.973,396.227l-1.699-5.007l17.119-5.821l7.511,22.135L381.973,396.227z
			 M396.489,439.024l-6.309-18.601l22.93,11.307l6.309,18.601L396.489,439.024z M415.135,493.914l-10.421-30.695l22.93,11.307
			l4.61,13.576L415.135,493.914z M430.229,425.927l11.316-22.94l6.309,18.583l-11.316,22.949L430.229,425.927z M449.364,482.291
			l-4.601-13.567l11.316-22.94l10.421,30.694L449.364,482.291z"/>
	</g>
</g>
<g>
</g>
<g>
</g>
<g>
</g>
<g>
</g>
<g>
</g>
<g>
</g>
<g>
</g>
<g>
</g>
<g>
</g>
<g>
</g>
<g>
</g>
<g>
</g>
<g>
</g>
<g>
</g>
<g>
</g>
</svg>
