<svg width="70" height="70" viewBox="0 0 70 70" fill="none" xmlns="http://www.w3.org/2000/svg">
<path d="M63.4375 57.9688H38.2812V60.1562H17.7581L15.5706 59.0625H5.46875V67.8125H15.5706L17.7581 66.7188H38.2812V68.9062H63.4375C66.453 68.9062 68.9062 66.453 68.9062 63.4375C68.9062 60.422 66.453 57.9688 63.4375 57.9688ZM17.2419 64.5312L15.0544 65.625H7.65625V61.25H15.0544L17.2419 62.3438H38.2812V64.5312H17.2419ZM40.4688 60.1562H57.9688V66.7188H44.8438V62.3438H42.6562V66.7188H40.4688V60.1562ZM63.4375 66.7188H60.1562V60.1562H63.4375C65.2466 60.1562 66.7188 61.6284 66.7188 63.4375C66.7188 65.2466 65.2466 66.7188 63.4375 66.7188Z" fill="#EB6441"/>
<path d="M49.8914 14.2188C50.8419 14.2188 51.7573 14.6497 52.4026 15.4011C54.1461 17.43 56.7164 18.5938 59.4552 18.5938C62.9486 18.5938 66.1839 16.6392 67.6976 13.6139L68.4884 12.0312H60.7414L59.2834 9.84375L60.7414 7.65625H68.4884L67.6966 6.07359C66.1839 3.04828 62.9486 1.09375 59.4552 1.09375C56.7175 1.09375 54.1461 2.2575 52.4026 4.28641C51.7573 5.03781 50.8419 5.46875 49.8914 5.46875H5.46875C3.05594 5.46875 1.09375 7.43094 1.09375 9.84375C1.09375 12.2566 3.05594 14.2188 5.46875 14.2188H49.8914ZM3.28125 9.84375C3.28125 8.63734 4.26234 7.65625 5.46875 7.65625H49.8914C51.4806 7.65625 53.0009 6.94859 54.0619 5.71266C55.3897 4.16719 57.3552 3.28125 59.4552 3.28125C61.4458 3.28125 63.3237 4.10266 64.6253 5.46875H59.5711L56.6541 9.84375L59.5711 14.2188H64.6253C63.3237 15.5848 61.4469 16.4062 59.4552 16.4062C57.3552 16.4062 55.3897 15.5203 54.0619 13.9748C53.0009 12.7389 51.4806 12.0312 49.8914 12.0312H5.46875C4.26234 12.0312 3.28125 11.0502 3.28125 9.84375Z" fill="#EB6441"/>
<path d="M25.1562 36.0938C25.1562 30.6666 29.5728 26.25 35 26.25C37.3002 26.25 39.538 27.0616 41.3033 28.5359L42.7055 26.857C40.5475 25.0556 37.8109 24.0625 35 24.0625C28.3664 24.0625 22.9688 29.4602 22.9688 36.0938C22.9688 38.9047 23.9619 41.6412 25.7633 43.7992L27.4422 42.397C25.9678 40.6317 25.1562 38.3939 25.1562 36.0938Z" fill="#EB6441"/>
<path d="M42.5578 29.7906C44.0322 31.557 44.8437 33.7948 44.8437 36.0939C44.8437 41.5211 40.4272 45.9377 35 45.9377C32.6998 45.9377 30.462 45.1261 28.6967 43.6517L27.2945 45.3306C29.4525 47.132 32.189 48.1252 35 48.1252C41.6336 48.1252 47.0312 42.7275 47.0312 36.0939C47.0312 33.283 46.0392 30.5464 44.2367 28.3884L42.5578 29.7906Z" fill="#EB6441"/>
<path d="M54.6875 40.2719V31.9156L51.8295 31.3436C51.4577 30.0234 50.9305 28.7536 50.2567 27.5548L51.8744 25.1267L45.9659 19.2183L43.5378 20.8359C42.3391 20.1633 41.0692 19.6361 39.7491 19.2631L39.1781 16.4062H30.8219L30.2498 19.2642C28.9297 19.6361 27.6598 20.1633 26.4611 20.837L24.033 19.2194L18.1245 25.1278L19.7422 27.5559C19.0695 28.7547 18.5423 30.0245 18.1694 31.3447L15.3125 31.9156V40.2719L18.1705 40.8439C18.5423 42.1641 19.0695 43.4339 19.7433 44.6327L18.1256 47.0608L24.0341 52.9692L26.4622 51.3516C27.6609 52.0242 28.9308 52.5514 30.2509 52.9244L30.8219 55.7812H39.1781L39.7502 52.9233C41.0703 52.5514 42.3402 52.0242 43.5389 51.3505L45.967 52.9681L51.8755 47.0597L50.2578 44.6316C50.9305 43.4328 51.4577 42.163 51.8306 40.8428L54.6875 40.2719ZM50.0412 38.9703L49.8794 39.6517C49.5053 41.2223 48.8841 42.7175 48.0353 44.0956L47.6678 44.6928L49.0602 46.7819L45.6881 50.1539L43.5991 48.7616L43.0019 49.1291C41.6227 49.9778 40.1275 50.5991 38.558 50.9731L37.8766 51.135L37.3844 53.5938H32.6156L32.1234 51.135L31.442 50.9731C29.8714 50.5991 28.3763 49.9778 26.9981 49.1291L26.4009 48.7616L24.3119 50.1539L20.9398 46.7819L22.3322 44.6928L21.9647 44.0956C21.1159 42.7164 20.4947 41.2212 20.1206 39.6517L19.9587 38.9703L17.5 38.4781V33.7094L19.9587 33.2172L20.1206 32.5358C20.4947 30.9652 21.1159 29.47 21.9647 28.0919L22.3322 27.4947L20.9398 25.4056L24.3119 22.0336L26.4009 23.4259L26.9981 23.0584C28.3773 22.2097 29.8725 21.5884 31.442 21.2144L32.1234 21.0525L32.6156 18.5938H37.3844L37.8766 21.0525L38.558 21.2144C40.1286 21.5884 41.6238 22.2097 43.0019 23.0584L43.5991 23.4259L45.6881 22.0336L49.0602 25.4056L47.6678 27.4947L48.0353 28.0919C48.8841 29.4711 49.5053 30.9662 49.8794 32.5358L50.0412 33.2172L52.5 33.7094V38.4781L50.0412 38.9703Z" fill="#EB6441"/>
<path d="M65.625 26.25C65.625 23.2345 63.1717 20.7812 60.1563 20.7812C57.1408 20.7812 54.6875 23.2345 54.6875 26.25C54.6875 29.2655 57.1408 31.7188 60.1563 31.7188C60.4002 31.7188 60.6321 31.6783 60.8672 31.6466C61.1166 33.11 61.25 34.6008 61.25 36.0938C61.25 43.2873 58.3975 49.9997 53.2164 54.9948L54.7346 56.5688C60.3466 51.1591 63.4375 43.8867 63.4375 36.0938C63.4375 34.3569 63.2713 32.62 62.9596 30.9203C64.5488 29.9633 65.625 28.2373 65.625 26.25ZM60.1563 29.5312C58.3472 29.5312 56.875 28.0591 56.875 26.25C56.875 24.4409 58.3472 22.9688 60.1563 22.9688C61.9653 22.9688 63.4375 24.4409 63.4375 26.25C63.4375 28.0591 61.9653 29.5312 60.1563 29.5312Z" fill="#EB6441"/>
<path d="M13.125 56.8749C16.1405 56.8749 18.5938 54.4216 18.5938 51.4061C18.5938 48.3906 16.1405 45.9374 13.125 45.9374C12.3189 45.9374 11.5598 46.1233 10.8697 46.4372C9.46531 43.1724 8.75 39.6997 8.75 36.0936C8.75 29.4491 11.2372 23.1108 15.7533 18.2436L14.1498 16.7561C9.25641 22.028 6.5625 28.8956 6.5625 36.0936C6.5625 40.1722 7.41344 44.0933 9.07375 47.7661C8.20203 48.7352 7.65625 50.0039 7.65625 51.4061C7.65625 54.4216 10.1095 56.8749 13.125 56.8749ZM16.4062 51.4061C16.4062 53.2152 14.9341 54.6874 13.125 54.6874C11.3159 54.6874 9.84375 53.2152 9.84375 51.4061C9.84375 49.597 11.3159 48.1249 13.125 48.1249C14.9341 48.1249 16.4062 49.597 16.4062 51.4061Z" fill="#EB6441"/>
</svg>
