<svg width="70" height="70" viewBox="0 0 70 70" fill="none" xmlns="http://www.w3.org/2000/svg">
<g clip-path="url(#clip0)">
<mask id="path-1-outside-1" maskUnits="userSpaceOnUse" x="0.0948486" y="-1" width="69" height="72" fill="black">
<rect fill="white" x="0.0948486" y="-1" width="69" height="72"/>
<path d="M66.6627 41.0011H65.6152V31.5654C65.6152 30.0717 64.8717 28.749 63.7362 27.9454V26.6607C63.7362 24.7971 62.2202 23.281 60.3565 23.281H59.5744L62.567 18.8896C63.5701 17.4177 63.1887 15.4039 61.7168 14.4007L41.4098 0.562016C40.6968 0.0759808 39.8374 -0.103394 38.9892 0.0575238C38.1414 0.218168 37.4068 0.699282 36.9209 1.41241L19.3934 27.1323H14.516L15.6927 15.22C15.706 15.0858 15.7932 14.9694 15.9149 14.9236C17.431 14.352 18.7448 13.2845 19.6144 11.9179C19.6829 11.8103 19.8121 11.7488 19.9458 11.7623L27.5959 12.5181C28.1444 12.5713 28.6323 12.1718 28.6865 11.6235C28.7406 11.0753 28.3402 10.5871 27.7919 10.5329L20.1418 9.77713C19.2538 9.69018 18.407 10.0994 17.9312 10.847C17.2919 11.8518 16.3259 12.6366 15.2112 13.0569C14.3722 13.3732 13.796 14.1268 13.7074 15.0239L12.5114 27.1322H11.2395L13.1005 8.29182C13.1675 7.61369 13.7728 7.11549 14.4517 7.18344L29.9111 8.71059C30.4593 8.7635 30.9475 8.36428 31.0017 7.81604C31.0558 7.2678 30.6554 6.77957 30.1071 6.72543L14.6478 5.19828C12.8754 5.02342 11.2904 6.32293 11.1152 8.09563L9.61516 23.281H7.06057C5.19709 23.281 3.68088 24.7971 3.68088 26.6607V27.537C2.15633 28.2389 1.09485 29.78 1.09485 31.5654V65.5667C1.09485 68.0112 3.08356 70 5.52823 70H61.1819C63.6265 70 65.6152 68.0112 65.6152 65.5667V56.1312H66.6627C67.8992 56.1312 68.905 55.1254 68.905 53.889V43.2434C68.9052 42.0069 67.8992 41.0011 66.6627 41.0011ZM60.3565 25.276C61.1203 25.2758 61.7414 25.8971 61.7414 26.6608V27.169C61.5579 27.1457 61.3716 27.1325 61.1819 27.1325H56.9498L58.2148 25.276H60.3565ZM38.5693 2.53569C38.7553 2.26293 39.0362 2.07891 39.3605 2.01739C39.438 2.00276 39.5158 1.99538 39.5931 1.99538C39.8388 1.99538 40.0788 2.06893 40.2864 2.2103L60.5933 16.049C61.1564 16.4327 61.3024 17.203 60.9187 17.766L54.5359 27.1321H53.0041L56.1334 22.5401C56.6409 21.7954 56.6828 20.8477 56.2423 20.0666C55.6568 19.0289 55.4195 17.807 55.574 16.6259C55.6888 15.7472 55.3022 14.8895 54.565 14.3872L44.0379 7.21325C43.3006 6.7108 42.3608 6.66473 41.5851 7.09307C40.5426 7.66866 39.3185 7.89465 38.1387 7.7295C37.2637 7.60672 36.3762 8.00184 35.8762 8.73534L23.3393 27.1322H21.8075L38.5693 2.53569ZM39.0086 19.4739C34.6649 19.4739 31.0993 22.8608 30.8088 27.1322H25.753L37.5244 9.85875C37.5245 9.85875 37.5245 9.85875 37.5245 9.85875C37.5914 9.76045 37.7023 9.70194 37.8161 9.70194C37.8313 9.70194 37.8465 9.70303 37.8617 9.70508C39.4665 9.92957 41.131 9.6225 42.5491 8.83952C42.6606 8.77772 42.8039 8.7866 42.9144 8.8618L53.4416 16.0358C53.5518 16.111 53.6123 16.2412 53.5959 16.3675C53.3858 17.9738 53.7087 19.6355 54.5048 21.0467C54.5687 21.1601 54.5609 21.3053 54.4852 21.4167L50.5903 27.1321H47.2089C46.9181 22.8608 43.3526 19.4739 39.0086 19.4739ZM45.2085 27.1323H32.8088C33.0946 23.962 35.7652 21.4689 39.0086 21.4689C42.2521 21.4688 44.9229 23.962 45.2085 27.1323ZM5.67575 26.6607C5.67575 25.897 6.29686 25.2757 7.06057 25.2757H9.41815L9.23481 27.1322H5.67575V26.6607ZM3.08971 31.5654C3.08971 30.221 4.1836 29.1271 5.52823 29.1271H61.1819C62.5266 29.1271 63.6203 30.221 63.6203 31.5654V34.3332H3.08971V31.5654ZM63.6203 65.5667C63.6203 66.9112 62.5266 68.0051 61.1819 68.0051H5.52823C4.1836 68.0051 3.08971 66.9112 3.08971 65.5667V62.799H8.4685C9.01948 62.799 9.46586 62.3525 9.46586 61.8016C9.46586 61.2508 9.01934 60.8043 8.4685 60.8043H3.08971V36.328H63.6203V41.0011H54.1367H54.1365C51.1484 41.0011 48.56 42.7429 47.3316 45.2641C47.3275 45.2726 47.3229 45.2808 47.3186 45.2893C47.3082 45.3107 47.2992 45.333 47.2891 45.3546C47.1428 45.6654 47.0157 45.9871 46.9122 46.319C46.9119 46.32 46.9116 46.3208 46.9114 46.3218C46.6906 47.0312 46.5715 47.7849 46.5715 48.5662C46.5715 52.7376 49.9651 56.1312 54.1364 56.1312H54.1365H63.6202V60.8043H14.8552C14.3042 60.8043 13.8578 61.2508 13.8578 61.8016C13.8578 62.3525 14.3043 62.799 14.8552 62.799H63.6203V65.5667ZM66.9103 53.8889C66.9103 54.0253 66.7993 54.1363 66.6627 54.1363H54.1368C52.0252 54.1363 50.1841 52.9552 49.2398 51.219C49.1969 51.1402 49.1559 51.06 49.1166 50.979C49.0383 50.8167 48.9676 50.65 48.9051 50.4794C48.6861 49.8825 48.5666 49.238 48.5666 48.5662C48.5666 47.8943 48.6862 47.2498 48.9051 46.6529C48.9677 46.4824 49.0384 46.3158 49.1166 46.1533C49.1559 46.0723 49.1969 45.9921 49.2398 45.9133C50.1841 44.1771 52.0252 42.996 54.1368 42.996H66.6627C66.7991 42.996 66.9103 43.107 66.9103 43.2434V53.8889Z"/>
</mask>
<path d="M66.6627 41.0011H65.6152V31.5654C65.6152 30.0717 64.8717 28.749 63.7362 27.9454V26.6607C63.7362 24.7971 62.2202 23.281 60.3565 23.281H59.5744L62.567 18.8896C63.5701 17.4177 63.1887 15.4039 61.7168 14.4007L41.4098 0.562016C40.6968 0.0759808 39.8374 -0.103394 38.9892 0.0575238C38.1414 0.218168 37.4068 0.699282 36.9209 1.41241L19.3934 27.1323H14.516L15.6927 15.22C15.706 15.0858 15.7932 14.9694 15.9149 14.9236C17.431 14.352 18.7448 13.2845 19.6144 11.9179C19.6829 11.8103 19.8121 11.7488 19.9458 11.7623L27.5959 12.5181C28.1444 12.5713 28.6323 12.1718 28.6865 11.6235C28.7406 11.0753 28.3402 10.5871 27.7919 10.5329L20.1418 9.77713C19.2538 9.69018 18.407 10.0994 17.9312 10.847C17.2919 11.8518 16.3259 12.6366 15.2112 13.0569C14.3722 13.3732 13.796 14.1268 13.7074 15.0239L12.5114 27.1322H11.2395L13.1005 8.29182C13.1675 7.61369 13.7728 7.11549 14.4517 7.18344L29.9111 8.71059C30.4593 8.7635 30.9475 8.36428 31.0017 7.81604C31.0558 7.2678 30.6554 6.77957 30.1071 6.72543L14.6478 5.19828C12.8754 5.02342 11.2904 6.32293 11.1152 8.09563L9.61516 23.281H7.06057C5.19709 23.281 3.68088 24.7971 3.68088 26.6607V27.537C2.15633 28.2389 1.09485 29.78 1.09485 31.5654V65.5667C1.09485 68.0112 3.08356 70 5.52823 70H61.1819C63.6265 70 65.6152 68.0112 65.6152 65.5667V56.1312H66.6627C67.8992 56.1312 68.905 55.1254 68.905 53.889V43.2434C68.9052 42.0069 67.8992 41.0011 66.6627 41.0011ZM60.3565 25.276C61.1203 25.2758 61.7414 25.8971 61.7414 26.6608V27.169C61.5579 27.1457 61.3716 27.1325 61.1819 27.1325H56.9498L58.2148 25.276H60.3565ZM38.5693 2.53569C38.7553 2.26293 39.0362 2.07891 39.3605 2.01739C39.438 2.00276 39.5158 1.99538 39.5931 1.99538C39.8388 1.99538 40.0788 2.06893 40.2864 2.2103L60.5933 16.049C61.1564 16.4327 61.3024 17.203 60.9187 17.766L54.5359 27.1321H53.0041L56.1334 22.5401C56.6409 21.7954 56.6828 20.8477 56.2423 20.0666C55.6568 19.0289 55.4195 17.807 55.574 16.6259C55.6888 15.7472 55.3022 14.8895 54.565 14.3872L44.0379 7.21325C43.3006 6.7108 42.3608 6.66473 41.5851 7.09307C40.5426 7.66866 39.3185 7.89465 38.1387 7.7295C37.2637 7.60672 36.3762 8.00184 35.8762 8.73534L23.3393 27.1322H21.8075L38.5693 2.53569ZM39.0086 19.4739C34.6649 19.4739 31.0993 22.8608 30.8088 27.1322H25.753L37.5244 9.85875C37.5245 9.85875 37.5245 9.85875 37.5245 9.85875C37.5914 9.76045 37.7023 9.70194 37.8161 9.70194C37.8313 9.70194 37.8465 9.70303 37.8617 9.70508C39.4665 9.92957 41.131 9.6225 42.5491 8.83952C42.6606 8.77772 42.8039 8.7866 42.9144 8.8618L53.4416 16.0358C53.5518 16.111 53.6123 16.2412 53.5959 16.3675C53.3858 17.9738 53.7087 19.6355 54.5048 21.0467C54.5687 21.1601 54.5609 21.3053 54.4852 21.4167L50.5903 27.1321H47.2089C46.9181 22.8608 43.3526 19.4739 39.0086 19.4739ZM45.2085 27.1323H32.8088C33.0946 23.962 35.7652 21.4689 39.0086 21.4689C42.2521 21.4688 44.9229 23.962 45.2085 27.1323ZM5.67575 26.6607C5.67575 25.897 6.29686 25.2757 7.06057 25.2757H9.41815L9.23481 27.1322H5.67575V26.6607ZM3.08971 31.5654C3.08971 30.221 4.1836 29.1271 5.52823 29.1271H61.1819C62.5266 29.1271 63.6203 30.221 63.6203 31.5654V34.3332H3.08971V31.5654ZM63.6203 65.5667C63.6203 66.9112 62.5266 68.0051 61.1819 68.0051H5.52823C4.1836 68.0051 3.08971 66.9112 3.08971 65.5667V62.799H8.4685C9.01948 62.799 9.46586 62.3525 9.46586 61.8016C9.46586 61.2508 9.01934 60.8043 8.4685 60.8043H3.08971V36.328H63.6203V41.0011H54.1367H54.1365C51.1484 41.0011 48.56 42.7429 47.3316 45.2641C47.3275 45.2726 47.3229 45.2808 47.3186 45.2893C47.3082 45.3107 47.2992 45.333 47.2891 45.3546C47.1428 45.6654 47.0157 45.9871 46.9122 46.319C46.9119 46.32 46.9116 46.3208 46.9114 46.3218C46.6906 47.0312 46.5715 47.7849 46.5715 48.5662C46.5715 52.7376 49.9651 56.1312 54.1364 56.1312H54.1365H63.6202V60.8043H14.8552C14.3042 60.8043 13.8578 61.2508 13.8578 61.8016C13.8578 62.3525 14.3043 62.799 14.8552 62.799H63.6203V65.5667ZM66.9103 53.8889C66.9103 54.0253 66.7993 54.1363 66.6627 54.1363H54.1368C52.0252 54.1363 50.1841 52.9552 49.2398 51.219C49.1969 51.1402 49.1559 51.06 49.1166 50.979C49.0383 50.8167 48.9676 50.65 48.9051 50.4794C48.6861 49.8825 48.5666 49.238 48.5666 48.5662C48.5666 47.8943 48.6862 47.2498 48.9051 46.6529C48.9677 46.4824 49.0384 46.3158 49.1166 46.1533C49.1559 46.0723 49.1969 45.9921 49.2398 45.9133C50.1841 44.1771 52.0252 42.996 54.1368 42.996H66.6627C66.7991 42.996 66.9103 43.107 66.9103 43.2434V53.8889Z" fill="#EB6441"/>
<path d="M66.6627 41.0011H65.6152V31.5654C65.6152 30.0717 64.8717 28.749 63.7362 27.9454V26.6607C63.7362 24.7971 62.2202 23.281 60.3565 23.281H59.5744L62.567 18.8896C63.5701 17.4177 63.1887 15.4039 61.7168 14.4007L41.4098 0.562016C40.6968 0.0759808 39.8374 -0.103394 38.9892 0.0575238C38.1414 0.218168 37.4068 0.699282 36.9209 1.41241L19.3934 27.1323H14.516L15.6927 15.22C15.706 15.0858 15.7932 14.9694 15.9149 14.9236C17.431 14.352 18.7448 13.2845 19.6144 11.9179C19.6829 11.8103 19.8121 11.7488 19.9458 11.7623L27.5959 12.5181C28.1444 12.5713 28.6323 12.1718 28.6865 11.6235C28.7406 11.0753 28.3402 10.5871 27.7919 10.5329L20.1418 9.77713C19.2538 9.69018 18.407 10.0994 17.9312 10.847C17.2919 11.8518 16.3259 12.6366 15.2112 13.0569C14.3722 13.3732 13.796 14.1268 13.7074 15.0239L12.5114 27.1322H11.2395L13.1005 8.29182C13.1675 7.61369 13.7728 7.11549 14.4517 7.18344L29.9111 8.71059C30.4593 8.7635 30.9475 8.36428 31.0017 7.81604C31.0558 7.2678 30.6554 6.77957 30.1071 6.72543L14.6478 5.19828C12.8754 5.02342 11.2904 6.32293 11.1152 8.09563L9.61516 23.281H7.06057C5.19709 23.281 3.68088 24.7971 3.68088 26.6607V27.537C2.15633 28.2389 1.09485 29.78 1.09485 31.5654V65.5667C1.09485 68.0112 3.08356 70 5.52823 70H61.1819C63.6265 70 65.6152 68.0112 65.6152 65.5667V56.1312H66.6627C67.8992 56.1312 68.905 55.1254 68.905 53.889V43.2434C68.9052 42.0069 67.8992 41.0011 66.6627 41.0011ZM60.3565 25.276C61.1203 25.2758 61.7414 25.8971 61.7414 26.6608V27.169C61.5579 27.1457 61.3716 27.1325 61.1819 27.1325H56.9498L58.2148 25.276H60.3565ZM38.5693 2.53569C38.7553 2.26293 39.0362 2.07891 39.3605 2.01739C39.438 2.00276 39.5158 1.99538 39.5931 1.99538C39.8388 1.99538 40.0788 2.06893 40.2864 2.2103L60.5933 16.049C61.1564 16.4327 61.3024 17.203 60.9187 17.766L54.5359 27.1321H53.0041L56.1334 22.5401C56.6409 21.7954 56.6828 20.8477 56.2423 20.0666C55.6568 19.0289 55.4195 17.807 55.574 16.6259C55.6888 15.7472 55.3022 14.8895 54.565 14.3872L44.0379 7.21325C43.3006 6.7108 42.3608 6.66473 41.5851 7.09307C40.5426 7.66866 39.3185 7.89465 38.1387 7.7295C37.2637 7.60672 36.3762 8.00184 35.8762 8.73534L23.3393 27.1322H21.8075L38.5693 2.53569ZM39.0086 19.4739C34.6649 19.4739 31.0993 22.8608 30.8088 27.1322H25.753L37.5244 9.85875C37.5245 9.85875 37.5245 9.85875 37.5245 9.85875C37.5914 9.76045 37.7023 9.70194 37.8161 9.70194C37.8313 9.70194 37.8465 9.70303 37.8617 9.70508C39.4665 9.92957 41.131 9.6225 42.5491 8.83952C42.6606 8.77772 42.8039 8.7866 42.9144 8.8618L53.4416 16.0358C53.5518 16.111 53.6123 16.2412 53.5959 16.3675C53.3858 17.9738 53.7087 19.6355 54.5048 21.0467C54.5687 21.1601 54.5609 21.3053 54.4852 21.4167L50.5903 27.1321H47.2089C46.9181 22.8608 43.3526 19.4739 39.0086 19.4739ZM45.2085 27.1323H32.8088C33.0946 23.962 35.7652 21.4689 39.0086 21.4689C42.2521 21.4688 44.9229 23.962 45.2085 27.1323ZM5.67575 26.6607C5.67575 25.897 6.29686 25.2757 7.06057 25.2757H9.41815L9.23481 27.1322H5.67575V26.6607ZM3.08971 31.5654C3.08971 30.221 4.1836 29.1271 5.52823 29.1271H61.1819C62.5266 29.1271 63.6203 30.221 63.6203 31.5654V34.3332H3.08971V31.5654ZM63.6203 65.5667C63.6203 66.9112 62.5266 68.0051 61.1819 68.0051H5.52823C4.1836 68.0051 3.08971 66.9112 3.08971 65.5667V62.799H8.4685C9.01948 62.799 9.46586 62.3525 9.46586 61.8016C9.46586 61.2508 9.01934 60.8043 8.4685 60.8043H3.08971V36.328H63.6203V41.0011H54.1367H54.1365C51.1484 41.0011 48.56 42.7429 47.3316 45.2641C47.3275 45.2726 47.3229 45.2808 47.3186 45.2893C47.3082 45.3107 47.2992 45.333 47.2891 45.3546C47.1428 45.6654 47.0157 45.9871 46.9122 46.319C46.9119 46.32 46.9116 46.3208 46.9114 46.3218C46.6906 47.0312 46.5715 47.7849 46.5715 48.5662C46.5715 52.7376 49.9651 56.1312 54.1364 56.1312H54.1365H63.6202V60.8043H14.8552C14.3042 60.8043 13.8578 61.2508 13.8578 61.8016C13.8578 62.3525 14.3043 62.799 14.8552 62.799H63.6203V65.5667ZM66.9103 53.8889C66.9103 54.0253 66.7993 54.1363 66.6627 54.1363H54.1368C52.0252 54.1363 50.1841 52.9552 49.2398 51.219C49.1969 51.1402 49.1559 51.06 49.1166 50.979C49.0383 50.8167 48.9676 50.65 48.9051 50.4794C48.6861 49.8825 48.5666 49.238 48.5666 48.5662C48.5666 47.8943 48.6862 47.2498 48.9051 46.6529C48.9677 46.4824 49.0384 46.3158 49.1166 46.1533C49.1559 46.0723 49.1969 45.9921 49.2398 45.9133C50.1841 44.1771 52.0252 42.996 54.1368 42.996H66.6627C66.7991 42.996 66.9103 43.107 66.9103 43.2434V53.8889Z" stroke="#EB6441" stroke-width="0.2" mask="url(#path-1-outside-1)"/>
<path d="M54.3704 44.4693C52.1113 44.4693 50.2735 46.3072 50.2735 48.5662C50.2735 50.8252 52.1113 52.6629 54.3704 52.6629C56.6296 52.6629 58.4673 50.8252 58.4673 48.5662C58.4673 46.3072 56.6296 44.4693 54.3704 44.4693ZM54.3704 50.568C53.2666 50.568 52.3684 49.6699 52.3684 48.5662C52.3684 47.4624 53.2666 46.5641 54.3704 46.5641C55.4743 46.5641 56.3724 47.4623 56.3724 48.5662C56.3724 49.67 55.4743 50.568 54.3704 50.568Z" fill="#EB6441" stroke="#EB6441" stroke-width="0.1"/>
</g>
<defs>
<clipPath id="clip0">
<rect width="70" height="70" fill="white"/>
</clipPath>
</defs>
</svg>
