<svg class="fill-current" aria-hidden="true" version="1.1" viewBox="0 0 24 24" x="0" y="0" height="48" width="48"><path d="m0 0v24h24v-24z" fill="none"></path><path d="m4 19.5h16c.28 0 .5-.22.5-.5v-14c0-.28-.22-.5-.5-.5h-2.03c-.28 0-.5.22-.5.5s.22.5.5.5h1.53v13h-8v-1.5c0-.28-.22-.5-.5-.5s-.5.22-.5.5v1.5h-6v-6h6v1.5c0 .28.22.5.5.5s.5-.22.5-.5v-4c0-.28-.22-.5-.5-.5s-.5.22-.5.5v1.5h-6v-6h6v1.5c0 .28.22.5.5.5s.5-.22.5-.5v-1.5h3.5c.28 0 .5-.22.5-.5s-.22-.5-.5-.5h-11c-.28 0-.5.22-.5.5v14c0 .28.22.5.5.5z"></path></svg>