<svg class="fill-current" aria-hidden="true" version="1.1" x="0" y="0" viewBox="0 0 24 24" height="48" width="48"><path d="m0 0v24h24v-24z" fill="none"></path><path d="m10.65 18.35c.1.1.23.15.35.15s.26-.05.35-.15l3-3c.2-.2.2-.51 0-.71s-.51-.2-.71 0l-2.65 2.65-.65-.65c-.2-.2-.51-.2-.71 0s-.2.51 0 .71l1 1z"></path><path d="m9 21.5h6c.83 0 1.5-.67 1.5-1.5v-13c0-2.48-2.02-4.5-4.5-4.5s-4.5 2.02-4.5 4.5v.75c0 .96.79 1.75 1.75 1.75s1.75-.79 1.75-1.75v-.25c0-.55.45-1 1-1s1 .45 1 1v.5c0 3.5-1.01 3.5-4 3.5-.83 0-1.5.67-1.5 1.5v7c0 .83.67 1.5 1.5 1.5zm-.5-8.5c0-.28.22-.5.5-.5 3.01 0 5 0 5-4.5v-.5c0-1.1-.9-2-2-2s-2 .9-2 2v.25c0 .41-.34.75-.75.75s-.75-.34-.75-.75v-.75c0-1.93 1.57-3.5 3.5-3.5s3.5 1.57 3.5 3.5v13c0 .28-.22.5-.5.5h-6c-.28 0-.5-.22-.5-.5z"></path></svg>