<svg class="fill-current" aria-hidden="true" version="1.1" x="0" y="0" viewBox="0 0 24 24" height="48" width="48"><path d="m0 0v24h24v-24z" fill="none"></path><path d="m15 3.5c-3.03 0-5.5 2.47-5.5 5.5 0 .78.17 1.53.47 2.21l-5.88 5.88c-.38.38-.58.88-.58 1.41s.21 1.04.58 1.41c.39.39.9.58 1.41.58s1.02-.2 1.41-.58l.28-.28.43.43c.28.28.66.44 1.06.44s.78-.16 1.06-.44l.71-.71c.58-.58.58-1.54 0-2.12l-.43-.43 1.39-1.39c.2-.2.2-.51 0-.71s-.51-.2-.71 0l-4.5 4.5c-.39.39-1.03.39-1.41 0-.19-.19-.29-.44-.29-.71s.1-.52.29-.71l5.68-5.68c.99 1.44 2.65 2.39 4.53 2.39 3.03 0 5.5-2.47 5.5-5.5s-2.47-5.5-5.5-5.5zm-5.25 14.44c.19.2.19.51 0 .71l-.71.71c-.19.19-.52.19-.71 0l-.43-.43 1.41-1.41.43.43zm5.25-4.44c-2.48 0-4.5-2.02-4.5-4.5s2.02-4.5 4.5-4.5 4.5 2.02 4.5 4.5-2.02 4.5-4.5 4.5z"></path><path d="m16 6c-1.1 0-2 .9-2 2s.9 2 2 2 2-.9 2-2-.9-2-2-2zm0 3c-.55 0-1-.45-1-1s.45-1 1-1 1 .45 1 1-.45 1-1 1z"></path></svg>