<svg xmlns="http://www.w3.org/2000/svg" fill="none" viewBox="0 0 44 44" class="injected-svg" data-src="https://www.hilton.com/modules/assets/svgs/amenities/concierge.svg" xmlns:xlink="http://www.w3.org/1999/xlink">
    <path fill-rule="evenodd" stroke="#666666" stroke-width="2" d="M18.4495 13.5786C19.6974 13.5786 20.7091 12.5537 20.7091 11.2893C20.7091 10.025 19.6974 9 18.4495 9C17.2015 9 16.1898 10.025 16.1898 11.2893C16.1898 12.5537 17.2015 13.5786 18.4495 13.5786Z" clip-rule="evenodd"></path>
    <path stroke="#666666" stroke-linecap="square" stroke-width="3" d="M4.89177 35.2665H31.4423"></path>
    <path fill="#666666" d="M37.48 12.5586L38.4319 13.8329L30.8526 19.5944L29.9007 18.3201L37.48 12.5586Z"></path>
    <path fill="#666666" d="M30.5498 12.1134L31.7614 13.139L28.7113 16.8059L27.4996 15.7802L30.5498 12.1134Z"></path>
    <path fill-rule="evenodd" stroke="#666666" stroke-width="1.5" d="M5.28223 30.5404H31.9581C31.9581 30.5404 30.1435 16.8796 18.5624 16.8796C6.98136 16.8796 5.28223 30.5404 5.28223 30.5404Z" clip-rule="evenodd"></path>
</svg>