<svg xmlns="http://www.w3.org/2000/svg" fill="none" viewBox="0 0 44 44" class="injected-svg" data-src="https://www.hilton.com/modules/assets/svgs/amenities/executiveLounge.svg" xmlns:xlink="http://www.w3.org/1999/xlink">
    <path stroke="#666666" stroke-linecap="round" stroke-width="1.5" d="M36.8691 17.2683C36.8691 17.2604 36.87 15.2409 36.87 15.233C36.87 11.6418 33.9602 8.73193 30.3698 8.73193H14.1593C10.5689 8.73193 7.6582 11.6418 7.6582 15.233C7.6582 15.2409 7.65996 17.2683 7.65996 17.2683"></path>
    <path fill-rule="evenodd" stroke="#666666" stroke-linecap="round" stroke-width="1.5" d="M39.7973 20.636C39.7973 18.9106 38.3977 17.5119 36.6732 17.5119C35.3333 17.5119 34.1989 18.3601 33.7555 19.5463L32.2742 22.8654C32.1636 22.7969 27.4572 21.1707 22.3487 21.1707C17.2411 21.1707 12.3565 22.803 12.2433 22.8733L10.8393 19.7606C10.46 18.4646 9.27371 17.5119 7.85566 17.5119C6.1303 17.5119 4.73157 18.9106 4.73157 20.636C4.73157 22.0716 5.7062 23.2693 7.02679 23.6345L8.95586 28.6034C9.56523 30.7142 12.5831 30.6826 12.5831 30.6826H31.9458C31.9458 30.6826 34.9637 30.7142 35.573 28.6034L37.5021 23.6345C38.8209 23.2693 39.7973 22.0716 39.7973 20.636Z" clip-rule="evenodd"></path>
    <path stroke="#666666" stroke-linecap="round" stroke-width="1.5" d="M31.8049 30.7037L33.6075 34.3265C33.8446 34.7998 34.3205 35.0729 34.8166 35.0729C35.0203 35.0729 35.2257 35.0272 35.4198 34.9306C36.0871 34.597 36.3576 33.7856 36.0239 33.1183L34.4899 30.0329"></path>
    <path stroke="#666666" stroke-linecap="round" stroke-width="1.5" d="M12.7241 30.7037L10.9215 34.3265C10.6844 34.7998 10.2076 35.0729 9.71239 35.0729C9.50869 35.0729 9.30322 35.0272 9.10917 34.9306C8.44186 34.597 8.17142 33.7856 8.50508 33.1183L10.039 30.0329"></path>
</svg>