<svg xmlns="http://www.w3.org/2000/svg" width="139" height="47" viewBox="0 0 139 47"><path fill="#326fd6" d="m117 39c.3.1.5.3.8.4v3.9c-1.2-.1-2.4-.6-3.3-1.2l2.5-3m-1.4-1.5l-3.9 1.1c.4.9.9 1.8 1.6 2.5l2.5-3.1c-.1-.1-.2-.4-.3-.5m1.6-4.6c.2-.1.4-.1.6-.2v-4.1c-1.1.1-2.3.5-3.2 1.1l2.6 3.2m-1.9 3.1c0-.1 0-.2 0-.3l-3.9-1.1c-.1.4-.1.9-.1 1.4 0 .4.1.8.1 1.2l3.9-1.2m.8-2.2l-2.6-3.2c-.7.7-1.2 1.5-1.6 2.4l3.9 1.1c.1-.2.1-.3.3-.4m5.6.4l3.8-1.1c-.4-.9-.9-1.7-1.6-2.4l-2.5 3.1c.1.1.3.2.4.4m7.9 1.7c0 6-4.9 10.9-10.9 10.9s-10.9-4.9-10.9-10.9 4.9-10.9 10.9-10.9 10.9 4.9 10.9 10.9m-2.9 0c0-4.4-3.6-8-8-8s-8 3.6-8 8 3.6 8 8 8 8-3.6 8-8m-.8-1.4l-3.7 1.1c0 .1 0 .2 0 .4l3.7 1.2c.1-.4.1-.8.1-1.2.1-.5.1-.9-.1-1.4m-4.4 3.5l2.4 3c.7-.7 1.2-1.6 1.6-2.5l-3.7-1.1c-.1.2-.2.4-.4.6m-2 1.3v3.9c1.2-.1 2.4-.6 3.3-1.2l-2.4-3c-.3.2-.6.3-.9.4m3.2-9.7c-.9-.6-2-1-3.2-1.1v4c.2.1.5.1.7.2l2.5-3.1m-94 9.3c.3.1.5.3.8.4v3.9c-1.2-.1-2.4-.6-3.3-1.2l2.5-3m-1.4-1.5l-3.9 1.1c.4.9.9 1.8 1.6 2.5l2.5-3.1c-.1-.1-.2-.4-.3-.5m1.6-4.6c.2-.1.4-.1.6-.2v-4.1c-1.1.1-2.3.5-3.2 1.1l2.6 3.2m-1.9 3.1c0-.1 0-.2 0-.3l-3.9-1.1c-.1.4-.1.9-.1 1.4 0 .4.1.8.1 1.2l3.9-1.2m.7-2.2l-2.6-3.2c-.7.7-1.2 1.5-1.6 2.4l3.9 1.1c.1-.2.2-.3.3-.4m5.7.4l3.8-1.1c-.4-.9-.9-1.7-1.6-2.4l-2.5 3.1c.1.1.2.2.4.4m7.9 1.7c0 6-4.9 10.9-10.9 10.9s-10.9-4.9-10.9-10.9 4.9-10.9 10.9-10.9 10.9 4.9 10.9 10.9m-2.9 0c0-4.4-3.6-8-8-8s-8 3.6-8 8 3.6 8 8 8 8-3.6 8-8m-.7-1.4l-3.7 1.1c0 .1 0 .2 0 .4l3.7 1.2c.1-.4.1-.8.1-1.2.1-.5 0-.9-.1-1.4m-4.4 3.5l2.4 3c.7-.7 1.2-1.6 1.6-2.5l-3.7-1.1c-.1.2-.2.4-.4.6m-2 1.3v3.9c1.2-.1 2.4-.6 3.3-1.2l-2.4-3c-.3.2-.6.3-.9.4m3.2-9.7c-.9-.6-2-1-3.2-1.1v4c.2.1.5.1.7.2l2.5-3.1m105-3.9c-.1-1.9-.7-3.3-.7-3.3s-.6-1.3-2.6-2.3c-2.4-1.3-7.7-2.7-12.3-3.5-9-1.5-19-2.1-23.4-2.5-1.5-.1-2.7-.4-2.7-.4s-9.2-8.6-23.5-11.8c-14.3-3.3-32.7-.9-32.7-.9s-.1-.5-.5-.9c-.2-.2-.5-.3-.5-.3l-2.6.5c0 0-.3.1-.3.4.1.4-.1 1.2-.1 1.2s-16.2 7.1-20.9 9.1c-.8.4-1.3.4-1.3.4s-7.7.1-11.5.4c-1.1.1-1.7 2.7-1.7 2.7s.4 3.4.6 5.2c.1.6-.1 1.1-.1 1.1s-1.1 1.4-1.8 2.2c-.3.3-.4 1.2-.4 1.2v5.7c0 0 .1 1.3.4 1.7 1 1.1 2.4 3.2 3.6 4.4.5.5 1.6.6 1.6.6s4.4.1 11.6.1c0-.4-.1-.6-.1-1 0-7 5.7-12.6 12.6-12.6s12.6 5.7 12.6 12.6c0 .4 0 .9-.1 1.3 20 .3 44.7.6 63.8.8-.1-.7-.2-1.4-.2-2.1 0-7 5.7-12.6 12.6-12.6s12.6 5.7 12.6 12.6c0 .8-.1 1.6-.2 2.4 1.9 0 3.4 0 4.5 0 1.3 0 1.9-.9 1.9-.9s.9-1 1.1-2.4c.2-2.2.5-6 .4-9.2m-103-11.9c-4.8-.2-5-4.7-5-4.7s.1-1 .9-1.5c3-1.8 12-5.7 27.4-5.3 0 1.1.1 4.1.6 7 .3 1.8.7 3.7 1 5-9-.1-18-.3-24.9-.5m50 .5c0 .1 0 .3 0 .4-4.8-.1-12-.1-19.6-.3-.6-1.4-1.2-3.4-1.9-5.5-.7-2.5-1.3-5.1-1.6-6.5 1.7.1 3.4.3 5.3.6 10.7 1.4 17 5.3 20 7.9-1.3.6-2.3 1.8-2.3 3.3"/></svg>