<svg xmlns="http://www.w3.org/2000/svg" width="115" height="80" viewBox="0 0 115 80"><path fill="#326fd6" d="m1.9 70c0 1.3 1 2.3 2.3 2.3h39.4c2.9-11.3 11.6-20.4 23-23.4.1-.4.1-.8.3-1.2.3-.8 1.9-1.5 4.1-2-2.6-2.1-5-5-6.9-8.3-.8 0-1.5 0-2.1 0-4.3-.1-16.9-.3-17.5-.3-.6 0-13.2.2-17.5.3-3.6.1-14.4.3-14.4.3s10-13.5 11.1-14c.5-.3 4.9-1 9.7-1.4 5.2-.4 10.7-.4 11-.4.4 0 5.9 0 11 .4 1 .1 2.1.2 3 .3.4-.6.8-1.2 1.3-1.6 0-.7 0-1.3.1-1.9-6.5-.6-14.8-.7-15.5-.7 0 0 0 0 0 0-1.1 0-20 .3-22.8 2.1-2 1.3-19.4 21-19.6 24.7-.1 1.6-.1 18.8-.1 25m4.7-25.7c1.4-.5 14.6 1.2 15.4 3.5.5 1.6.4 4.1-.4 4.4-1 .3-13.9-.6-14.9-1.6-1.4-1.4-1.1-5.9 0-6.3m12.3 28.8v1c0 1.3-1.1 2.4-2.4 2.4h-12.3c-1.3 0-2.4-1.1-2.4-2.4v-2c.6.6 1.4 1.1 2.3 1.1h14.7m-14-34c-1.6-.1-4.7-.5-4.8-2.1-.1-2.1 1.1-4 1.9-4.3.6-.3 5.8-.1 8 0-1.7 2.1-3.6 4.4-5.1 6.5"/><path fill="#f29a02" d="m100 27.6c-.5 2.9-2.4 5-4.3 4.7-3.5 8.6-10.7 14.7-15.8 14.7-5.3 0-12.3-6.1-15.8-14.7-1.8.3-3.7-1.8-4.3-4.7-.5-2.8.5-5.3 2.2-5.9-.3-12.4 5.4-21.7 17.9-21.8 12.6 0 18 9.2 17.8 21.7 1.7.5 2.7 3.1 2.2 5.9m-8.5 22.7l-11.4 27.8-11.4-27.8c-13.5 2.8-23.8 15-23.8 29.7h70c0-14.5-10.2-26.7-23.6-29.6m-8.8 6.8l1 10-3.6 8.8-3.7-9 1-9.7h5.4m.6-.9h-6.5v-6.6h6.5v6.6"/></svg>