<svg xmlns="http://www.w3.org/2000/svg" width="90" height="90" viewBox="0 0 90 90" overflow="scroll"><path fill="#326fd6" d="m35.5 8v-7.2c0-.5.4-.9.9-.9s.9.4.9.9v7.2c0 .5-.4.9-.9.9s-.9-.4-.9-.9m10.7.9c.5 0 .9-.4.9-.9v-7.2c0-.5-.4-.9-.9-.9s-.9.4-.9.9v7.2c0 .5.4.9.9.9m9.8 0c.5 0 .9-.4.9-.9v-7.2c0-.5-.4-.9-.9-.9s-.9.4-.9.9v7.2c0 .5.4.9.9.9m9.8 0c.5 0 .9-.4.9-.9v-7.2c0-.5-.4-.9-.9-.9-.5 0-.9.4-.9.9v7.2c0 .5.4.9.9.9m-59 0c.5 0 .9-.4.9-.9v-7.2c0-.5-.4-.9-.9-.9s-.9.4-.9.9v7.2c0 .5.4.9.9.9m65.9-1.4c0-2.2-1.8-4-4-4h-1.2v4.5c0 .9-.7 1.6-1.6 1.6-.9 0-1.6-.7-1.6-1.6v-4.5h-6.6v4.5c0 .9-.7 1.6-1.6 1.6-.9 0-1.6-.7-1.6-1.6v-4.5h-6.6v4.5c0 .9-.7 1.6-1.6 1.6-.9 0-1.6-.7-1.6-1.6v-4.5h-6.6v4.5c0 .9-.7 1.6-1.6 1.6s-1.6-.7-1.6-1.6v-4.5h-6.6v4.5c0 .9-.7 1.6-1.6 1.6-.9 0-1.6-.7-1.6-1.6v-4.5h-6.6v4.5c0 .9-.7 1.6-1.6 1.6s-1.6-.7-1.6-1.6v-4.5h-6.6v4.5c0 .9-.7 1.6-1.6 1.6s-1.6-.7-1.6-1.6v-4.5h-1.2c-2.2 0-4 1.8-4 4v10.8h72.8v-10.8m-27.7 68h-41c-2.2 0-4-1.8-4-4v-51.7h72.8v24.8c-1.6-.3-3.2-.5-4.9-.5-7.1 0-13.5 3.1-17.9 7.9v-.9c0-.6-.5-1-1-1h-8.4c-.6 0-1 .5-1 1v3.1c0 .6.5 1 1 1h7c-1.2 1.9-2.1 3.9-2.7 6h-4.2c-.6 0-1 .5-1 1v3.1c0 .6.5 1 1 1h3.3c0 .5 0 1 0 1.5 0 2.6.4 5.2 1.2 7.5m11.2-43.6c0 .6.5 1 1 1h8.4c.6 0 1-.5 1-1v-3.1c0-.6-.5-1-1-1h-8.4c-.6 0-1 .5-1 1v3.1m0 11.2c0 .6.5 1 1 1h8.4c.6 0 1-.5 1-1v-3.1c0-.6-.5-1-1-1h-8.4c-.6 0-1 .5-1 1v3.1m-16.8-11.2c0 .6.5 1 1 1h8.4c.6 0 1-.5 1-1v-3.1c0-.6-.5-1-1-1h-8.4c-.6 0-1 .5-1 1v3.1m0 11.2c0 .6.5 1 1 1h8.4c.6 0 1-.5 1-1v-3.1c0-.6-.5-1-1-1h-8.4c-.6 0-1 .5-1 1v3.1m-23 19.3c0-.6-.5-1-1-1h-8.4c-.6 0-1 .5-1 1v3.1c0 .6.5 1 1 1h8.4c.6 0 1-.5 1-1 0 0 0-3.1 0-3.1m0-11.2c0-.6-.5-1-1-1h-8.4c-.6 0-1 .5-1 1v3.1c0 .6.5 1 1 1h8.4c.6 0 1-.5 1-1 0 0 0-3.1 0-3.1m0-11.2c0-.6-.5-1-1-1h-8.4c-.6 0-1 .5-1 1v3.1c0 .6.5 1 1 1h8.4c.6 0 1-.5 1-1 0 0 0-3.1 0-3.1m0-11.2c0-.6-.5-1-1-1h-8.4c-.6 0-1 .5-1 1v3.1c0 .6.5 1 1 1h8.4c.6 0 1-.5 1-1 0 0 0-3.1 0-3.1m16.8 33.6c0-.6-.5-1-1-1h-8.4c-.6 0-1 .5-1 1v3.1c0 .6.5 1 1 1h8.4c.6 0 1-.5 1-1v-3.1m0-11.2c0-.6-.5-1-1-1h-8.4c-.6 0-1 .5-1 1v3.1c0 .6.5 1 1 1h8.4c.6 0 1-.5 1-1v-3.1m0-11.2c0-.6-.5-1-1-1h-8.4c-.6 0-1 .5-1 1v3.1c0 .6.5 1 1 1h8.4c.6 0 1-.5 1-1v-3.1m0-11.2c0-.6-.5-1-1-1h-8.4c-.6 0-1 .5-1 1v3.1c0 .6.5 1 1 1h8.4c.6 0 1-.5 1-1v-3.1m-6.7-20c.5 0 .9-.4.9-.9v-7.2c0-.5-.4-.9-.9-.9s-.9.4-.9.9v7.2c0 .5.4.9.9.9m-9.8 0c.5 0 .9-.4.9-.9v-7.2c0-.5-.4-.9-.9-.9-.5 0-.9.4-.9.9v7.2c0 .5.4.9.9.9"/><path fill="#f29a02" d="m67.9 46c-12.2 0-22 9.8-22 21.9s9.9 21.9 22 21.9 22-9.8 22-21.9-9.9-21.9-22-21.9m-16.5 22.6h-2.8c-.4 0-.8-.3-.8-.8s.3-.8.8-.8h2.8c.4 0 .8.3.8.8s-.3.8-.8.8m15.7-19.8c0-.4.3-.8.8-.8s.8.3.8.8v2.8c0 .4-.3.8-.8.8s-.8-.3-.8-.8c0 0 0-2.8 0-2.8m1.5 38c0 .4-.3.8-.8.8s-.8-.3-.8-.8v-2.8c0-.4.3-.8.8-.8s.8.3.8.8v2.8m7.4-11c-.2.2-.5.3-.7.3-.3 0-.5-.1-.7-.3l-7.7-7.7v-11.8c0-.6.5-1 1-1 .6 0 1 .5 1 1v10.9l7.1 7c.4.4.4 1.1 0 1.5m11-7.3h-2.8c-.4 0-.8-.3-.8-.8s.3-.8.8-.8h2.8c.4 0 .8.3.8.8s-.3.8-.8.8"/></svg>