<svg xmlns="http://www.w3.org/2000/svg" width="104" height="48" viewBox="0 0 104 48"><path fill="#326fd6" d="m84 41c.2.1.4.2.7.3v3.4c-1-.1-2-.5-2.9-1.1l2.1-2.6m-1.3-1.3l-3.3.9c.3.8.8 1.6 1.4 2.2l2.1-2.7c-.1-.2-.1-.3-.2-.4m1.4-4.1c.2-.1.4-.2.6-.2v-3.6c-1 .1-1.9.4-2.8 1l2.2 2.8m-1.7 2.7c0-.1 0-.2 0-.3l-3.4-.9c-.1.4-.1.8-.1 1.2 0 .3.1.7.1 1.1l3.4-1m.7-1.9l-2.2-2.8c-.6.6-1.1 1.3-1.4 2.1l3.4.9c0-.1.1-.2.2-.3m4.8.3l3.3-.9c-.3-.8-.8-1.5-1.4-2.1l-2.1 2.7c.1.2.2.3.3.4m6.8 1.6c0 5.2-4.2 9.4-9.4 9.4s-9.4-4.2-9.4-9.4 4.2-9.4 9.4-9.4c5.1-.1 9.4 4.2 9.4 9.4m-2.5 0c0-3.8-3.1-6.9-6.9-6.9s-6.9 3.1-6.9 6.9c0 3.8 3.1 6.9 6.9 6.9 3.8 0 6.9-3.2 6.9-6.9m-.6-1.2l-3.3.9c0 .1.1.2.1.3l3.3 1c.1-.3.1-.7.1-1.1-.1-.4-.1-.8-.2-1.2m-3.9 3.1l2.1 2.6c.6-.6 1-1.3 1.4-2.2l-3.2-.9c-.1.1-.2.3-.3.4m-1.8 1.1v3.4c1-.1 2-.5 2.9-1.1l-2.1-2.6c-.2.1-.5.2-.8.3m2.8-8.4c-.8-.6-1.8-.9-2.8-1v3.5c.2.1.4.1.6.2l2.1-2.7m-76 8c.2.1.4.2.7.3v3.4c-1-.1-2-.5-2.9-1.1l2.1-2.6m-1.2-1.3l-3.3.9c.3.8.8 1.6 1.4 2.2l2.1-2.7c-.1-.2-.2-.3-.2-.4m1.4-4.1c.2-.1.4-.2.6-.2v-3.6c-1 .1-1.9.4-2.8 1l2.2 2.8m-1.7 2.7c0-.1 0-.2 0-.3l-3.4-.9c-.1.4-.1.8-.1 1.2 0 .3.1.7.1 1.1l3.4-1m.7-1.9l-2.2-2.8c-.6.6-1.1 1.3-1.4 2.1l3.4.9c.1-.1.1-.2.2-.3m4.8.3l3.3-.9c-.3-.8-.8-1.5-1.4-2.1l-2.1 2.7c.1.2.2.3.3.4m6.8 1.6c0 5.2-4.2 9.4-9.4 9.4s-9.4-4.2-9.4-9.4 4.2-9.4 9.4-9.4c5.1-.1 9.4 4.2 9.4 9.4m-2.5 0c0-3.8-3.1-6.9-6.9-6.9s-6.8 3.1-6.8 6.9c0 3.8 3 6.9 6.8 6.9s6.9-3.1 6.9-6.9m-.7-1.2l-3.3.9c0 .1.1.2.1.3l3.3 1c.1-.3.1-.7.1-1.1 0-.4-.1-.8-.2-1.2m-3.8 3.1l2.1 2.6c.6-.6 1-1.3 1.4-2.2l-3.2-.9c-.1.1-.2.3-.3.4m-1.8 1.1v3.4c1-.1 2-.5 2.9-1.1l-2.1-2.6c-.3.1-.5.2-.8.3m2.8-8.4c-.8-.6-1.8-.9-2.8-1v3.5c.2.1.4.1.6.2l2.1-2.7m86-.3c-.1-.6-1.2-1.2-1.9-1.9-.4-.6-.6-2.4-.8-3.3-.2-.6-.3-.8-.5-1.1-.4-.7-4.5-3.9-6-4.6-1.2-.4-11.9-2-17.2-2.8-1.4-.2-1.4-.4-1.9-.6-1.7-.6-8.9-7.4-12.4-10.2-.8-.6-1.5-.9-2.6-1.2-1.4-.4-33-.7-40.8-.8-.2-1.8-.6-5.2-.8-6.3-.1-.2-.3-.2-.3-.2h-.3c0 0-.2.2-.2.4.2 1.2.6 4.4.8 6.2-.6 0-.9 0-.9 0l-2.9-.1-4.7-.3c0 0-.4.4-.1.7.4.3 1.6.7 1.9 1.2.4.7-.2 1.2-.2 1.2s-5 5.8-5.6 6.4c-.2.2 0 .9-.1 1.5-.1.3-.2.5-.2.5s-2.9 1.5-3.7 4c-.9 2.6-.6 5.7-.6 5.7s-.2.9-.4 1.1c-.7.6-1.5 1.3-1.8 2-.3 1 .4 9.4.4 9.4s.6.8 1.3.8c.6 0 1.4.1 2.4.1-.2-.7-.2-1.4-.2-2.2 0-6 4.8-10.9 10.9-10.9s10.9 4.9 10.9 10.9c0 .9-.1 1.8-.3 2.6 15 .3 34.4.6 50 .9-.4-1.1-.6-2.3-.6-3.6 0-6 4.8-10.9 10.9-10.9 6 0 10.9 4.9 10.9 10.9 0 1.4-.3 2.7-.7 3.9 3 .1 5.2.1 6.4.1.6 0 .8-.9.8-.9l-.1-4.6c0 0 0-1.1.1-1.3.2-.4.7-.8.8-1.1.2-.9.2-1.4.2-1.9m-93-15.7c1.1-1.8 3.6-5.7 4.7-7.7.4-.6 1.4-.8 1.4-.8l17.7.3v9.8l-23.5-.7c-.1.1-.7-.5-.4-.9m-6.7 6.4c-.3 1.4-.1 2.1-.4 2.6-.2.3-.3.7-.6.5-.8-.4-.9-2.6-.4-4.2.4-1.2 1.3-2.8 2.1-2.7.3.1.3.1.4.4 0 .9-.8 1.7-1.1 3.4m55-2.2l-.3.6c0 0-.2.5-.7.5-5.2-.2-38-1.1-40.4-.8-2.4.3-3.3 1.2-5.3 1.9-1.9.6-4.4-.1-5.4.3-.4.1-.8.9-1.2 1.3-.3.4-.6.1-.6.1s.2-2.2 1.2-4c.8-1.4 1.8-1.6 3.3-1.8 1.4-.2 43 1.2 49 1.4.4 0 .2.6.2.6m6-1.6h-1.9c-.1-.2-.2-.3-.2-.4-1.2-2.1-2.9-3.3-3.8-2.7-.7.4-.8 1.6-.3 3.1l-22.3-.7v-9.8l19.8.4c0 0 .8.1 1.5.8 2 2.2 6 6.7 7.7 8.4.3.4-.4 1.1-.4 1.1m13.2 5.1c-.2.2-1.6.2-3.1.2-1.7 0-3.3 0-3.5-.3-.3-.6-.2-1.2 0-1.9.1-.4 4.5-.2 5 .1.3.3 1.8 1.7 1.6 1.9m21 4.2c-.6.7-2.6.1-4.5-1.4-1.9-1.5-3-3.3-2.4-4.1.6-.7 2.6-.1 4.5 1.4s3 3.3 2.4 4.1"/></svg>