<svg xmlns="http://www.w3.org/2000/svg" width="108" height="43" viewBox="0 0 108 43"><path fill="#326fd6" d="m108 27c0 0 .1-.5-.1-.9-.2-.4-1.5-1-1.5-1-.2-.9-.2-1.9-.7-2.9-.6-1.2-1.8-2.3-2.6-2.7-6-3.3-15.9-4.9-21.9-5.7-1-.1-1-.3-1.7-.4 0 0-10.8-7.4-24.4-11.1-8.7-2.4-30.9-.8-30.9-.8l-3.1-1.6c0 0-.6.1-.4.3.5.6 1.1 1.7 1.1 1.7s-9.1 1.2-9.6 1.3c-.3.1-.8.7-.8.7l.7.6c0 0-9 8.1-9.7 10.2-.1.2-.3.8-.3 1.3-.1 1.8-.1 4.5-.2 5.3-.1.7-.3.8-.3.8s-.8 1-1.3 1.4c-.2.2-.3 1-.3 1v6.4c0 0 .1.5.3.9.6 1 2 2.4 2 2.4s.2.2.6.4c0-.3-.1-.5-.1-.8 0-5.8 4.7-10.5 10.5-10.5s10.5 4.7 10.5 10.5c0 .5-.1.9-.1 1.3 15.9.3 37.7.8 53.7 1-.2-.8-.3-1.6-.3-2.4 0-5.8 4.7-10.5 10.5-10.5s10.5 4.7 10.5 10.5c0 .9-.1 1.9-.4 2.8 1 0 1.6.1 1.6.1s2.9-.1 5-.5c2.6-.5 2.9-.9 2.9-.9s.2-.8.1-1.1c-.2-.5-.3-.1-.6-.9-.3-1-.3-3.1-.3-3.1s0-.5.2-.7c.4-.3 1-.8 1.3-1.2.2-.2.2-1.2.2-1.2m-56-23.7c3.7.7 7.7 2.2 11 3.9 2.6 1.3 5 2.8 6.9 4.1-.1 0-.1-.1-.2-.1-1.8-.5-3.6.2-4 1.6-.2.5-.1 1 .1 1.6-5.2-.3-16.4-1-27-1.7l-.9-10c6.6-.1 12.9.4 14 .6m-36 6.2c0 0 1-1.5 2-2.6.5-.6 1.1-1.2 1.1-1.2s1-1.2 2.2-1.5c1.4-.3 7.7-1.1 13.5-1.4l.1 9.7c-7.5-.5-14.3-1-17.8-1.4-1.7-.2-1-1.7-1-1.7m-10.7 7.7c-.5 1.2-.6 2-.7 2.2-.3.6-.9 1-1 .8-.2-.4-.3-4.4.1-5.5.3-.6.9-1.3 1.4-1.4.3-.1 1.7-.1 1.8.3.2.5-.8 1.3-1.6 3.5m68 3.9c-9.5-.6-57.9-2.8-66-3.3-.8-.1-.7-.8-.7-.8l1.3-2.8c0 0 .3-.5 1-.5 7.6.4 55 3.1 64 3.6.7.1.9 1 .9 1l.3 1.8c-.1.1-.1.9-.9.9m24-.9c.5-.9 2.6-.9 3.8-.6 1.8.5 3.2 1.7 4 3.4.6 1.2.7 2 .4 2.2-.4.4-3.4 0-5.7-1.5-1.5-.9-2.9-3-2.5-3.5m8 12.2c-.5.1-1.4.3-1.9.3-.3.1-.4-.2-.4-.2v-1.8c0 0 .1-.3.4-.3.5 0 1.4-.1 1.8-.1.3 0 .4.3.4.3v1.4c0 .1-.1.3-.3.3m-19 3.8c.2.1.5.2.7.3v3.3c-1-.1-1.9-.5-2.7-1l2-2.6m-1.2-1.3l-3.2.9c.3.8.8 1.5 1.3 2.1l2.1-2.6c-.1-.1-.1-.2-.2-.4m1.3-3.8c.2-.1.3-.2.5-.2v-3.4c-1 .1-1.9.5-2.7.9l2.1 2.6m-1.6 2.6c0-.1 0-.2 0-.2l-3.2-.9c-.1.3-.1.8-.1 1.1 0 .3.1.7.1 1l3.2-.9m.6-1.8l-2.1-2.6c-.6.6-1 1.3-1.3 2l3.3.9c.1-.2.1-.2.2-.3m4.7.3l3.2-.9c-.3-.8-.8-1.5-1.3-2l-2.1 2.6c.1.1.1.2.2.4m6.5 1.4c0 5-4 9.1-9 9.1-5 0-9-4.1-9-9.1 0-5 4-9.1 9-9.1s9 4.1 9 9.1m-2.4 0c0-3.7-2.9-6.7-6.6-6.7-3.6 0-6.6 3-6.6 6.7 0 3.7 2.9 6.7 6.6 6.7 3.7-.1 6.6-3 6.6-6.7m-.6-1.2l-3.1.9c0 .1.1.2.1.3l3.1.9c.1-.3.1-.6.1-1-.1-.3-.1-.8-.2-1.1m-3.7 3l2 2.5c.6-.6 1-1.3 1.3-2.1l-3.1-.9c-.1.2-.2.3-.3.5m-1.7 1v3.3c1-.1 2-.5 2.7-1l-2-2.5c-.2.1-.5.2-.7.2m2.7-8c-.8-.5-1.7-.9-2.7-.9v3.4c.2.1.4.1.6.2l2.1-2.6m-78.9 7.7c.2.1.5.2.7.3v3.3c-1-.1-1.9-.5-2.7-1l2-2.6m-1.2-1.3l-3.2.9c.3.8.8 1.5 1.3 2.1l2.1-2.6c-.1-.1-.2-.2-.2-.4m1.3-3.8c.2-.1.3-.2.5-.2v-3.4c-1 .1-1.9.5-2.7.9l2.1 2.6m-1.6 2.6c0-.1 0-.2 0-.2l-3.2-.9c-.1.3-.1.8-.1 1.1 0 .3.1.7.1 1l3.2-.9m.6-1.8l-2.1-2.6c-.6.6-1 1.3-1.3 2l3.3.9c0-.2.1-.2.2-.3m4.6.3l3.2-.9c-.3-.8-.8-1.5-1.3-2l-2.1 2.6c.1.1.2.2.2.4m6.6 1.4c0 5-4 9-9 9-5 0-9-4.1-9-9.1 0-5 4-9.1 9-9.1 5 .1 9 4.1 9 9.2m-2.4 0c0-3.7-2.9-6.7-6.6-6.7s-6.6 3-6.6 6.7c0 3.7 2.9 6.7 6.6 6.7s6.6-3 6.6-6.7m-.6-1.2l-3.1.9c0 .1.1.2.1.3l3.1.9c.1-.3.1-.6.1-1-.1-.4-.1-.8-.2-1.2m-3.6 3l2 2.5c.6-.6 1-1.3 1.3-2.1l-3.1-.9c-.1.2-.2.3-.3.5m-1.7 1v3.3c1-.1 2-.5 2.7-1l-2-2.5c-.2.1-.4.2-.7.2m2.7-8c-.8-.5-1.7-.9-2.7-.9v3.4c.2.1.4.1.6.2l2.1-2.6"/></svg>