<svg xmlns="http://www.w3.org/2000/svg" width="150" height="47" viewBox="0 0 150 47"><path fill="#326fd6" d="m116 38.5c.3.2.5.3.9.4v4.3c-1.3-.2-2.5-.6-3.6-1.3l2.7-3.4m-1.5-1.6l-4.2 1.2c.4 1 1 1.9 1.8 2.7l2.8-3.4c-.2-.2-.2-.4-.3-.5m1.8-5c.2-.1.5-.2.7-.2v-4.4c-1.3.2-2.5.5-3.5 1.2l2.8 3.4m-2.1 3.4c0-.1 0-.2 0-.3l-4.2-1.2c-.1.5-.2 1-.2 1.5s.1.8.2 1.3l4.2-1.2m.8-2.3l-2.8-3.4c-.8.8-1.4 1.6-1.8 2.6l4.3 1.2c.1-.2.2-.2.3-.4m6 .3l4.1-1.1c-.4-1-1-1.9-1.8-2.6l-2.7 3.4c.1.1.2.2.3.4m8.7 1.9c0 6.6-5.3 11.8-11.9 11.8s-11.9-5.3-11.9-11.8c0-6.6 5.3-11.8 11.9-11.8 6.5 0 11.9 5.3 11.9 11.8m-3.2 0c0-4.8-3.9-8.6-8.7-8.6-4.8 0-8.7 3.9-8.7 8.6s3.9 8.6 8.7 8.6c4.8 0 8.7-3.8 8.7-8.6m-.8-1.4l-4.1 1.1c0 .2.1.2.1.4l4.1 1.2c.1-.5.1-.8.1-1.3s-.1-1-.2-1.5m-4.8 3.8l2.7 3.3c.8-.8 1.4-1.7 1.8-2.7l-4.1-1.1c-.2.2-.2.4-.4.5m-2.2 1.4v4.2c1.3-.2 2.5-.6 3.6-1.3l-2.7-3.3c-.3.2-.6.4-.9.4m3.5-10.5c-1-.7-2.2-1.1-3.5-1.2v4.4c.2.1.5.2.8.2l2.8-3.4m-86 10c.3.2.5.3.9.4v4.3c-1.3-.2-2.5-.6-3.6-1.3l2.7-3.4m-1.5-1.6l-4.2 1.2c.4 1 1 1.9 1.8 2.7l2.8-3.4c-.2-.2-.2-.4-.3-.5m1.8-5c.2-.1.5-.2.7-.2v-4.4c-1.3.2-2.5.5-3.5 1.2l2.8 3.4m-2.1 3.4c0-.1 0-.2 0-.3l-4.2-1.2c-.2.5-.2 1-.2 1.5s.1.8.2 1.3l4.2-1.2m.8-2.3l-2.8-3.4c-.8.8-1.4 1.6-1.8 2.6l4.3 1.2c.2-.2.2-.2.3-.4m6.1.3l4.1-1.1c-.4-1-1-1.9-1.8-2.6l-2.7 3.4c.1.1.2.2.3.4m8.6 1.9c0 6.6-5.3 11.8-11.8 11.8-6.6 0-11.9-5.3-11.9-11.8 0-6.5 5.3-11.8 11.9-11.8 6.5 0 11.8 5.3 11.8 11.8m-3.1 0c0-4.8-3.9-8.6-8.7-8.6s-8.7 3.9-8.7 8.6 3.9 8.6 8.7 8.6 8.7-3.8 8.7-8.6m-.8-1.4l-4.1 1.1c0 .2.1.2.1.4l4.1 1.2c.1-.5.1-.8.1-1.3-.1-.5-.1-1-.2-1.5m-4.8 3.8l2.7 3.3c.8-.8 1.4-1.7 1.8-2.7l-4.1-1.1c-.2.2-.3.4-.4.5m-2.3 1.4v4.2c1.3-.2 2.5-.6 3.6-1.3l-2.6-3.2c-.3.2-.6.3-1 .3m3.5-10.5c-1-.7-2.2-1.1-3.5-1.2v4.4c.2.1.5.2.8.2l2.8-3.4m107 3.6c0 0-3.8-5.4-16.7-9.9s-29.4-7.2-34-7.9c-.8-.2-1.2-.5-1.2-.5s-8.2-9.2-15.5-12.8c-2.9-1.4-17.8-1.3-29.3 1.7-13.4 3.4-25.9 9.3-30 11.3-1.1.5-2.1.8-2.1.8s-2.3-1.6-3.5-2.4c-.6-.4-1.5-.8-1.5-.8l-13.8-.5c0 0-.3.6.5 1.3 2.1 2 7 5.9 8.8 7.9.6.7.2 1.3.2 1.3s-2.7.8-4.2 3.1c-1.5 2.3-1.8 5.5-1.8 5.5s-2.4 0-3.8 0c-.6 0-1.1.8-1.1.8v4c0 0 0 .4.6.8 1.8 1 5.8 2.9 5.8 2.9v1.3h18.7c-.5-1.5-.8-3-.8-4.6 0-7.6 6.1-13.7 13.7-13.7s13.7 6.1 13.7 13.7c0 1.6-.3 3.1-.8 4.6h53.7c-.5-1.5-.8-3-.8-4.6 0-7.6 6.1-13.7 13.7-13.7s13.7 6.1 13.7 13.7c0 1.6-.3 3.1-.8 4.6h18c0 0 .6-.6.8-1.5.2-1.3.4-3.1.5-4.4-.1-1-.5-1.8-.5-1.8m-111-17c0 0-1.3-1.4-.4-2.2 2.5-2.1 9.6-4.9 15.6-6.7l2.5 9.2-17.7-.3m19 .3l-2.8-9.5c.2-.1.3-.1.5-.2 7.1-2 17-1.8 20.8-1.5l3.8 11.7-22.3-.5m30.9.6l-7.3-.2-3.8-11.6c.3 0 .5 0 .5 0s1 .2 2.3 1.2c2.7 2.1 8.4 8.1 9.4 9.7.5.8-1 .8-1 .8m7-1.2c-.2-.8-1.1-1.7-2.2-2.1-.9-.4-1.9-.5-2.7-.2-.8-.8-1.7-1.7-2.7-2.6-3.1-2.9-6.6-5.9-6.6-5.9s-.5-.4-.2-.7c.5-.4 1.8-.7 2.3-.6.4.1 4 2.7 7.2 5.5 3.1 2.7 5.9 5.8 5.8 6-.1.2-.4.5-.9.6"/></svg>